<?xml version="1.0" encoding="utf-8"?>
<!-- Generator: Adobe Illustrator 18.0.0, SVG Export Plug-In . SVG Version: 6.00 Build 0)  -->
<!DOCTYPE svg PUBLIC "-//W3C//DTD SVG 1.1//EN" "http://www.w3.org/Graphics/SVG/1.1/DTD/svg11.dtd">
<svg version="1.1" id="Layer_1" xmlns="http://www.w3.org/2000/svg" xmlns:xlink="http://www.w3.org/1999/xlink" x="0px" y="0px"
	 width="100px" height="100px" viewBox="0 0 100 100" enable-background="new 0 0 100 100" xml:space="preserve">
<g>
	<g>
		<path fill="#FF6200" d="M52.6,78c-1.8,0-3.3-0.7-4.1-1.9c-1.7-2.6-0.9-4.2-0.6-4.7c0.1-0.1,0.2-0.4,0.5-0.7
			c0.8-0.9,2.4-2.6,4.9-2.4c3.3,0.3,4,2.5,4.1,3c0.6,1.9,0.9,5.2-1.6,6.1C54.8,77.8,53.7,78,52.6,78z M53,69.8
			c-1.6,0-2.8,1.1-3.3,1.8c-0.3,0.3-0.4,0.6-0.4,0.6v0.1c-0.3,0.5-0.4,1.5,0.6,3c0.7,1,1.9,1.2,2.8,1.2c0.9,0,1.8-0.2,2.8-0.5
			c1.8-0.6,0.7-4.2,0.6-4.2v-0.1c0-0.2-0.3-1.6-2.7-1.8C53.2,69.8,53.1,69.8,53,69.8z"/>
	</g>
	<g>
		<path fill="#FF6200" d="M44.6,55.6l-10.4-0.1l0.1-6.7L45,48.9L44.6,55.6z M35.7,54l7.4,0.1l0.2-3.7l-7.6-0.1L35.7,54z"/>
	</g>
	<path fill="#FF6200" d="M68.9,50.3c-0.6-0.6-1.2-0.8-1.6-0.9c-0.6-0.2-1-0.3-1.4-4.3v0.2c0.5-0.1,1.1-0.4,1.5-1.1
		c0.9-1.5,0.7-4.6-2.9-17.7C60.3,11,52,7.5,49.4,7.5c-3.8,0-11.2,1.4-17.4,10.7c-6.8,10.2-6.9,20.7-6.9,21L24.9,42l1.5,1.8
		c0.6,2,1.2,5.1,0.6,6c0,0.1-0.1,0.1-0.1,0.1c-1.1,0.2-2,0.9-2.4,2c-0.4,1.3,0,2.7,0.9,3.7c0.4,0.4,0.8,0.6,1.2,0.7
		c0,0.3,0,0.8,0.1,1.4v0.8c0.3,6,6,21,7.9,24c0.1,0.2,0.3,0.5,0.5,0.8c1.7,2.9,5.2,8.9,10.5,10.2c0.7,0.2,1.4,0.3,2.1,0.3
		c1.8,0,3.6-0.6,5.5-1.7c8.4-5.2,11.3-21.8,12.9-30.7c0.4-2.1,0.7-4.2,1-4.7c0.9-0.8,2.7-2.3,2.7-4.1C69.9,51.7,69.6,50.9,68.9,50.3
		z M63,26.8c2.9,10.6,3.8,15.4,3.1,16.6c-0.1,0.1-0.2,0.2-0.4,0.3c0-0.3-0.1-0.7-0.1-1.1C64.8,30,53,11.1,52.5,10.3l-0.3-0.5
		C55.4,11.6,60.1,16.2,63,26.8z M56,50.4l6.9,0.6l-0.2,3.6l-6.3-0.2L56,50.4z M55.4,60.3v0.2c0,0.1,0,0.2,0,0.3c0,0-0.1,0.1-0.4,0.1
		c-1.3,0-6.2,0.8-8.2,1.2v-8.8c0-4.2,3.1-23.6,4.7-33.3L55.4,60.3z M46.1,92c-4.7-1.2-8-6.8-9.6-9.5c-0.2-0.3-0.3-0.6-0.5-0.8
		c-1.8-2.9-7.4-17.7-7.6-23.3v-0.8c-0.1-2.3-0.1-2.5-0.5-2.8c-0.2-0.1-0.3-0.2-0.5-0.2s-0.3,0-0.4,0.1c0,0-0.1,0-0.3-0.2
		c-0.6-0.6-0.8-1.4-0.6-2.1c0.1-0.3,0.4-0.9,1.2-1c0.5-0.1,0.9-0.3,1.1-0.8c1.1-1.7-0.2-6.5-0.5-7.4V43l-1.3-1.6l0.1-2.2
		c0-0.1,0.1-10.4,6.7-20.2C39.2,10.3,46,9,49.5,9c0.5,0,1.3,0.2,2.3,0.7v0.1l-0.5,0.6C50.7,11.3,36,32,34.5,37.6
		c-0.2,0.7-0.4,1.5-0.7,2.3c-1.6,5.6-4.1,14-0.4,24.9c3.3,10,11.5,24.4,16.9,27C48.8,92.2,47.4,92.3,46.1,92z M66.1,55.4
		c-0.5,0.4-0.7,1.4-1.4,5.6c-1.4,8.1-4.4,24.9-12.2,29.7c-0.2,0.1-0.4,0.2-0.5,0.3v-0.4c-1.2,0.1-4.1-2-8.3-8.3
		c-3.6-5.5-6.9-12.2-8.8-18c-3.5-10.5-1.1-18.6,0.5-24c0.2-0.8,0.5-1.6,0.7-2.4c1.1-4.3,11.4-19.3,15.2-24.7L51,13.9
		c-0.2,1.4-5.6,33.5-5.6,39.3v10.6l0.9-0.2c2-0.4,7.6-1.3,8.9-1.3c0.9,0,1.4-0.4,1.6-0.7C57.1,61,57,60.3,57,60l-0.4-4l7.6,0.2
		l0.4-6.6l-8.7-0.7l-3.5-35.8c3.1,5.2,11.1,19.7,11.7,29.6c0.5,6.9,1.1,7.7,2.7,8.1c0.3,0.1,0.6,0.2,1,0.5s0.5,0.7,0.5,1
		C68.3,53.6,66.8,54.9,66.1,55.4z"/>
</g>
</svg>
