<?xml version="1.0" encoding="utf-8"?>
<!-- Generator: Adobe Illustrator 18.0.0, SVG Export Plug-In . SVG Version: 6.00 Build 0)  -->
<!DOCTYPE svg PUBLIC "-//W3C//DTD SVG 1.1//EN" "http://www.w3.org/Graphics/SVG/1.1/DTD/svg11.dtd">
<svg version="1.1" id="Layer_1" xmlns="http://www.w3.org/2000/svg" xmlns:xlink="http://www.w3.org/1999/xlink" x="0px" y="0px"
	 width="182px" height="232px" viewBox="558 210 182 232" enable-background="new 558 210 182 232" xml:space="preserve">
<g>
	<path fill="#202428" d="M594.7,240.6c6.2-6.2,16.3-6.2,22.5,0c6.2,6.2,6.2,16.3,0,22.6c-6.2,6.2-16.3,6.2-22.5,0
		C588.4,256.9,588.5,246.8,594.7,240.6L594.7,240.6z"/>
	<path fill="#202428" d="M628.7,274.7c6.2-6.2,16.3-6.2,22.5,0c6.2,6.2,6.2,16.3,0,22.5c-6.2,6.2-16.3,6.2-22.5,0
		C622.5,291,622.5,280.9,628.7,274.7L628.7,274.7z"/>
	<path fill="#202428" d="M662.8,308.7c6.2-6.2,16.3-6.2,22.5,0c6.2,6.2,6.2,16.3,0,22.5c-6.2,6.2-16.3,6.2-22.5,0
		C656.6,325.1,656.6,315,662.8,308.7L662.8,308.7z"/>
	<path fill="#202428" d="M594.7,308.7c6.2-6.2,16.3-6.2,22.5,0c6.2,6.2,6.2,16.3,0,22.5c-6.2,6.2-16.3,6.2-22.5,0
		C588.4,325.1,588.4,315,594.7,308.7L594.7,308.7z"/>
	<path fill="#202428" d="M628.7,342.8c6.2-6.2,16.3-6.2,22.5,0c6.2,6.2,6.2,16.3,0,22.5c-6.2,6.2-16.3,6.2-22.5,0
		C622.5,359.1,622.5,349,628.7,342.8L628.7,342.8z"/>
	<path fill="#202428" d="M594.7,376.9c6.2-6.2,16.3-6.2,22.5,0c6.2,6.2,6.2,16.3,0,22.5c-6.2,6.2-16.3,6.2-22.5,0
		C588.4,393.2,588.4,383.1,594.7,376.9L594.7,376.9z"/>
</g>
</svg>
