<?xml version="1.0" encoding="utf-8"?>
<!-- Generator: Adobe Illustrator 18.0.0, SVG Export Plug-In . SVG Version: 6.00 Build 0)  -->
<!DOCTYPE svg PUBLIC "-//W3C//DTD SVG 1.1//EN" "http://www.w3.org/Graphics/SVG/1.1/DTD/svg11.dtd">
<svg version="1.1" id="Layer_1" xmlns="http://www.w3.org/2000/svg" xmlns:xlink="http://www.w3.org/1999/xlink" x="0px" y="0px"
	 width="43.9px" height="31.9px" viewBox="0 0 43.9 31.9" enable-background="new 0 0 43.9 31.9" xml:space="preserve">
<g>
	<polygon fill="#FF6200" points="41.4,3.3 38.5,3.4 38.8,8.8 35.9,8.8 35.9,3 33.9,3 33.9,8.8 31,8.7 31.1,3 28.2,2.8 27.8,8.7 
		25.5,8.7 25.4,2.8 22.5,2.8 22.5,8.7 20.9,8.7 20.9,3 16.9,3 16.9,8.7 14.9,8.7 14.9,3 11.9,3 11.9,8.7 10.9,8.7 10.9,3 7.9,3 
		7.9,8.7 5.9,8.6 5.5,2.4 2.6,2.6 3.1,11.5 41.9,11.6 	"/>
	<polygon fill="#FF6200" points="2.7,20.2 2.5,28.8 5.4,28.8 5.5,23.1 8,23.1 8.2,28.4 11.1,28.3 10.8,23 12.3,23 12.5,28.6 
		15.4,28.4 14.6,23 16.9,23 16.9,29 20.9,29 19.9,23 22.9,23 22.6,28.4 25.5,28.6 25.7,23 27.5,23 27.6,28.3 30.5,28.2 30.4,23 
		32.5,23 32.9,28.3 35.8,28.1 35.4,23 39.3,22.9 39.1,28.7 41.9,28.8 42.3,20.1 	"/>
	<circle fill="#FF6200" cx="11.6" cy="13.5" r="2"/>
	<circle fill="#FF6200" cx="6.8" cy="18.4" r="1.9"/>
	<circle fill="#FF6200" cx="15.9" cy="18.1" r="1.7"/>
	<ellipse fill="#FF6200" cx="20.9" cy="14.4" rx="2" ry="1.9"/>
	<ellipse fill="#FF6200" cx="26.6" cy="17.8" rx="2.1" ry="1.9"/>
	<ellipse fill="#FF6200" cx="30.9" cy="14.4" rx="2.1" ry="1.7"/>
	<circle fill="#FF6200" cx="34.6" cy="18.2" r="1.7"/>
	<ellipse fill="#FF6200" cx="39.5" cy="14.5" rx="1.9" ry="1.7"/>
</g>
</svg>
