<?xml version="1.0" encoding="utf-8"?>
<!-- Generator: Adobe Illustrator 18.0.0, SVG Export Plug-In . SVG Version: 6.00 Build 0)  -->
<!DOCTYPE svg PUBLIC "-//W3C//DTD SVG 1.1//EN" "http://www.w3.org/Graphics/SVG/1.1/DTD/svg11.dtd">
<svg version="1.1" id="Layer_1" xmlns="http://www.w3.org/2000/svg" xmlns:xlink="http://www.w3.org/1999/xlink" x="0px" y="0px"
	 width="100px" height="100px" viewBox="0 0 100 100" enable-background="new 0 0 100 100" xml:space="preserve">
<path fill="#F9A340" d="M39.8,96.1c0,0,0.3-6.2,0.3-7.3c0-1.1,5.4-20.1,5.4-20.1l1.9-4.9l0.6-4c0,0,0.2,4.3,1.4,4.2s0.3,4.3,1.5,4.4
	s0.8,5,2.4,4.8c1.6-0.2,0.3,3.9,1.9,3.7c1.6-0.2,0.7,6.9,2.2,6.9s0.7,8.6,2.3,8.6s1.9-0.2,1.9-1.7s-0.2-48.1-0.2-48.1
	s-0.3-6.5-5.6-4.1c-5.2,2.5,0.6-5.2,0.6-5.2s2-7.3-2.2-8.9c-1.4-1.3-1.9-3.3-2.2-4s-2.9-4.8-3.3-4.8c-0.3,0-0.2,8.2-0.2,8.2
	s-7,5.4-7,8.6s-5,58.1-5,58.1l-0.6,5l2-1.9l1.9,3.6V96.1z"/>
<path fill="#2FB44B" d="M37.3,85.8c0,0,0.3-6.2,0.3-7.3S43,58.4,43,58.4l1.9-4.9l0.6-4c0,0,0.2,4.3,1.4,4.2s0.3,4.3,1.5,4.4
	s0.8,5,2.4,4.8s0.3,3.9,1.9,3.7c1.6-0.2,0.7,6.9,2.2,6.9s0.7,8.6,2.3,8.6s1.9-0.2,1.9-1.7c0-1.4-0.2-48.1-0.2-48.1s-0.3-6.5-5.6-4.1
	s0.5-5.4,0.5-5.4s2-7.3-2.2-8.9c-1.4-1.3-1.9-3.3-2.2-4s-2.9-4.8-3.3-4.8s-0.2,8.2-0.2,8.2s-7,5.4-7,8.6s-5,58.1-5,58.1l-0.6,5
	l2-1.9l1.9,3.6L37.3,85.8z"/>
<g>
	<path fill="#342323" d="M50.4,9.7c0.4,0,0.6,0,2.3,2.5c0.5,0.8,1.5,2.3,1.7,2.8c0,0.1,0.1,0.2,0.1,0.3c0.2,0.7,0.8,2.2,1.8,3.3
		c4.6,1.9,2.6,9.4,2.5,9.7v0.1l-0.1,0.1c-1.4,1.9-2.5,4-2.6,4.7c0.2,0,0.5-0.1,1.2-0.4c0.9-0.4,1.7-0.6,2.4-0.6
		c3.1,0,4.1,3.5,4.2,5.3c0,0.5,0.2,46.7,0.2,48.1c0,1.9-0.6,2.4-2.6,2.4c-1.5,0-1.7-2.2-1.9-5.1c-0.1-1.2-0.3-3.1-0.6-3.6
		c-1.3-0.1-1.5-2.1-1.7-4.1c-0.1-0.9-0.2-2.4-0.5-2.8l0,0c-1.4,0-1.5-1.6-1.6-2.5c0-0.4-0.1-1-0.2-1.2h-0.1c-1.4,0-1.8-1.7-2-3.2
		c-0.1-0.5-0.3-1.4-0.4-1.6c-1.2-0.2-1.3-1.6-1.4-2.9c0-0.4-0.1-1.1-0.2-1.4c-0.5-0.1-0.8-0.4-1.1-0.9v0.2L48,63.8
		c-2,7.2-5.3,18.9-5.4,19.9c0,1.1-0.3,7.1-0.3,7.3v0.1l-0.5,3.4l-2.5-4.7l-2.8,2.6l0.9-7.1c0-0.5,5-54.8,5-58s5.6-7.8,7-9
		c-0.1-7.9,0.2-8.1,0.4-8.4L50,9.7H50.4z M57.4,27.8c0.2-0.9,1.5-6.6-1.8-7.9l-0.1-0.1l-0.1-0.1c-1.4-1.3-2-3.1-2.3-4
		c0-0.1-0.1-0.2-0.1-0.3c-0.1-0.4-1.2-2-2-3.2c-0.1,1.6-0.1,4.1,0,6.4V19l-0.3,0.2c-2.6,2-6.8,5.9-6.8,8c0,3.2-4.8,55.9-5,58.2
		l-0.4,3l1.2-1.1l1.1,2.2c0.1-1.9,0.2-5.1,0.2-5.8c0-1.1,4.2-15.8,5.4-20.3v-0.1l2-4.8l1.7-10.8l0.4,7c0.1,1.5,0.4,3.1,0.7,3.5
		c1.2,0,1.3,1.5,1.4,2.8c0,0.5,0.1,1.3,0.2,1.6c1,0.2,1.3,1.5,1.5,2.8c0.1,0.6,0.4,1.9,0.6,2H55l0,0c1.4,0,1.5,1.6,1.6,2.5
		c0,0.4,0.1,1,0.2,1.2h0.1c1.4,0,1.6,2,1.8,4.1c0.1,0.9,0.2,2.4,0.5,2.8c1.3,0.1,1.5,2.2,1.7,4.9c0.1,1.2,0.3,3.2,0.6,3.7
		c0.7,0,0.9-0.1,0.9-0.1s0.1-0.2,0.1-0.8c0-1.4-0.2-47.6-0.2-48.1c0,0-0.2-3.9-2.7-3.9c-0.5,0-1.1,0.2-1.8,0.5
		c-0.8,0.3-1.4,0.5-1.9,0.5c-0.8,0-1.1-0.4-1.3-0.7C54.1,32.6,56.1,29.6,57.4,27.8z"/>
</g>
</svg>
