<?xml version="1.0" encoding="utf-8"?>
<!-- Generator: Adobe Illustrator 18.0.0, SVG Export Plug-In . SVG Version: 6.00 Build 0)  -->
<!DOCTYPE svg PUBLIC "-//W3C//DTD SVG 1.1//EN" "http://www.w3.org/Graphics/SVG/1.1/DTD/svg11.dtd">
<svg version="1.1" id="Layer_1" xmlns="http://www.w3.org/2000/svg" xmlns:xlink="http://www.w3.org/1999/xlink" x="0px" y="0px"
	 width="100px" height="100px" viewBox="0 0 100 100" enable-background="new 0 0 100 100" xml:space="preserve">
<g>
	<path fill="#FF6200" d="M47,92.6c-0.4,0-0.6,0-2.3-2.5c-0.5-0.8-1.5-2.3-1.7-2.8c0-0.1-0.1-0.2-0.1-0.3c-0.2-0.7-0.8-2.2-1.8-3.3
		c-4.6-1.9-2.6-9.4-2.5-9.7v-0.1l0.1-0.1c1.4-1.9,2.5-4,2.6-4.7c-0.2,0-0.5,0.1-1.2,0.4c-0.9,0.4-1.7,0.6-2.4,0.6
		c-3.1,0-4.1-3.5-4.2-5.3c0-0.5-0.2-46.7-0.2-48.1c0-1.9,0.6-2.4,2.6-2.4c1.5,0,1.7,2.2,1.9,5.1c0.1,1.2,0.3,3.1,0.6,3.6
		c1.3,0.1,1.5,2.1,1.7,4.1c0.1,0.9,0.2,2.4,0.5,2.8l0,0c1.4,0,1.5,1.6,1.6,2.5c0,0.4,0.1,1,0.2,1.2h0.1c1.4,0,1.8,1.7,2,3.2
		c0.1,0.5,0.3,1.4,0.4,1.6c1.2,0.2,1.3,1.6,1.4,2.9c0,0.4,0.1,1.1,0.2,1.4c0.5,0.1,0.8,0.4,1.1,0.9v-0.2l1.8-4.9
		c2-7.2,5.3-18.9,5.4-19.9c0-1.1,0.3-7.1,0.3-7.3v-0.1l0.5-3.4l2.5,4.7l2.8-2.6L60,17c0,0.5-5,54.8-5,58s-5.6,7.8-7,9
		c0.1,7.9-0.2,8.1-0.4,8.4l-0.2,0.2H47z M40,74.5c-0.2,0.9-1.5,6.6,1.8,7.9l0.1,0.1l0.1,0.1c1.4,1.3,2,3.1,2.3,4
		c0,0.1,0.1,0.2,0.1,0.3c0.1,0.4,1.2,2,2,3.2c0.1-1.6,0.1-4.1,0-6.4v-0.4l0.3-0.2c2.6-2,6.8-5.9,6.8-8c0-3.2,4.8-55.9,5-58.2l0.4-3
		L57.7,15l-1.1-2.2c-0.1,1.9-0.2,5.1-0.2,5.8c0,1.1-4.2,15.8-5.4,20.3V39l-2,4.8l-1.7,10.8l-0.4-7c-0.1-1.5-0.4-3.1-0.7-3.5
		c-1.2,0-1.3-1.5-1.4-2.8c0-0.5-0.1-1.3-0.2-1.6c-1-0.2-1.3-1.5-1.5-2.8c-0.1-0.6-0.4-1.9-0.6-2h-0.1l0,0c-1.4,0-1.5-1.6-1.6-2.5
		c0-0.4-0.1-1-0.2-1.2h-0.1c-1.4,0-1.6-2-1.8-4.1c-0.1-0.9-0.2-2.4-0.5-2.8c-1.3-0.1-1.5-2.2-1.7-4.9c-0.1-1.2-0.3-3.2-0.6-3.7
		c-0.7,0-0.9,0.1-0.9,0.1s-0.1,0.2-0.1,0.8c0,1.4,0.2,47.6,0.2,48.1c0,0,0.2,3.9,2.7,3.9c0.5,0,1.1-0.2,1.8-0.5
		c0.8-0.3,1.4-0.5,1.9-0.5c0.8,0,1.1,0.4,1.3,0.7C43.3,69.7,41.3,72.7,40,74.5z"/>
</g>
</svg>
