<?xml version="1.0" encoding="utf-8"?>
<!-- Generator: Adobe Illustrator 18.0.0, SVG Export Plug-In . SVG Version: 6.00 Build 0)  -->
<!DOCTYPE svg PUBLIC "-//W3C//DTD SVG 1.1//EN" "http://www.w3.org/Graphics/SVG/1.1/DTD/svg11.dtd">
<svg version="1.1" id="Layer_1" xmlns="http://www.w3.org/2000/svg" xmlns:xlink="http://www.w3.org/1999/xlink" x="0px" y="0px"
	 width="100px" height="100px" viewBox="0 0 100 100" enable-background="new 0 0 100 100" xml:space="preserve">
<path fill="#FFFFFF" d="M87.2,46.8c-0.9-0.3-2.7-0.9-4-2.3l-0.1-0.1L83,44.3c-1.3-3.3-7-2-7.9-1.8c-1.8,1.3-4.8,3.3-6.2,2.8
	c-0.3-0.2-0.7-0.5-0.7-1.3c0-0.5,0.2-1.1,0.5-1.9c0.3-0.7,0.5-1.3,0.5-1.8c0-2.5-3.9-2.7-3.9-2.7c-0.5,0-46.7-0.2-48.1-0.2
	c-0.6,0-0.8,0.1-0.8,0.1s-0.1,0.2-0.1,0.9c0.5,0.3,2.5,0.5,3.7,0.6c2.7,0.2,4.8,0.4,4.9,1.7c0.4,0.3,1.9,0.4,2.8,0.5
	c2.1,0.2,4.1,0.4,4.1,1.8v0.1c0.2,0.1,0.8,0.2,1.2,0.2c0.9,0.1,2.5,0.2,2.5,1.6V45c0.1,0.2,1.4,0.5,2,0.6c1.3,0.2,2.6,0.5,2.8,1.5
	c0.3,0.1,1.1,0.2,1.6,0.2c1.3,0.1,2.8,0.2,2.8,1.4c0.4,0.3,2,0.6,3.5,0.7l7,0.4l-10.8,1.7l-4.8,2h-0.1c-4.5,1.2-19.2,5.4-20.3,5.4
	c-0.7,0-3.9,0.1-5.8,0.2l2.2,1.1l-1.1,1.2l3-0.4c2.3-0.2,55-5,58.2-5c2.1,0,6-4.2,8-6.8l0.2-0.3h0.4c2.3,0.1,4.8,0.1,6.4,0
	c-1.2-0.8-2.8-1.9-3.2-2C87.4,46.9,87.3,46.8,87.2,46.8z"/>
<g>
	<path fill="#FF6200" d="M93.2,49.9L93,50.1c-0.3,0.2-0.5,0.5-8.4,0.4c-1.2,1.4-5.8,7-9,7s-57.5,5-58,5l-7.1,0.9l2.6-2.8l-4.7-2.5
		l3.4-0.5h0.1c0.2,0,6.2-0.3,7.3-0.3c1-0.1,12.7-3.4,19.9-5.4L44,50h0.2c-0.5-0.3-0.8-0.6-0.9-1.1c-0.3-0.1-1-0.2-1.4-0.2
		c-1.3-0.1-2.7-0.2-2.9-1.4c-0.2-0.1-1.1-0.3-1.6-0.4c-1.5-0.2-3.2-0.6-3.2-2v-0.1c-0.2-0.1-0.8-0.2-1.2-0.2
		c-0.9-0.1-2.5-0.2-2.5-1.6l0,0c-0.4-0.3-1.9-0.4-2.8-0.5c-2-0.2-4-0.4-4.1-1.7c-0.5-0.3-2.4-0.5-3.6-0.6c-2.9-0.2-5.1-0.4-5.1-1.9
		c0-2,0.5-2.6,2.4-2.6c1.4,0,47.6,0.2,48.1,0.2c1.8,0.1,5.3,1.1,5.3,4.2c0,0.7-0.2,1.5-0.6,2.4c-0.3,0.7-0.4,1-0.4,1.2
		c0.7-0.1,2.8-1.2,4.7-2.6l0.1-0.1h0.1c0.3-0.1,7.8-2.1,9.7,2.5c1.1,1,2.6,1.6,3.3,1.8c0.1,0,0.2,0.1,0.3,0.1c0.5,0.2,2,1.2,2.8,1.7
		c2.5,1.7,2.5,1.9,2.5,2.3V49.9z M68.9,45.3c-0.3-0.2-0.7-0.5-0.7-1.3c0-0.5,0.2-1.1,0.5-1.9c0.3-0.7,0.5-1.3,0.5-1.8
		c0-2.5-3.9-2.7-3.9-2.7c-0.5,0-46.7-0.2-48.1-0.2c-0.6,0-0.8,0.1-0.8,0.1s-0.1,0.2-0.1,0.9c0.5,0.3,2.5,0.5,3.7,0.6
		c2.7,0.2,4.8,0.4,4.9,1.7c0.4,0.3,1.9,0.4,2.8,0.5c2.1,0.2,4.1,0.4,4.1,1.8v0.1c0.2,0.1,0.8,0.2,1.2,0.2c0.9,0.1,2.5,0.2,2.5,1.6
		l0,0V45c0.1,0.2,1.4,0.5,2,0.6c1.3,0.2,2.6,0.5,2.8,1.5c0.3,0.1,1.1,0.2,1.6,0.2c1.3,0.1,2.8,0.2,2.8,1.4c0.4,0.3,2,0.6,3.5,0.7
		l7,0.4l-10.8,1.7l-4.8,2h-0.1c-4.5,1.2-19.2,5.4-20.3,5.4c-0.7,0-3.9,0.1-5.8,0.2l2.2,1.1l-1.1,1.2l3-0.4c2.3-0.2,55-5,58.2-5
		c2.1,0,6-4.2,8-6.8l0.2-0.3h0.4c2.3,0.1,4.8,0.1,6.4,0c-1.2-0.8-2.8-1.9-3.2-2c-0.1,0-0.2-0.1-0.3-0.1c-0.9-0.3-2.7-0.9-4-2.3
		l-0.1-0.1L83,44.3c-1.3-3.3-7-2-7.9-1.8C73.3,43.8,70.3,45.8,68.9,45.3z"/>
</g>
</svg>
