<?xml version="1.0" encoding="utf-8"?>
<!-- Generator: Adobe Illustrator 18.0.0, SVG Export Plug-In . SVG Version: 6.00 Build 0)  -->
<!DOCTYPE svg PUBLIC "-//W3C//DTD SVG 1.1//EN" "http://www.w3.org/Graphics/SVG/1.1/DTD/svg11.dtd">
<svg version="1.1" id="Layer_1" xmlns="http://www.w3.org/2000/svg" xmlns:xlink="http://www.w3.org/1999/xlink" x="0px" y="0px"
	 width="100px" height="100px" viewBox="0 0 100 100" enable-background="new 0 0 100 100" xml:space="preserve">
<path fill="#F9A340" d="M57.6,6.2c0,0-0.3,6.2-0.3,7.3s-5.4,20.1-5.4,20.1L50,38.5l-0.6,4c0,0-0.2-4.3-1.4-4.2
	c-1.2,0.1-0.3-4.3-1.5-4.4c-1.2-0.1-0.8-5-2.4-4.8c-1.6,0.2-0.3-3.9-1.9-3.7c-1.6,0.2-0.7-6.9-2.2-6.9s-0.7-8.6-2.3-8.6
	s-1.9,0.2-1.9,1.7s0.2,48.1,0.2,48.1s0.3,6.5,5.6,4.1C46.8,61.3,41,69,41,69s-2,7.3,2.2,8.9c1.4,1.3,1.9,3.3,2.2,4s2.9,4.8,3.3,4.8
	c0.3,0,0.2-8.2,0.2-8.2s7-5.4,7-8.6c0-3.2,5-58.1,5-58.1l0.6-5l-2,1.9l-1.9-3.6L57.6,6.2z"/>
<path fill="#2FB44B" d="M60.1,16.5c0,0-0.3,6.2-0.3,7.3c0,1.1-5.4,20.1-5.4,20.1l-1.9,4.9l-0.6,4c0,0-0.2-4.3-1.4-4.2
	c-1.2,0.1-0.3-4.3-1.5-4.4s-0.8-5-2.4-4.8s-0.3-3.9-1.9-3.7c-1.6,0.2-0.7-6.9-2.2-6.9c-1.5,0-0.7-8.6-2.3-8.6
	c-1.6,0-1.9,0.2-1.9,1.7c0,1.4,0.2,48.1,0.2,48.1s0.3,6.5,5.6,4.1c5.3-2.4-0.5,5.4-0.5,5.4s-2,7.3,2.2,8.9c1.4,1.3,1.9,3.3,2.2,4
	s2.9,4.8,3.3,4.8s0.2-8.2,0.2-8.2s7-5.4,7-8.6c0-3.2,5-58.1,5-58.1l0.6-5l-2,1.9l-1.9-3.6L60.1,16.5z"/>
<g>
	<path fill="#342323" d="M47,92.6c-0.4,0-0.6,0-2.3-2.5c-0.5-0.8-1.5-2.3-1.7-2.8c0-0.1-0.1-0.2-0.1-0.3c-0.2-0.7-0.8-2.2-1.8-3.3
		c-4.6-1.9-2.6-9.4-2.5-9.7l0-0.1l0.1-0.1c1.4-1.9,2.5-4,2.6-4.7c-0.2,0-0.5,0.1-1.2,0.4c-0.9,0.4-1.7,0.6-2.4,0.6
		c-3.1,0-4.1-3.5-4.2-5.3c0-0.5-0.2-46.7-0.2-48.1c0-1.9,0.6-2.4,2.6-2.4c1.5,0,1.7,2.2,1.9,5.1c0.1,1.2,0.3,3.1,0.6,3.6
		c1.3,0.1,1.5,2.1,1.7,4.1c0.1,0.9,0.2,2.4,0.5,2.8c0,0,0,0,0,0c1.4,0,1.5,1.6,1.6,2.5c0,0.4,0.1,1,0.2,1.2c0,0,0.1,0,0.1,0
		c1.4,0,1.8,1.7,2,3.2c0.1,0.5,0.3,1.4,0.4,1.6c1.2,0.2,1.3,1.6,1.4,2.9c0,0.4,0.1,1.1,0.2,1.4c0.5,0.1,0.8,0.4,1.1,0.9l0-0.2
		l1.8-4.9c2-7.2,5.3-18.9,5.4-19.9c0-1.1,0.3-7.1,0.3-7.3l0-0.1l0.5-3.4l2.5,4.7l2.8-2.6L60,17c0,0.5-5,54.8-5,58c0,3.2-5.6,7.8-7,9
		c0.1,7.9-0.2,8.1-0.4,8.4l-0.2,0.2L47,92.6z M40,74.5c-0.2,0.9-1.5,6.6,1.8,7.9l0.1,0.1l0.1,0.1c1.4,1.3,2,3.1,2.3,4
		c0,0.1,0.1,0.2,0.1,0.3c0.1,0.4,1.2,2,2,3.2c0.1-1.6,0.1-4.1,0-6.4l0-0.4l0.3-0.2c2.6-2,6.8-5.9,6.8-8c0-3.2,4.8-55.9,5-58.2l0.4-3
		L57.7,15l-1.1-2.2c-0.1,1.9-0.2,5.1-0.2,5.8c0,1.1-4.2,15.8-5.4,20.3l0,0.1L49,43.8l-1.7,10.8l-0.4-7c-0.1-1.5-0.4-3.1-0.7-3.5
		c-1.2,0-1.3-1.5-1.4-2.8c0-0.5-0.1-1.3-0.2-1.6c-1-0.2-1.3-1.5-1.5-2.8c-0.1-0.6-0.4-1.9-0.6-2c0,0-0.1,0-0.1,0c0,0,0,0,0,0
		c-1.4,0-1.5-1.6-1.6-2.5c0-0.4-0.1-1-0.2-1.2c0,0-0.1,0-0.1,0c-1.4,0-1.6-2-1.8-4.1c-0.1-0.9-0.2-2.4-0.5-2.8
		c-1.3-0.1-1.5-2.2-1.7-4.9c-0.1-1.2-0.3-3.2-0.6-3.7c-0.7,0-0.9,0.1-0.9,0.1c0,0-0.1,0.2-0.1,0.8c0,1.4,0.2,47.6,0.2,48.1
		c0,0,0.2,3.9,2.7,3.9c0.5,0,1.1-0.2,1.8-0.5c0.8-0.3,1.4-0.5,1.9-0.5c0.8,0,1.1,0.4,1.3,0.7C43.3,69.7,41.3,72.7,40,74.5z"/>
</g>
</svg>
