<?xml version="1.0" encoding="utf-8"?>
<!-- Generator: Adobe Illustrator 18.0.0, SVG Export Plug-In . SVG Version: 6.00 Build 0)  -->
<!DOCTYPE svg PUBLIC "-//W3C//DTD SVG 1.1//EN" "http://www.w3.org/Graphics/SVG/1.1/DTD/svg11.dtd">
<svg version="1.1" id="Layer_1" xmlns="http://www.w3.org/2000/svg" xmlns:xlink="http://www.w3.org/1999/xlink" x="0px" y="0px"
	 width="100px" height="100px" viewBox="0 0 100 100" enable-background="new 0 0 100 100" xml:space="preserve">
<g>
	<path fill="#F15A25" d="M50.3,10.6c0,0-5.7,9.2-7.5,19.6S39,59,42.3,65.5c3.4,6.5,3.4,9.2,3.4,9.2S33.7,88.5,34.4,91.9
		c0.8,3.5,30.5-0.4,30.5-0.4l3-3.8L57.1,73.9l5.7-13.4c0,0,1.5-22.2,1.1-25.3C63.5,32.1,53.3,11.4,50.3,10.6z"/>
	<path fill="#405BA9" d="M52.1,18.2c0,0-6.6,13.2-6.6,17.6s11.2-7.5,11.2-7.5S53.4,16.1,52.1,18.2z"/>
	<polygon fill="#405BA9" points="44.5,43.7 47.5,58.7 58,50.7 57.7,34.9 	"/>
	<path fill="#405BA9" d="M49.6,64.4c0,0,0.8,3.9,2.8,2.6s4.8-8,4.8-8L49.6,64.4z"/>
	<path fill="#405BA9" d="M50.1,74.5l-6.4,7.8c0,0,11.7,0.5,11.5-0.8C54.9,80.2,50.1,74.5,50.1,74.5z"/>
	<g>
		<g>
			<path fill="#010101" d="M40.3,91.4C40.3,91.4,40.3,91.4,40.3,91.4c-6.7,0-7.8-1-8.1-2c-0.8-3.5,8.8-14.8,11.3-17.7
				c-0.1-0.8-0.6-3.5-3.3-8.6c-3.6-7-1.4-26.4,0.3-35.8c1.9-10.4,7.4-19.4,7.6-19.8L48.4,7L49,7.2c3.7,0.9,13.8,22.4,14.1,25.2
				c0.4,3.1-1.1,24.5-1.1,25.4l0,0.1L56.4,71l11,13.9l-3.6,4.5l-0.3,0C63.4,89.6,49.2,91.4,40.3,91.4z M49,8.9
				C47.8,11.2,43.5,19,42,27.6c-1.9,10.6-3.7,28.6-0.4,34.8C45,69,45,71.8,45,71.9v0.3l-0.2,0.2C39.9,78,33.2,86.9,33.7,89
				c0,0,0.6,0.8,6.6,0.9c8.2,0,20.7-1.5,22.8-1.8l2.5-3.1L54.7,71.3l5.8-13.7c0.5-7.7,1.4-22.7,1.1-25c-0.2-1.3-2.5-6.7-5.7-12.9
				C52.2,12.7,50,9.8,49,8.9z"/>
		</g>
		<g>
			<path fill="#010101" d="M44.2,37.5L44.2,37.5c-0.7,0-1.5-0.5-1.5-1.7c0-4.5,6.4-17.4,6.7-18l0-0.1c0.3-0.5,0.7-0.6,1-0.6
				c0.5,0,2,0,5,10.9l0.1,0.4l-0.3,0.3C53.9,30.3,46.9,37.5,44.2,37.5z M50.6,19c-1.2,2.3-6.3,13.1-6.3,16.8c0,0.1,0,0.2,0,0.2
				c1.5-0.1,6.4-4.6,9.6-7.9C52.8,24.3,51.4,20.2,50.6,19z"/>
		</g>
		<g>
			<path fill="#010101" d="M45,60.1l-3.4-16.7l14.8-9.9l0.3,17.6L45,60.1z M43.3,44L46,57.4l9.2-7.1L55,36.3L43.3,44z"/>
		</g>
		<g>
			<path fill="#010101" d="M49.6,68C49.6,68,49.6,68,49.6,68c-2,0-2.7-3.1-2.7-3.5l-0.1-0.5l10.2-7.2l-1,2.4c-0.3,0.7-3,7-5.1,8.4
				C50.4,67.9,50,68,49.6,68z M48.4,64.7c0.3,0.9,0.7,1.8,1.2,1.8l0,0c0.1,0,0.2-0.1,0.4-0.1c1-0.6,2.3-3,3.4-5.2L48.4,64.7z"/>
		</g>
		<g>
			<path fill="#010101" d="M46.6,83.2c-2.5,0-4.9-0.1-4.9-0.1L40.2,83l7.9-9.6l0.6,0.7c1.2,1.4,5,6,5.3,7.3c0.1,0.3,0,0.6-0.2,0.8
				C53.4,82.6,52.9,83.2,46.6,83.2z M43.3,81.6c0.9,0,2.1,0,3.3,0c3.7,0,5.2-0.2,5.7-0.4c-0.6-1-2.4-3.4-4.2-5.6L43.3,81.6z"/>
		</g>
	</g>
</g>
</svg>
