<?xml version="1.0" encoding="utf-8"?>
<!-- Generator: Adobe Illustrator 18.0.0, SVG Export Plug-In . SVG Version: 6.00 Build 0)  -->
<!DOCTYPE svg PUBLIC "-//W3C//DTD SVG 1.1//EN" "http://www.w3.org/Graphics/SVG/1.1/DTD/svg11.dtd">
<svg version="1.1" id="Layer_1" xmlns="http://www.w3.org/2000/svg" xmlns:xlink="http://www.w3.org/1999/xlink" x="0px" y="0px"
	 width="100px" height="100px" viewBox="0 0 100 100" enable-background="new 0 0 100 100" xml:space="preserve">
<polygon fill="#F2E143" points="10.5,13.9 13.9,90.8 88.6,92.9 88.6,5.6 "/>
<polygon fill="#EA5231" points="20.7,16.1 19.8,86.1 74.1,84.3 72.9,55.3 81.5,24.1 81.5,12.7 "/>
<g>
	<g>
		<path fill="#010101" d="M15.6,86.6l0.2-1.1c0-0.2,2.7-18.1,1.7-25c-1.1-7.1-1.5-32.3-1.6-33.4v-1h1c0.2,0,20.9,0.3,30.2,0.2
			c9.2-0.2,30.5-3,30.7-3.1l1.4-0.2l-0.4,1.4c-0.1,0.2-7.4,23.4-7.5,31.2c-0.1,7.3,0,24.3,0,27c0.4,0,0.8,0.1,1.1,0.1
			c3.1,0.4,6.3,0.7,7.1,0.4c-0.6-3.2-0.6-21.3-0.5-34.8c0-1.3,0-2.2,0-2.7c0-2.9,3.7-32.9,4.6-39.9C81,6.4,74.7,8,66.4,9.4
			C55.1,11.4,10.8,12,9,12v-1.9c0.5,0,46-0.6,57-2.5c11.1-1.8,18.3-4,18.4-4l1.4-0.4l-0.2,1.4c-1.6,13.1-4.8,38.5-4.8,41
			c0,0.4,0,1.4,0,2.7c0,7.8-0.2,31.4,0.5,34.4c0.2,0.8-0.1,1.3-0.4,1.6c-1,1.1-3.6,0.8-8.7,0.2c-5.9-0.7-14.9-1.7-25.3-0.7
			c-19.7,2-30,2.6-30.1,2.6L15.6,86.6z M17.7,28c0.1,4.8,0.6,26,1.5,32.2s-0.9,20.3-1.5,24.4c3.2-0.2,12.9-0.9,28.9-2.5
			c9-0.9,16.9-0.3,22.7,0.4c0-3.4-0.1-19.7,0-26.9c0.1-7,5.6-25.1,7.2-30.3c-5,0.7-21.6,2.8-29.5,2.9C38.9,28.3,21.9,28.1,17.7,28z"
			/>
	</g>
	<g>
		<path fill="#010101" d="M47.8,66.9c-2,0-4.1-0.6-6.4-1.8c-6.5-3.5-7.5-8.4-7.6-11c-0.1-2.7,0.9-4.9,1.9-5.6
			c0.7-0.8,6.1-6.4,12-6.4c0.9,0,1.8,0.1,2.7,0.4c6,1.9,8.4,12.3,8.4,16.2c0,1-0.1,2.3-1.1,2.6c-0.1,0.1-0.6,0.6-1,1
			C55,63.9,52.3,66.9,47.8,66.9z M47.7,43.8c-5.4,0-10.6,5.9-10.7,5.9v0.1l-0.1,0.1c-0.4,0.2-1.2,1.9-1.1,4.4
			c0.1,2.6,1.4,6.3,6.6,9.1c2,1.1,3.8,1.6,5.5,1.6c3.7,0,5.9-2.5,7.4-4.2c0.6-0.7,1.1-1.2,1.5-1.4c0.3-0.9-0.1-5-1.7-9.1
			c-1.4-3.4-3.3-5.6-5.3-6.2C49.1,43.9,48.4,43.8,47.7,43.8z"/>
	</g>
	<g>
		<path fill="#010101" d="M47.5,61.2L47.5,61.2c-5.2,0-6.4-3-6.7-4.4c-0.6-2.7,0.8-5.7,3-6.7c0.6-0.3,1.3-0.4,2-0.4
			c3.8,0,7.7,4.1,7.9,7.2c0.2,2.2-1.3,3.7-3.8,4C49.1,61.1,48.3,61.2,47.5,61.2z M45.9,51.6c-0.4,0-0.9,0.1-1.3,0.3
			c-1.2,0.5-2.4,2.7-2,4.6c0.4,1.9,2.1,2.9,4.9,2.9l0,0c0.6,0,1.3-0.1,2.1-0.2c2.4-0.3,2.3-1.7,2.3-2.1
			C51.7,54.8,48.7,51.6,45.9,51.6z"/>
	</g>
	<g>
		<path fill="#010101" d="M23.7,24.1L23.7,24.1c-0.8,0-1.9-0.4-3-2.4c-0.6-1.1-0.4-1.9-0.1-2.4c0.9-1.6,3.4-1.8,3.9-1.8h0.4l0.3,0.3
			c0.8,0.7,2,2.5,1,4.5C25.4,23.8,24.3,24.1,23.7,24.1z M24.3,19.3c-0.8,0.1-1.8,0.4-2,0.8c-0.1,0.1,0,0.4,0.1,0.7
			c0.6,1,1.1,1.4,1.3,1.4c0.2,0,0.5-0.2,0.9-0.9C25,20.4,24.6,19.7,24.3,19.3z"/>
	</g>
	<g>
		<path fill="#010101" d="M33.1,23.5c-0.9,0-3.1-0.4-3.4-3.7c-0.1-0.7,0.1-1.4,0.6-1.9c0.6-0.6,1.6-1,2.7-1c1.7,0,3.6,0.8,3.7,2.5
			c0.3,2.7-2.1,3.8-2.2,3.8h-0.1C34.4,23.3,33.8,23.5,33.1,23.5z M33,18.8c-0.6,0-1.1,0.2-1.3,0.4c-0.1,0.1-0.1,0.2-0.1,0.4
			c0.2,2,1.2,2,1.6,2c0.3,0,0.6-0.1,0.6-0.1c0.2-0.1,1.2-0.7,1.1-1.9C34.8,19.3,34,18.8,33,18.8z"/>
	</g>
	<g>
		<path fill="#010101" d="M76.1,20.5L68,20.3l0.1-6.7l8-0.7V20.5z M69.9,18.5l4.4,0.1V15L70,15.4L69.9,18.5z"/>
	</g>
	<g>
		<path fill="#010101" d="M65.1,20.9L65.1,20.9c-1.4,0-2.9-1-2.9-2.4s1.7-2.3,2.3-2.6l0.3-0.1h0.3c1.3,0.2,1.8,1.7,1.8,2.9
			c0,1.2-0.6,2-1.4,2.1C65.3,20.9,65.2,20.9,65.1,20.9z M64.9,17.9c-0.4,0.2-0.7,0.5-0.8,0.7c0,0.1,0.4,0.4,0.9,0.5
			C65.1,18.7,65,18.2,64.9,17.9z"/>
	</g>
	<g>
		<path fill="#010101" d="M60.2,21c-0.9,0-1.6-0.6-1.9-1.5c-0.2-0.8,0-2.1,1.4-2.9l0.3-0.2l0.3,0.1c0.3,0.1,1.8,0.4,2.2,1.6
			c0.2,0.5,0.2,1.2-0.7,2.1C61.3,20.9,60.6,21,60.2,21z M60.4,18.4c-0.2,0.2-0.3,0.5-0.3,0.6s0.1,0.1,0.1,0.1s0.2-0.1,0.4-0.2
			c0.1-0.1,0.2-0.2,0.2-0.3C60.7,18.5,60.5,18.5,60.4,18.4z"/>
	</g>
	<g>
		<path fill="#010101" d="M56.1,21.4c-0.8,0-1.7-0.4-2.1-1c-0.2-0.3-0.5-1-0.1-1.9c0-0.3,0.1-0.9,0.5-1.4c0.2-0.3,0.7-0.6,1.3-0.6
			c0.4,0,0.7,0.1,1.2,0.3c0.9,0.4,1.5,0.9,1.8,1.5c0.2,0.6,0.1,1.2,0,1.4c-0.2,0.6-0.8,1.5-2.2,1.7C56.4,21.4,56.2,21.4,56.1,21.4z
			 M55.8,18.4c0,0.1,0,0.1,0,0.2v0.2L55.7,19c-0.1,0.2-0.1,0.3-0.1,0.4c0.1,0.1,0.3,0.2,0.6,0.2c0.6-0.1,0.8-0.4,0.8-0.5V19
			c0-0.1-0.2-0.3-0.7-0.5C56,18.4,55.9,18.4,55.8,18.4z"/>
	</g>
	<g>
		<path fill="#010101" d="M15.9,92.2c-3.3,0-4.6-0.3-5.1-0.8c-0.2-0.3-0.3-0.6-0.2-1c0.4-1.9-0.5-33-1.3-53.4l1.9-0.1
			c0.2,5,1.7,47,1.3,53.2c2.9,0.6,17.4-0.4,29.2-1.3c12.4-0.9,24.1-1.7,27.5-1.2c5.9,0.8,13.4,1.5,16.2,1.8
			c-0.1-2.8-0.4-10.8-0.6-14.6c-0.2-4.7,1.4-62.9,1.4-65.4L88,9.5c0,0.6-1.6,60.6-1.4,65.3c0.2,4.7,0.6,15.5,0.6,15.6v1l-1-0.1
			c-0.1,0-10-0.8-17.3-1.9c-3.2-0.4-15.3,0.4-27.1,1.3C28,91.7,20.3,92.2,15.9,92.2z"/>
	</g>
</g>
</svg>
