<?xml version="1.0" encoding="utf-8"?>
<!-- Generator: Adobe Illustrator 18.0.0, SVG Export Plug-In . SVG Version: 6.00 Build 0)  -->
<!DOCTYPE svg PUBLIC "-//W3C//DTD SVG 1.1//EN" "http://www.w3.org/Graphics/SVG/1.1/DTD/svg11.dtd">
<svg version="1.1" id="Layer_1" xmlns="http://www.w3.org/2000/svg" xmlns:xlink="http://www.w3.org/1999/xlink" x="0px" y="0px"
	 width="100px" height="100px" viewBox="0 0 100 100" enable-background="new 0 0 100 100" xml:space="preserve">
<g>
	<path fill="#202428" d="M54.9,1.3c-0.3,0.1-0.5,0.1-0.8,0.2c-2,0.4-4,0.7-5.9,1.3c-3.5,1.1-6,3.3-7.7,6.6c-1.5,3-2.2,6.2-2.3,9.4
		c-0.2,4.5-0.1,9-0.2,13.5c0,0.7-0.2,0.9-0.9,0.9c-3.5,0-7,0-10.4,0c-0.7,0-0.9,0.2-0.9,0.9c0,5,0,10.1,0,15.1c0,0.3,0,0.5,0,0.8
		c4.1,0,8.1,0,12.1,0c0,0.5,0,0.9,0,1.2c0,14.4,0,28.8,0,43.1c0,1.5,0,2.9,0,4.4"/>
	<path fill="#202428" d="M71.3,1.3c0,0.3,0,0.6,0,0.9c0,5,0,10,0,15c0,0.7-0.2,0.9-0.9,0.9c-2.7,0-5.4,0-8.2,0
		c-0.9,0-1.9,0.2-2.8,0.3c-1.7,0.3-3,1.7-3,3.7c-0.1,3.5-0.1,7.1-0.2,10.6c0,0.6,0.4,0.5,0.8,0.5c4.4,0,8.9,0,13.3,0
		c0.3,0,0.6,0,1,0c-0.6,5.7-1.2,11.2-1.8,16.8c-4.5,0-8.8,0-13.3,0c0,0.4,0,0.7,0,1c0,15.6,0,31.2,0,46.8c0,0.3,0,0.6,0,0.9
		c-6.1,0-12.1,0-18.2,0c0-1.5,0-2.9,0-4.4c0-14.4,0-28.8,0-43.1c0-0.4,0-0.8,0-1.2c-4.1,0-8.1,0-12.1,0c0-0.3,0-0.6,0-0.8
		c0-5,0-10.1,0-15.1c0-0.7,0.2-0.9,0.9-0.9c3.5,0,7,0,10.4,0c0.7,0,0.9-0.2,0.9-0.9c0-4.5,0-9,0.2-13.5c0.1-3.3,0.8-6.5,2.3-9.4
		c1.7-3.3,4.3-5.5,7.7-6.6c1.9-0.6,3.9-0.9,5.9-1.3c0.3-0.1,0.6-0.1,0.8-0.2C60.4,1.3,65.8,1.3,71.3,1.3z"/>
</g>
</svg>
