<?xml version="1.0" encoding="utf-8"?>
<!-- Generator: Adobe Illustrator 18.0.0, SVG Export Plug-In . SVG Version: 6.00 Build 0)  -->
<!DOCTYPE svg PUBLIC "-//W3C//DTD SVG 1.1//EN" "http://www.w3.org/Graphics/SVG/1.1/DTD/svg11.dtd">
<svg version="1.1" id="Layer_1" xmlns="http://www.w3.org/2000/svg" xmlns:xlink="http://www.w3.org/1999/xlink" x="0px" y="0px"
	 width="37px" height="37px" viewBox="-23.6 -10.6 37 37" enable-background="new -23.6 -10.6 37 37" xml:space="preserve">
<g>
	<path fill="#EF7E3F" d="M-10.6,24.9l20.9-1.3l1.3-19.9L1.7,4.5l-1,8.9l-4.3-3.9l-6.8,6.5L-10.6,24.9z M2.1,15.4l0.8-9.7l7.3-0.6
		L8.9,22.3l-18.1,1.3l0.1-6.8L2.1,15.4z"/>
	<g>
		
			<rect x="4.4" y="18.2" transform="matrix(-0.6866 -0.727 0.727 -0.6866 -5.1435 36.1716)" fill="#EF7E3F" width="1.6" height="2"/>
	</g>
	<g>
		<rect x="5.2" y="14.7" transform="matrix(-0.6866 -0.727 0.727 -0.6866 -1.3991 30.895)" fill="#EF7E3F" width="1.6" height="2"/>
	</g>
	<g>
		<rect x="5.4" y="11.1" transform="matrix(-0.6866 -0.727 0.727 -0.6866 1.6855 24.8817)" fill="#EF7E3F" width="1.6" height="2"/>
	</g>
	<g>
		<rect x="5.7" y="7.3" transform="matrix(-0.6866 -0.727 0.727 -0.6866 4.8796 18.6329)" fill="#EF7E3F" width="1.6" height="2"/>
	</g>
	<g>
		
			<rect x="0.6" y="18.4" transform="matrix(-0.6866 -0.727 0.727 -0.6866 -11.721 33.6839)" fill="#EF7E3F" width="1.6" height="2"/>
	</g>
	<g>
		
			<rect x="-3.2" y="18.9" transform="matrix(-0.6866 -0.727 0.727 -0.6866 -18.4548 31.8398)" fill="#EF7E3F" width="1.6" height="2"/>
	</g>
	<g>
		
			<rect x="-6.9" y="18.7" transform="matrix(-0.6866 -0.727 0.727 -0.6866 -24.6406 28.8183)" fill="#EF7E3F" width="1.6" height="2"/>
	</g>
</g>
<g>
	<path fill="#EF7E3F" d="M0.1-9.2l-20.9,1.7l-0.9,19.9l9.9-1l0.8-8.9l4.4,3.8l6.7-6.6L0.1-9.2z M-12.4,0.5l-0.6,9.7l-7.3,0.7
		l0.9-17.2l18.1-1.7l0.1,6.8L-12.4,0.5z"/>
	<g>
		
			<rect x="-16.4" y="-4.2" transform="matrix(0.7003 0.7139 -0.7139 0.7003 -6.9286 10.1778)" fill="#EF7E3F" width="1.6" height="2"/>
	</g>
	<g>
		
			<rect x="-17.1" y="-0.7" transform="matrix(0.7003 0.7139 -0.7139 0.7003 -4.6603 11.6925)" fill="#EF7E3F" width="1.6" height="2"/>
	</g>
	<g>
		<rect x="-17.2" y="3" transform="matrix(0.7003 0.7139 -0.7139 0.7003 -2.0895 12.9203)" fill="#EF7E3F" width="1.6" height="2"/>
	</g>
	<g>
		
			<rect x="-17.4" y="6.8" transform="matrix(0.7003 0.7139 -0.7139 0.7003 0.5819 14.1915)" fill="#EF7E3F" width="1.6" height="2"/>
	</g>
	<g>
		
			<rect x="-12.6" y="-4.4" transform="matrix(0.7003 0.7139 -0.7139 0.7003 -5.959 7.3763)" fill="#EF7E3F" width="1.6" height="2"/>
	</g>
	<g>
		<rect x="-8.8" y="-5" transform="matrix(0.7003 0.7139 -0.7139 0.7003 -5.2625 4.5168)" fill="#EF7E3F" width="1.6" height="2"/>
	</g>
	<g>
		<rect x="-5.1" y="-4.9" transform="matrix(0.7003 0.7139 -0.7139 0.7003 -4.0632 1.874)" fill="#EF7E3F" width="1.6" height="2"/>
	</g>
</g>
</svg>
