<?xml version="1.0" encoding="utf-8"?>
<!-- Generator: Adobe Illustrator 18.0.0, SVG Export Plug-In . SVG Version: 6.00 Build 0)  -->
<!DOCTYPE svg PUBLIC "-//W3C//DTD SVG 1.1//EN" "http://www.w3.org/Graphics/SVG/1.1/DTD/svg11.dtd">
<svg version="1.1" id="Layer_1" xmlns="http://www.w3.org/2000/svg" xmlns:xlink="http://www.w3.org/1999/xlink" x="0px" y="0px"
	 width="1507px" height="60.3px" viewBox="0 0 1507 60.3" enable-background="new 0 0 1507 60.3" xml:space="preserve">
<g id="Layer_4" display="none">
	<polyline display="inline" fill="none" stroke="#000000" stroke-width="2" stroke-miterlimit="10" points="616,23.5 616.3,28.4 
		641.6,28.2 641.4,23.5 	"/>
	
		<line display="inline" fill="none" stroke="#000000" stroke-width="2" stroke-miterlimit="10" x1="619.9" y1="23.5" x2="619.9" y2="28"/>
	
		<line display="inline" fill="none" stroke="#000000" stroke-width="2" stroke-miterlimit="10" x1="622.8" y1="23.7" x2="623.4" y2="28.3"/>
	
		<line display="inline" fill="none" stroke="#000000" stroke-width="2" stroke-miterlimit="10" x1="627.5" y1="23.5" x2="627.3" y2="28.1"/>
	
		<line display="inline" fill="none" stroke="#000000" stroke-width="2" stroke-miterlimit="10" x1="630.5" y1="23.5" x2="630.5" y2="27.7"/>
	
		<line display="inline" fill="none" stroke="#000000" stroke-width="2" stroke-miterlimit="10" x1="633.7" y1="23.5" x2="633.9" y2="28.1"/>
	
		<line display="inline" fill="none" stroke="#000000" stroke-width="2" stroke-miterlimit="10" x1="637.2" y1="23.5" x2="637.1" y2="28.6"/>
	<polyline display="inline" fill="none" stroke="#000000" stroke-width="2" stroke-miterlimit="10" points="616,41.4 616,36.7 
		641.2,36.3 641.3,41.4 	"/>
	
		<line display="inline" fill="none" stroke="#000000" stroke-width="2" stroke-miterlimit="10" x1="637.1" y1="36.4" x2="637.2" y2="41.4"/>
	
		<line display="inline" fill="none" stroke="#000000" stroke-width="2" stroke-miterlimit="10" x1="633.6" y1="36.7" x2="633.6" y2="41.1"/>
	
		<line display="inline" fill="none" stroke="#000000" stroke-width="2" stroke-miterlimit="10" x1="630.1" y1="36.6" x2="630.1" y2="41.7"/>
	
		<line display="inline" fill="none" stroke="#000000" stroke-width="2" stroke-miterlimit="10" x1="626.2" y1="36.4" x2="626.4" y2="41.2"/>
	
		<line display="inline" fill="none" stroke="#000000" stroke-width="2" stroke-miterlimit="10" x1="623" y1="36.6" x2="623" y2="41.4"/>
	
		<line display="inline" fill="none" stroke="#000000" stroke-width="2" stroke-miterlimit="10" x1="619.9" y1="36.4" x2="619.9" y2="41.4"/>
	<circle display="inline" cx="621.4" cy="31" r="1.3"/>
	<ellipse display="inline" cx="618.1" cy="33.7" rx="1.3" ry="1.2"/>
	<ellipse display="inline" cx="624.5" cy="33.8" rx="1.3" ry="1.3"/>
	<ellipse display="inline" cx="628.1" cy="31" rx="1.2" ry="1.2"/>
	<ellipse display="inline" cx="631.6" cy="33.8" rx="1.2" ry="1.3"/>
	<ellipse display="inline" cx="635.2" cy="31.2" rx="1.3" ry="1"/>
	<ellipse display="inline" cx="637.5" cy="33.8" rx="1.2" ry="1.1"/>
	<ellipse display="inline" cx="640.6" cy="31.3" rx="1.3" ry="1.1"/>
	<polyline display="inline" fill="none" stroke="#000000" stroke-width="2" stroke-miterlimit="10" points="648.3,26 648.6,31.2 
		673.7,31.4 673.4,26.6 	"/>
	
		<line display="inline" fill="none" stroke="#000000" stroke-width="2" stroke-miterlimit="10" x1="669.5" y1="26.1" x2="669.5" y2="31.4"/>
	
		<line display="inline" fill="none" stroke="#000000" stroke-width="2" stroke-miterlimit="10" x1="666" y1="26.3" x2="665.8" y2="31"/>
	
		<line display="inline" fill="none" stroke="#000000" stroke-width="2" stroke-miterlimit="10" x1="662.1" y1="26.1" x2="662.3" y2="30.7"/>
	
		<line display="inline" fill="none" stroke="#000000" stroke-width="2" stroke-miterlimit="10" x1="659.2" y1="26.3" x2="659.2" y2="31"/>
	
		<line display="inline" fill="none" stroke="#000000" stroke-width="2" stroke-miterlimit="10" x1="655.3" y1="26.6" x2="655.3" y2="31.2"/>
	
		<line display="inline" fill="none" stroke="#000000" stroke-width="2" stroke-miterlimit="10" x1="651.9" y1="26.6" x2="651.9" y2="30.8"/>
	<polyline display="inline" fill="none" stroke="#000000" stroke-width="2" stroke-miterlimit="10" points="648.1,44.4 648.3,39.4 
		673.9,39.3 673.8,44.4 	"/>
	
		<line display="inline" fill="none" stroke="#000000" stroke-width="2" stroke-miterlimit="10" x1="669.1" y1="39.8" x2="669.4" y2="44"/>
	
		<line display="inline" fill="none" stroke="#000000" stroke-width="2" stroke-miterlimit="10" x1="665.6" y1="39.5" x2="665.8" y2="44"/>
	
		<line display="inline" fill="none" stroke="#000000" stroke-width="2" stroke-miterlimit="10" x1="662.4" y1="39.5" x2="662.3" y2="44.2"/>
	<path display="inline" fill="none" stroke="#000000" stroke-width="2" stroke-miterlimit="10" d="M659.2,40.1"/>
	
		<line display="inline" fill="none" stroke="#000000" stroke-width="2" stroke-miterlimit="10" x1="659.1" y1="44.2" x2="659.1" y2="39.7"/>
	
		<line display="inline" fill="none" stroke="#000000" stroke-width="2" stroke-miterlimit="10" x1="655.1" y1="44.2" x2="655" y2="39.5"/>
	
		<line display="inline" fill="none" stroke="#000000" stroke-width="2" stroke-miterlimit="10" x1="652.1" y1="44.1" x2="651.9" y2="39.3"/>
	<polyline display="inline" fill="none" stroke="#000000" stroke-width="2" stroke-miterlimit="10" points="680.4,25.1 680.8,30 
		706,29.8 705.8,25.1 	"/>
	
		<line display="inline" fill="none" stroke="#000000" stroke-width="2" stroke-miterlimit="10" x1="684.3" y1="25.1" x2="684.3" y2="29.6"/>
	
		<line display="inline" fill="none" stroke="#000000" stroke-width="2" stroke-miterlimit="10" x1="687.2" y1="25.4" x2="687.8" y2="29.9"/>
	
		<line display="inline" fill="none" stroke="#000000" stroke-width="2" stroke-miterlimit="10" x1="691.9" y1="25.1" x2="691.7" y2="29.8"/>
	
		<line display="inline" fill="none" stroke="#000000" stroke-width="2" stroke-miterlimit="10" x1="694.9" y1="25.1" x2="694.9" y2="29.4"/>
	
		<line display="inline" fill="none" stroke="#000000" stroke-width="2" stroke-miterlimit="10" x1="698.1" y1="25.1" x2="698.3" y2="29.8"/>
	
		<line display="inline" fill="none" stroke="#000000" stroke-width="2" stroke-miterlimit="10" x1="701.6" y1="25.1" x2="701.5" y2="30.2"/>
	<polyline display="inline" fill="none" stroke="#000000" stroke-width="2" stroke-miterlimit="10" points="680.4,43 680.4,38.3 
		705.6,38 705.7,43 	"/>
	
		<line display="inline" fill="none" stroke="#000000" stroke-width="2" stroke-miterlimit="10" x1="701.5" y1="38.1" x2="701.6" y2="43"/>
	
		<line display="inline" fill="none" stroke="#000000" stroke-width="2" stroke-miterlimit="10" x1="698" y1="38.4" x2="698.1" y2="42.8"/>
	
		<line display="inline" fill="none" stroke="#000000" stroke-width="2" stroke-miterlimit="10" x1="694.5" y1="38.2" x2="694.5" y2="43.3"/>
	
		<line display="inline" fill="none" stroke="#000000" stroke-width="2" stroke-miterlimit="10" x1="690.6" y1="38.1" x2="690.9" y2="42.9"/>
	
		<line display="inline" fill="none" stroke="#000000" stroke-width="2" stroke-miterlimit="10" x1="687.4" y1="38.2" x2="687.4" y2="43"/>
	
		<line display="inline" fill="none" stroke="#000000" stroke-width="2" stroke-miterlimit="10" x1="684.3" y1="38.1" x2="684.3" y2="43"/>
	<circle display="inline" cx="685.8" cy="32.7" r="1.3"/>
	<ellipse display="inline" cx="682.5" cy="35.4" rx="1.3" ry="1.2"/>
	<ellipse display="inline" cx="688.9" cy="35.5" rx="1.3" ry="1.3"/>
	<ellipse display="inline" cx="692.5" cy="32.6" rx="1.2" ry="1.2"/>
	<ellipse display="inline" cx="696.1" cy="35.5" rx="1.2" ry="1.3"/>
	<ellipse display="inline" cx="699.6" cy="32.8" rx="1.3" ry="1"/>
	<ellipse display="inline" cx="701.9" cy="35.5" rx="1.2" ry="1.1"/>
	<ellipse display="inline" cx="705" cy="33" rx="1.3" ry="1.1"/>
	<circle display="inline" cx="653.5" cy="33.7" r="1.4"/>
	<circle display="inline" cx="650.2" cy="37.1" r="1.3"/>
	<circle display="inline" cx="656.5" cy="36.9" r="1.2"/>
	<ellipse display="inline" cx="660" cy="34.3" rx="1.4" ry="1.3"/>
	<ellipse display="inline" cx="664" cy="36.6" rx="1.5" ry="1.3"/>
	<ellipse display="inline" cx="667.1" cy="34.2" rx="1.5" ry="1.2"/>
	<circle display="inline" cx="669.7" cy="36.9" r="1.2"/>
	<ellipse display="inline" cx="673" cy="34.4" rx="1.3" ry="1.2"/>
	<polyline display="inline" fill="none" stroke="#000000" stroke-width="2" stroke-miterlimit="10" points="712.9,25.6 713.2,30.9 
		738.3,31 738,26.2 	"/>
	
		<line display="inline" fill="none" stroke="#000000" stroke-width="2" stroke-miterlimit="10" x1="734.1" y1="25.8" x2="734.1" y2="31"/>
	
		<line display="inline" fill="none" stroke="#000000" stroke-width="2" stroke-miterlimit="10" x1="730.6" y1="25.9" x2="730.3" y2="30.6"/>
	
		<line display="inline" fill="none" stroke="#000000" stroke-width="2" stroke-miterlimit="10" x1="726.7" y1="25.8" x2="726.9" y2="30.3"/>
	
		<line display="inline" fill="none" stroke="#000000" stroke-width="2" stroke-miterlimit="10" x1="723.8" y1="25.9" x2="723.8" y2="30.6"/>
	
		<line display="inline" fill="none" stroke="#000000" stroke-width="2" stroke-miterlimit="10" x1="719.9" y1="26.2" x2="719.9" y2="30.9"/>
	
		<line display="inline" fill="none" stroke="#000000" stroke-width="2" stroke-miterlimit="10" x1="716.5" y1="26.2" x2="716.5" y2="30.4"/>
	<polyline display="inline" fill="none" stroke="#000000" stroke-width="2" stroke-miterlimit="10" points="712.7,44 712.9,39 
		738.5,38.9 738.4,44 	"/>
	
		<line display="inline" fill="none" stroke="#000000" stroke-width="2" stroke-miterlimit="10" x1="733.7" y1="39.5" x2="734" y2="43.6"/>
	
		<line display="inline" fill="none" stroke="#000000" stroke-width="2" stroke-miterlimit="10" x1="730.2" y1="39.2" x2="730.3" y2="43.6"/>
	
		<line display="inline" fill="none" stroke="#000000" stroke-width="2" stroke-miterlimit="10" x1="727" y1="39.2" x2="726.9" y2="43.8"/>
	<path display="inline" fill="none" stroke="#000000" stroke-width="2" stroke-miterlimit="10" d="M723.8,39.7"/>
	
		<line display="inline" fill="none" stroke="#000000" stroke-width="2" stroke-miterlimit="10" x1="723.6" y1="43.8" x2="723.6" y2="39.3"/>
	
		<line display="inline" fill="none" stroke="#000000" stroke-width="2" stroke-miterlimit="10" x1="719.7" y1="43.8" x2="719.6" y2="39.2"/>
	
		<line display="inline" fill="none" stroke="#000000" stroke-width="2" stroke-miterlimit="10" x1="716.7" y1="43.7" x2="716.5" y2="38.9"/>
	<polyline display="inline" fill="none" stroke="#000000" stroke-width="2" stroke-miterlimit="10" points="744,24.7 744.3,29.7 
		769.6,29.5 769.4,24.7 	"/>
	
		<line display="inline" fill="none" stroke="#000000" stroke-width="2" stroke-miterlimit="10" x1="747.9" y1="24.7" x2="747.9" y2="29.3"/>
	
		<line display="inline" fill="none" stroke="#000000" stroke-width="2" stroke-miterlimit="10" x1="750.8" y1="25" x2="751.4" y2="29.5"/>
	
		<line display="inline" fill="none" stroke="#000000" stroke-width="2" stroke-miterlimit="10" x1="755.5" y1="24.7" x2="755.3" y2="29.4"/>
	
		<line display="inline" fill="none" stroke="#000000" stroke-width="2" stroke-miterlimit="10" x1="758.5" y1="24.7" x2="758.5" y2="29"/>
	
		<line display="inline" fill="none" stroke="#000000" stroke-width="2" stroke-miterlimit="10" x1="761.7" y1="24.7" x2="761.9" y2="29.4"/>
	
		<line display="inline" fill="none" stroke="#000000" stroke-width="2" stroke-miterlimit="10" x1="765.2" y1="24.7" x2="765.1" y2="29.8"/>
	<polyline display="inline" fill="none" stroke="#000000" stroke-width="2" stroke-miterlimit="10" points="744,42.7 744,37.9 
		769.2,37.6 769.3,42.7 	"/>
	
		<line display="inline" fill="none" stroke="#000000" stroke-width="2" stroke-miterlimit="10" x1="765.1" y1="37.7" x2="765.2" y2="42.7"/>
	
		<line display="inline" fill="none" stroke="#000000" stroke-width="2" stroke-miterlimit="10" x1="761.6" y1="38" x2="761.6" y2="42.4"/>
	
		<line display="inline" fill="none" stroke="#000000" stroke-width="2" stroke-miterlimit="10" x1="758.1" y1="37.9" x2="758.1" y2="42.9"/>
	
		<line display="inline" fill="none" stroke="#000000" stroke-width="2" stroke-miterlimit="10" x1="754.1" y1="37.7" x2="754.4" y2="42.5"/>
	
		<line display="inline" fill="none" stroke="#000000" stroke-width="2" stroke-miterlimit="10" x1="750.9" y1="37.9" x2="750.9" y2="42.7"/>
	
		<line display="inline" fill="none" stroke="#000000" stroke-width="2" stroke-miterlimit="10" x1="747.9" y1="37.7" x2="747.9" y2="42.7"/>
	<circle display="inline" cx="749.3" cy="32.3" r="1.3"/>
	<ellipse display="inline" cx="746" cy="35" rx="1.3" ry="1.2"/>
	<ellipse display="inline" cx="752.5" cy="35.1" rx="1.3" ry="1.3"/>
	<ellipse display="inline" cx="756" cy="32.2" rx="1.2" ry="1.2"/>
	<ellipse display="inline" cx="759.6" cy="35.1" rx="1.2" ry="1.3"/>
	<ellipse display="inline" cx="763.2" cy="32.5" rx="1.3" ry="1"/>
	<ellipse display="inline" cx="765.5" cy="35.1" rx="1.2" ry="1.1"/>
	<ellipse display="inline" cx="768.6" cy="32.6" rx="1.3" ry="1.1"/>
	<circle display="inline" cx="718.1" cy="33.3" r="1.4"/>
	<circle display="inline" cx="714.8" cy="36.7" r="1.3"/>
	<circle display="inline" cx="721.1" cy="36.5" r="1.2"/>
	<ellipse display="inline" cx="724.6" cy="33.9" rx="1.4" ry="1.3"/>
	<ellipse display="inline" cx="728.6" cy="36.2" rx="1.5" ry="1.3"/>
	<ellipse display="inline" cx="731.7" cy="33.8" rx="1.5" ry="1.2"/>
	<circle display="inline" cx="734.3" cy="36.5" r="1.2"/>
	<ellipse display="inline" cx="737.6" cy="34" rx="1.3" ry="1.2"/>
	<polyline display="inline" fill="none" stroke="#000000" stroke-width="2" stroke-miterlimit="10" points="776.3,25.2 776.6,30.5 
		801.7,30.6 801.4,25.8 	"/>
	
		<line display="inline" fill="none" stroke="#000000" stroke-width="2" stroke-miterlimit="10" x1="797.5" y1="25.4" x2="797.5" y2="30.6"/>
	
		<line display="inline" fill="none" stroke="#000000" stroke-width="2" stroke-miterlimit="10" x1="794" y1="25.5" x2="793.7" y2="30.2"/>
	
		<line display="inline" fill="none" stroke="#000000" stroke-width="2" stroke-miterlimit="10" x1="790.1" y1="25.4" x2="790.2" y2="29.9"/>
	
		<line display="inline" fill="none" stroke="#000000" stroke-width="2" stroke-miterlimit="10" x1="787.2" y1="25.5" x2="787.2" y2="30.2"/>
	
		<line display="inline" fill="none" stroke="#000000" stroke-width="2" stroke-miterlimit="10" x1="783.3" y1="25.8" x2="783.3" y2="30.5"/>
	
		<line display="inline" fill="none" stroke="#000000" stroke-width="2" stroke-miterlimit="10" x1="779.9" y1="25.8" x2="779.9" y2="30"/>
	<polyline display="inline" fill="none" stroke="#000000" stroke-width="2" stroke-miterlimit="10" points="776.1,43.6 776.3,38.6 
		801.9,38.5 801.8,43.6 	"/>
	
		<line display="inline" fill="none" stroke="#000000" stroke-width="2" stroke-miterlimit="10" x1="797.1" y1="39.1" x2="797.4" y2="43.2"/>
	
		<line display="inline" fill="none" stroke="#000000" stroke-width="2" stroke-miterlimit="10" x1="793.6" y1="38.8" x2="793.7" y2="43.2"/>
	
		<line display="inline" fill="none" stroke="#000000" stroke-width="2" stroke-miterlimit="10" x1="790.4" y1="38.8" x2="790.2" y2="43.4"/>
	<path display="inline" fill="none" stroke="#000000" stroke-width="2" stroke-miterlimit="10" d="M787.2,39.4"/>
	
		<line display="inline" fill="none" stroke="#000000" stroke-width="2" stroke-miterlimit="10" x1="787" y1="43.4" x2="787" y2="38.9"/>
	
		<line display="inline" fill="none" stroke="#000000" stroke-width="2" stroke-miterlimit="10" x1="783.1" y1="43.4" x2="783" y2="38.8"/>
	
		<line display="inline" fill="none" stroke="#000000" stroke-width="2" stroke-miterlimit="10" x1="780.1" y1="43.3" x2="779.9" y2="38.5"/>
	<polyline display="inline" fill="none" stroke="#000000" stroke-width="2" stroke-miterlimit="10" points="808.4,24.4 808.8,29.3 
		834,29.1 833.8,24.4 	"/>
	
		<line display="inline" fill="none" stroke="#000000" stroke-width="2" stroke-miterlimit="10" x1="812.3" y1="24.4" x2="812.3" y2="28.9"/>
	
		<line display="inline" fill="none" stroke="#000000" stroke-width="2" stroke-miterlimit="10" x1="815.2" y1="24.6" x2="815.8" y2="29.2"/>
	
		<line display="inline" fill="none" stroke="#000000" stroke-width="2" stroke-miterlimit="10" x1="819.9" y1="24.4" x2="819.7" y2="29"/>
	
		<line display="inline" fill="none" stroke="#000000" stroke-width="2" stroke-miterlimit="10" x1="822.9" y1="24.4" x2="822.9" y2="28.6"/>
	
		<line display="inline" fill="none" stroke="#000000" stroke-width="2" stroke-miterlimit="10" x1="826.1" y1="24.4" x2="826.3" y2="29"/>
	
		<line display="inline" fill="none" stroke="#000000" stroke-width="2" stroke-miterlimit="10" x1="829.6" y1="24.4" x2="829.5" y2="29.5"/>
	<polyline display="inline" fill="none" stroke="#000000" stroke-width="2" stroke-miterlimit="10" points="808.4,42.3 808.4,37.5 
		833.6,37.2 833.7,42.3 	"/>
	
		<line display="inline" fill="none" stroke="#000000" stroke-width="2" stroke-miterlimit="10" x1="829.5" y1="37.3" x2="829.6" y2="42.3"/>
	
		<line display="inline" fill="none" stroke="#000000" stroke-width="2" stroke-miterlimit="10" x1="826" y1="37.6" x2="826.1" y2="42"/>
	
		<line display="inline" fill="none" stroke="#000000" stroke-width="2" stroke-miterlimit="10" x1="822.5" y1="37.5" x2="822.5" y2="42.6"/>
	
		<line display="inline" fill="none" stroke="#000000" stroke-width="2" stroke-miterlimit="10" x1="818.6" y1="37.3" x2="818.9" y2="42.1"/>
	
		<line display="inline" fill="none" stroke="#000000" stroke-width="2" stroke-miterlimit="10" x1="815.4" y1="37.5" x2="815.4" y2="42.3"/>
	
		<line display="inline" fill="none" stroke="#000000" stroke-width="2" stroke-miterlimit="10" x1="812.3" y1="37.3" x2="812.3" y2="42.3"/>
	<circle display="inline" cx="813.8" cy="31.9" r="1.3"/>
	<ellipse display="inline" cx="810.5" cy="34.6" rx="1.3" ry="1.2"/>
	<ellipse display="inline" cx="816.9" cy="34.7" rx="1.3" ry="1.3"/>
	<ellipse display="inline" cx="820.5" cy="31.9" rx="1.2" ry="1.2"/>
	<ellipse display="inline" cx="824" cy="34.7" rx="1.2" ry="1.3"/>
	<ellipse display="inline" cx="827.6" cy="32.1" rx="1.3" ry="1"/>
	<ellipse display="inline" cx="829.9" cy="34.7" rx="1.2" ry="1.1"/>
	<ellipse display="inline" cx="833" cy="32.2" rx="1.3" ry="1.1"/>
	<polyline display="inline" fill="none" stroke="#000000" stroke-width="2" stroke-miterlimit="10" points="840.1,26.3 840.5,31.2 
		865.7,31 865.5,26.3 	"/>
	
		<line display="inline" fill="none" stroke="#000000" stroke-width="2" stroke-miterlimit="10" x1="844" y1="26.3" x2="844" y2="30.8"/>
	
		<line display="inline" fill="none" stroke="#000000" stroke-width="2" stroke-miterlimit="10" x1="846.9" y1="26.6" x2="847.5" y2="31.1"/>
	
		<line display="inline" fill="none" stroke="#000000" stroke-width="2" stroke-miterlimit="10" x1="851.6" y1="26.3" x2="851.5" y2="31"/>
	
		<line display="inline" fill="none" stroke="#000000" stroke-width="2" stroke-miterlimit="10" x1="854.7" y1="26.3" x2="854.7" y2="30.5"/>
	
		<line display="inline" fill="none" stroke="#000000" stroke-width="2" stroke-miterlimit="10" x1="857.9" y1="26.3" x2="858" y2="31"/>
	
		<line display="inline" fill="none" stroke="#000000" stroke-width="2" stroke-miterlimit="10" x1="861.4" y1="26.3" x2="861.2" y2="31.4"/>
	<polyline display="inline" fill="none" stroke="#000000" stroke-width="2" stroke-miterlimit="10" points="840.1,44.2 840.1,39.5 
		865.4,39.2 865.4,44.2 	"/>
	
		<line display="inline" fill="none" stroke="#000000" stroke-width="2" stroke-miterlimit="10" x1="861.2" y1="39.3" x2="861.4" y2="44.2"/>
	
		<line display="inline" fill="none" stroke="#000000" stroke-width="2" stroke-miterlimit="10" x1="857.7" y1="39.5" x2="857.8" y2="43.9"/>
	
		<line display="inline" fill="none" stroke="#000000" stroke-width="2" stroke-miterlimit="10" x1="854.2" y1="39.4" x2="854.2" y2="44.5"/>
	
		<line display="inline" fill="none" stroke="#000000" stroke-width="2" stroke-miterlimit="10" x1="850.3" y1="39.3" x2="850.6" y2="44.1"/>
	
		<line display="inline" fill="none" stroke="#000000" stroke-width="2" stroke-miterlimit="10" x1="847.1" y1="39.4" x2="847.1" y2="44.2"/>
	
		<line display="inline" fill="none" stroke="#000000" stroke-width="2" stroke-miterlimit="10" x1="844" y1="39.3" x2="844" y2="44.2"/>
	<circle display="inline" cx="845.5" cy="33.9" r="1.3"/>
	<ellipse display="inline" cx="842.2" cy="36.6" rx="1.3" ry="1.2"/>
	<ellipse display="inline" cx="848.6" cy="36.6" rx="1.3" ry="1.3"/>
	<ellipse display="inline" cx="852.2" cy="33.8" rx="1.2" ry="1.2"/>
	<ellipse display="inline" cx="855.8" cy="36.6" rx="1.2" ry="1.3"/>
	<ellipse display="inline" cx="859.3" cy="34" rx="1.3" ry="1"/>
	<ellipse display="inline" cx="861.6" cy="36.6" rx="1.2" ry="1.1"/>
	<ellipse display="inline" cx="864.7" cy="34.1" rx="1.3" ry="1.1"/>
	<polyline display="inline" fill="none" stroke="#000000" stroke-width="2" stroke-miterlimit="10" points="871.8,24.1 872.2,29 
		897.5,28.8 897.3,24.1 	"/>
	
		<line display="inline" fill="none" stroke="#000000" stroke-width="2" stroke-miterlimit="10" x1="875.8" y1="24.1" x2="875.8" y2="28.6"/>
	
		<line display="inline" fill="none" stroke="#000000" stroke-width="2" stroke-miterlimit="10" x1="878.7" y1="24.4" x2="879.3" y2="28.9"/>
	
		<line display="inline" fill="none" stroke="#000000" stroke-width="2" stroke-miterlimit="10" x1="883.3" y1="24.1" x2="883.2" y2="28.8"/>
	
		<line display="inline" fill="none" stroke="#000000" stroke-width="2" stroke-miterlimit="10" x1="886.4" y1="24.1" x2="886.4" y2="28.3"/>
	
		<line display="inline" fill="none" stroke="#000000" stroke-width="2" stroke-miterlimit="10" x1="889.6" y1="24.1" x2="889.8" y2="28.8"/>
	
		<line display="inline" fill="none" stroke="#000000" stroke-width="2" stroke-miterlimit="10" x1="893.1" y1="24.1" x2="893" y2="29.2"/>
	<polyline display="inline" fill="none" stroke="#000000" stroke-width="2" stroke-miterlimit="10" points="871.8,42 871.8,37.3 
		897.1,37 897.2,42 	"/>
	
		<line display="inline" fill="none" stroke="#000000" stroke-width="2" stroke-miterlimit="10" x1="893" y1="37.1" x2="893.1" y2="42"/>
	
		<line display="inline" fill="none" stroke="#000000" stroke-width="2" stroke-miterlimit="10" x1="889.5" y1="37.3" x2="889.5" y2="41.7"/>
	
		<line display="inline" fill="none" stroke="#000000" stroke-width="2" stroke-miterlimit="10" x1="886" y1="37.2" x2="886" y2="42.3"/>
	
		<line display="inline" fill="none" stroke="#000000" stroke-width="2" stroke-miterlimit="10" x1="882" y1="37.1" x2="882.3" y2="41.9"/>
	
		<line display="inline" fill="none" stroke="#000000" stroke-width="2" stroke-miterlimit="10" x1="878.8" y1="37.2" x2="878.8" y2="42"/>
	
		<line display="inline" fill="none" stroke="#000000" stroke-width="2" stroke-miterlimit="10" x1="875.8" y1="37.1" x2="875.8" y2="42"/>
	<circle display="inline" cx="877.2" cy="31.7" r="1.3"/>
	<ellipse display="inline" cx="873.9" cy="34.4" rx="1.3" ry="1.2"/>
	<ellipse display="inline" cx="880.4" cy="34.4" rx="1.3" ry="1.3"/>
	<ellipse display="inline" cx="883.9" cy="31.6" rx="1.2" ry="1.2"/>
	<ellipse display="inline" cx="887.5" cy="34.4" rx="1.2" ry="1.3"/>
	<ellipse display="inline" cx="891.1" cy="31.8" rx="1.3" ry="1"/>
	<ellipse display="inline" cx="893.4" cy="34.4" rx="1.2" ry="1.1"/>
	<ellipse display="inline" cx="896.5" cy="31.9" rx="1.3" ry="1.1"/>
	<circle display="inline" cx="781.5" cy="32.9" r="1.4"/>
	<circle display="inline" cx="778.2" cy="36.3" r="1.3"/>
	<circle display="inline" cx="784.5" cy="36.1" r="1.2"/>
	<ellipse display="inline" cx="788" cy="33.5" rx="1.4" ry="1.3"/>
	<ellipse display="inline" cx="792" cy="35.9" rx="1.5" ry="1.3"/>
	<ellipse display="inline" cx="795.1" cy="33.5" rx="1.5" ry="1.2"/>
	<circle display="inline" cx="797.7" cy="36.2" r="1.2"/>
	<ellipse display="inline" cx="801" cy="33.6" rx="1.3" ry="1.2"/>
</g>
<g id="Layer_3">
	<text transform="matrix(1 0 0 1 660.2019 43.6845)" font-family="'BlissPro-Bold'" font-size="28" letter-spacing="1">PAST EVENTS</text>
</g>
<g>
	<g>
		<polygon points="589.4,24.4 584.2,27.8 588.9,31.5 594,28.2 		"/>
		<path d="M589.6,34.6l8.6-6.3l-8.8-6.9l-9.8,6.5l9,6.9l0.3,7.4l-3.7,3l7.9,0l-3.2-3L589.6,34.6z M589.4,22.6l7.2,5.6l-7.6,5.6
			l-7.6-5.8L589.4,22.6z"/>
	</g>
	<g>
		<polygon points="613.4,25.4 608.2,28.8 612.9,32.5 618,29.2 		"/>
		<path d="M613.6,35.6l8.6-6.3l-8.8-6.9l-9.8,6.5l9,6.9l0.3,7.4l-3.7,3l7.9,0l-3.2-3L613.6,35.6z M613.4,23.6l7.2,5.6l-7.6,5.6
			l-7.6-5.8L613.4,23.6z"/>
	</g>
	<g>
		<polygon points="636.4,25.4 631.2,28.8 635.9,32.5 641,29.2 		"/>
		<path d="M636.6,35.6l8.6-6.3l-8.8-6.9l-9.8,6.5l9,6.9l0.3,7.4l-3.7,3l7.9,0l-3.2-3L636.6,35.6z M636.4,23.6l7.2,5.6l-7.6,5.6
			l-7.6-5.8L636.4,23.6z"/>
	</g>
	<g>
		<polygon points="624.4,43.3 629.6,40 624.9,36.2 619.8,39.5 		"/>
		<path d="M624.2,33.2l-8.6,6.3l8.8,6.9l9.8-6.5l-9-6.9l-0.3-7.4l3.7-3l-7.9,0l3.2,3L624.2,33.2z M624.5,45.1l-7.2-5.6l7.6-5.6
			l7.6,5.8L624.5,45.1z"/>
	</g>
	<g>
		<polygon points="601.4,43.3 606.6,40 601.9,36.2 596.8,39.5 		"/>
		<path d="M601.2,33.2l-8.6,6.3l8.8,6.9l9.8-6.5l-9-6.9l-0.3-7.4l3.7-3l-7.9,0l3.2,3L601.2,33.2z M601.5,45.1l-7.2-5.6l7.6-5.6
			l7.6,5.8L601.5,45.1z"/>
	</g>
	<g>
		<polygon points="577.4,43.3 582.6,40 577.9,36.2 572.8,39.5 		"/>
		<path d="M577.2,33.2l-8.6,6.3l8.8,6.9l9.8-6.5l-9-6.9l-0.3-7.4l3.7-3l-7.9,0l3.2,3L577.2,33.2z M577.5,45.1l-7.2-5.6l7.6-5.6
			l7.6,5.8L577.5,45.1z"/>
	</g>
	<g>
		<polygon points="518.4,24.4 513.2,27.8 517.9,31.5 523,28.2 		"/>
		<path d="M518.6,34.6l8.6-6.3l-8.8-6.9l-9.8,6.5l9,6.9l0.3,7.4l-3.7,3l7.9,0l-3.2-3L518.6,34.6z M518.4,22.6l7.2,5.6l-7.6,5.6
			l-7.6-5.8L518.4,22.6z"/>
	</g>
	<g>
		<polygon points="542.4,25.4 537.2,28.8 541.9,32.5 547,29.2 		"/>
		<path d="M542.6,35.6l8.6-6.3l-8.8-6.9l-9.8,6.5l9,6.9l0.3,7.4l-3.7,3l7.9,0l-3.2-3L542.6,35.6z M542.4,23.6l7.2,5.6l-7.6,5.6
			l-7.6-5.8L542.4,23.6z"/>
	</g>
	<g>
		<polygon points="565.4,25.4 560.2,28.8 564.9,32.5 570,29.2 		"/>
		<path d="M565.6,35.6l8.6-6.3l-8.8-6.9l-9.8,6.5l9,6.9l0.3,7.4l-3.7,3l7.9,0l-3.2-3L565.6,35.6z M565.4,23.6l7.2,5.6l-7.6,5.6
			l-7.6-5.8L565.4,23.6z"/>
	</g>
	<g>
		<polygon points="553.4,43.3 558.6,40 553.9,36.2 548.8,39.5 		"/>
		<path d="M553.2,33.2l-8.6,6.3l8.8,6.9l9.8-6.5l-9-6.9l-0.3-7.4l3.7-3l-7.9,0l3.2,3L553.2,33.2z M553.5,45.1l-7.2-5.6l7.6-5.6
			l7.6,5.8L553.5,45.1z"/>
	</g>
	<g>
		<polygon points="530.4,43.3 535.6,40 530.9,36.2 525.8,39.5 		"/>
		<path d="M530.2,33.2l-8.6,6.3l8.8,6.9l9.8-6.5l-9-6.9l-0.3-7.4l3.7-3l-7.9,0l3.2,3L530.2,33.2z M530.5,45.1l-7.2-5.6l7.6-5.6
			l7.6,5.8L530.5,45.1z"/>
	</g>
	<g>
		<polygon points="506.4,43.3 511.6,40 506.9,36.2 501.8,39.5 		"/>
		<path d="M506.2,33.2l-8.6,6.3l8.8,6.9l9.8-6.5l-9-6.9l-0.3-7.4l3.7-3l-7.9,0l3.2,3L506.2,33.2z M506.5,45.1l-7.2-5.6l7.6-5.6
			l7.6,5.8L506.5,45.1z"/>
	</g>
	<g>
		<polygon points="446.4,24.4 441.2,27.8 445.9,31.5 451,28.2 		"/>
		<path d="M446.6,34.6l8.6-6.3l-8.8-6.9l-9.8,6.5l9,6.9l0.3,7.4l-3.7,3l7.9,0l-3.2-3L446.6,34.6z M446.4,22.6l7.2,5.6l-7.6,5.6
			l-7.6-5.8L446.4,22.6z"/>
	</g>
	<g>
		<polygon points="470.4,25.4 465.2,28.8 469.9,32.5 475,29.2 		"/>
		<path d="M470.6,35.6l8.6-6.3l-8.8-6.9l-9.8,6.5l9,6.9l0.3,7.4l-3.7,3l7.9,0l-3.2-3L470.6,35.6z M470.4,23.6l7.2,5.6l-7.6,5.6
			l-7.6-5.8L470.4,23.6z"/>
	</g>
	<g>
		<polygon points="493.4,25.4 488.2,28.8 492.9,32.5 498,29.2 		"/>
		<path d="M493.6,35.6l8.6-6.3l-8.8-6.9l-9.8,6.5l9,6.9l0.3,7.4l-3.7,3l7.9,0l-3.2-3L493.6,35.6z M493.4,23.6l7.2,5.6l-7.6,5.6
			l-7.6-5.8L493.4,23.6z"/>
	</g>
	<g>
		<polygon points="481.4,43.3 486.6,40 481.9,36.2 476.8,39.5 		"/>
		<path d="M481.2,33.2l-8.6,6.3l8.8,6.9l9.8-6.5l-9-6.9l-0.3-7.4l3.7-3l-7.9,0l3.2,3L481.2,33.2z M481.5,45.1l-7.2-5.6l7.6-5.6
			l7.6,5.8L481.5,45.1z"/>
	</g>
	<g>
		<polygon points="458.4,43.3 463.6,40 458.9,36.2 453.8,39.5 		"/>
		<path d="M458.2,33.2l-8.6,6.3l8.8,6.9l9.8-6.5l-9-6.9l-0.3-7.4l3.7-3l-7.9,0l3.2,3L458.2,33.2z M458.5,45.1l-7.2-5.6l7.6-5.6
			l7.6,5.8L458.5,45.1z"/>
	</g>
	<g>
		<polygon points="434.4,43.3 439.6,40 434.9,36.2 429.8,39.5 		"/>
		<path d="M434.2,33.2l-8.6,6.3l8.8,6.9l9.8-6.5l-9-6.9l-0.3-7.4l3.7-3l-7.9,0l3.2,3L434.2,33.2z M434.5,45.1l-7.2-5.6l7.6-5.6
			l7.6,5.8L434.5,45.1z"/>
	</g>
	<g>
		<polygon points="375.4,24.4 370.2,27.8 374.9,31.5 380,28.2 		"/>
		<path d="M375.6,34.6l8.6-6.3l-8.8-6.9l-9.8,6.5l9,6.9l0.3,7.4l-3.7,3l7.9,0l-3.2-3L375.6,34.6z M375.4,22.6l7.2,5.6l-7.6,5.6
			l-7.6-5.8L375.4,22.6z"/>
	</g>
	<g>
		<polygon points="399.4,25.4 394.2,28.8 398.9,32.5 404,29.2 		"/>
		<path d="M399.6,35.6l8.6-6.3l-8.8-6.9l-9.8,6.5l9,6.9l0.3,7.4l-3.7,3l7.9,0l-3.2-3L399.6,35.6z M399.4,23.6l7.2,5.6l-7.6,5.6
			l-7.6-5.8L399.4,23.6z"/>
	</g>
	<g>
		<polygon points="422.4,25.4 417.2,28.8 421.9,32.5 427,29.2 		"/>
		<path d="M422.6,35.6l8.6-6.3l-8.8-6.9l-9.8,6.5l9,6.9l0.3,7.4l-3.7,3l7.9,0l-3.2-3L422.6,35.6z M422.4,23.6l7.2,5.6l-7.6,5.6
			l-7.6-5.8L422.4,23.6z"/>
	</g>
	<g>
		<polygon points="410.4,43.3 415.6,40 410.9,36.2 405.8,39.5 		"/>
		<path d="M410.2,33.2l-8.6,6.3l8.8,6.9l9.8-6.5l-9-6.9l-0.3-7.4l3.7-3l-7.9,0l3.2,3L410.2,33.2z M410.5,45.1l-7.2-5.6l7.6-5.6
			l7.6,5.8L410.5,45.1z"/>
	</g>
	<g>
		<polygon points="387.4,43.3 392.6,40 387.9,36.2 382.8,39.5 		"/>
		<path d="M387.2,33.2l-8.6,6.3l8.8,6.9l9.8-6.5l-9-6.9l-0.3-7.4l3.7-3l-7.9,0l3.2,3L387.2,33.2z M387.5,45.1l-7.2-5.6l7.6-5.6
			l7.6,5.8L387.5,45.1z"/>
	</g>
	<g>
		<polygon points="363.4,43.3 368.6,40 363.9,36.2 358.8,39.5 		"/>
		<path d="M363.2,33.2l-8.6,6.3l8.8,6.9l9.8-6.5l-9-6.9l-0.3-7.4l3.7-3l-7.9,0l3.2,3L363.2,33.2z M363.5,45.1l-7.2-5.6l7.6-5.6
			l7.6,5.8L363.5,45.1z"/>
	</g>
	<g>
		<polygon points="303.4,24.4 298.2,27.8 302.9,31.5 308,28.2 		"/>
		<path d="M303.6,34.6l8.6-6.3l-8.8-6.9l-9.8,6.5l9,6.9l0.3,7.4l-3.7,3l7.9,0l-3.2-3L303.6,34.6z M303.4,22.6l7.2,5.6l-7.6,5.6
			l-7.6-5.8L303.4,22.6z"/>
	</g>
	<g>
		<polygon points="327.4,25.4 322.2,28.8 326.9,32.5 332,29.2 		"/>
		<path d="M327.6,35.6l8.6-6.3l-8.8-6.9l-9.8,6.5l9,6.9l0.3,7.4l-3.7,3l7.9,0l-3.2-3L327.6,35.6z M327.4,23.6l7.2,5.6l-7.6,5.6
			l-7.6-5.8L327.4,23.6z"/>
	</g>
	<g>
		<polygon points="350.4,25.4 345.2,28.8 349.9,32.5 355,29.2 		"/>
		<path d="M350.6,35.6l8.6-6.3l-8.8-6.9l-9.8,6.5l9,6.9l0.3,7.4l-3.7,3l7.9,0l-3.2-3L350.6,35.6z M350.4,23.6l7.2,5.6l-7.6,5.6
			l-7.6-5.8L350.4,23.6z"/>
	</g>
	<g>
		<polygon points="338.4,43.3 343.6,40 338.9,36.2 333.8,39.5 		"/>
		<path d="M338.2,33.2l-8.6,6.3l8.8,6.9l9.8-6.5l-9-6.9l-0.3-7.4l3.7-3l-7.9,0l3.2,3L338.2,33.2z M338.5,45.1l-7.2-5.6l7.6-5.6
			l7.6,5.8L338.5,45.1z"/>
	</g>
	<g>
		<polygon points="315.4,43.3 320.6,40 315.9,36.2 310.8,39.5 		"/>
		<path d="M315.2,33.2l-8.6,6.3l8.8,6.9l9.8-6.5l-9-6.9l-0.3-7.4l3.7-3l-7.9,0l3.2,3L315.2,33.2z M315.5,45.1l-7.2-5.6l7.6-5.6
			l7.6,5.8L315.5,45.1z"/>
	</g>
	<g>
		<polygon points="291.4,43.3 296.6,40 291.9,36.2 286.8,39.5 		"/>
		<path d="M291.2,33.2l-8.6,6.3l8.8,6.9l9.8-6.5l-9-6.9l-0.3-7.4l3.7-3l-7.9,0l3.2,3L291.2,33.2z M291.5,45.1l-7.2-5.6l7.6-5.6
			l7.6,5.8L291.5,45.1z"/>
	</g>
	<g>
		<polygon points="232.4,24.4 227.2,27.8 231.9,31.5 237,28.2 		"/>
		<path d="M232.6,34.6l8.6-6.3l-8.8-6.9l-9.8,6.5l9,6.9l0.3,7.4l-3.7,3l7.9,0l-3.2-3L232.6,34.6z M232.4,22.6l7.2,5.6l-7.6,5.6
			l-7.6-5.8L232.4,22.6z"/>
	</g>
	<g>
		<polygon points="256.4,25.4 251.2,28.8 255.9,32.5 261,29.2 		"/>
		<path d="M256.6,35.6l8.6-6.3l-8.8-6.9l-9.8,6.5l9,6.9l0.3,7.4l-3.7,3l7.9,0l-3.2-3L256.6,35.6z M256.4,23.6l7.2,5.6l-7.6,5.6
			l-7.6-5.8L256.4,23.6z"/>
	</g>
	<g>
		<polygon points="279.4,25.4 274.2,28.8 278.9,32.5 284,29.2 		"/>
		<path d="M279.6,35.6l8.6-6.3l-8.8-6.9l-9.8,6.5l9,6.9l0.3,7.4l-3.7,3l7.9,0l-3.2-3L279.6,35.6z M279.4,23.6l7.2,5.6l-7.6,5.6
			l-7.6-5.8L279.4,23.6z"/>
	</g>
	<g>
		<polygon points="267.4,43.3 272.6,40 267.9,36.2 262.8,39.5 		"/>
		<path d="M267.2,33.2l-8.6,6.3l8.8,6.9l9.8-6.5l-9-6.9l-0.3-7.4l3.7-3l-7.9,0l3.2,3L267.2,33.2z M267.5,45.1l-7.2-5.6l7.6-5.6
			l7.6,5.8L267.5,45.1z"/>
	</g>
	<g>
		<polygon points="244.4,43.3 249.6,40 244.9,36.2 239.8,39.5 		"/>
		<path d="M244.2,33.2l-8.6,6.3l8.8,6.9l9.8-6.5l-9-6.9l-0.3-7.4l3.7-3l-7.9,0l3.2,3L244.2,33.2z M244.5,45.1l-7.2-5.6l7.6-5.6
			l7.6,5.8L244.5,45.1z"/>
	</g>
	<g>
		<polygon points="220.4,43.3 225.6,40 220.9,36.2 215.8,39.5 		"/>
		<path d="M220.2,33.2l-8.6,6.3l8.8,6.9l9.8-6.5l-9-6.9l-0.3-7.4l3.7-3l-7.9,0l3.2,3L220.2,33.2z M220.5,45.1l-7.2-5.6l7.6-5.6
			l7.6,5.8L220.5,45.1z"/>
	</g>
	<g>
		<polygon points="160.4,24.4 155.2,27.8 159.9,31.5 165,28.2 		"/>
		<path d="M160.6,34.6l8.6-6.3l-8.8-6.9l-9.8,6.5l9,6.9l0.3,7.4l-3.7,3l7.9,0l-3.2-3L160.6,34.6z M160.4,22.6l7.2,5.6l-7.6,5.6
			l-7.6-5.8L160.4,22.6z"/>
	</g>
	<g>
		<polygon points="184.4,25.4 179.2,28.8 183.9,32.5 189,29.2 		"/>
		<path d="M184.6,35.6l8.6-6.3l-8.8-6.9l-9.8,6.5l9,6.9l0.3,7.4l-3.7,3l7.9,0l-3.2-3L184.6,35.6z M184.4,23.6l7.2,5.6l-7.6,5.6
			l-7.6-5.8L184.4,23.6z"/>
	</g>
	<g>
		<polygon points="207.4,25.4 202.2,28.8 206.9,32.5 212,29.2 		"/>
		<path d="M207.6,35.6l8.6-6.3l-8.8-6.9l-9.8,6.5l9,6.9l0.3,7.4l-3.7,3l7.9,0l-3.2-3L207.6,35.6z M207.4,23.6l7.2,5.6l-7.6,5.6
			l-7.6-5.8L207.4,23.6z"/>
	</g>
	<g>
		<polygon points="195.4,43.3 200.6,40 195.9,36.2 190.8,39.5 		"/>
		<path d="M195.2,33.2l-8.6,6.3l8.8,6.9l9.8-6.5l-9-6.9l-0.3-7.4l3.7-3l-7.9,0l3.2,3L195.2,33.2z M195.5,45.1l-7.2-5.6l7.6-5.6
			l7.6,5.8L195.5,45.1z"/>
	</g>
	<g>
		<polygon points="172.4,43.3 177.6,40 172.9,36.2 167.8,39.5 		"/>
		<path d="M172.2,33.2l-8.6,6.3l8.8,6.9l9.8-6.5l-9-6.9l-0.3-7.4l3.7-3l-7.9,0l3.2,3L172.2,33.2z M172.5,45.1l-7.2-5.6l7.6-5.6
			l7.6,5.8L172.5,45.1z"/>
	</g>
	<g>
		<polygon points="148.4,43.3 153.6,40 148.9,36.2 143.8,39.5 		"/>
		<path d="M148.2,33.2l-8.6,6.3l8.8,6.9l9.8-6.5l-9-6.9l-0.3-7.4l3.7-3l-7.9,0l3.2,3L148.2,33.2z M148.5,45.1l-7.2-5.6l7.6-5.6
			l7.6,5.8L148.5,45.1z"/>
	</g>
	<g>
		<polygon points="89.4,24.4 84.2,27.8 88.9,31.5 94,28.2 		"/>
		<path d="M89.6,34.6l8.6-6.3l-8.8-6.9l-9.8,6.5l9,6.9l0.3,7.4l-3.7,3l7.9,0l-3.2-3L89.6,34.6z M89.4,22.6l7.2,5.6l-7.6,5.6L81.3,28
			L89.4,22.6z"/>
	</g>
	<g>
		<polygon points="113.4,25.4 108.2,28.8 112.9,32.5 118,29.2 		"/>
		<path d="M113.6,35.6l8.6-6.3l-8.8-6.9l-9.8,6.5l9,6.9l0.3,7.4l-3.7,3l7.9,0l-3.2-3L113.6,35.6z M113.4,23.6l7.2,5.6l-7.6,5.6
			l-7.6-5.8L113.4,23.6z"/>
	</g>
	<g>
		<polygon points="136.4,25.4 131.2,28.8 135.9,32.5 141,29.2 		"/>
		<path d="M136.6,35.6l8.6-6.3l-8.8-6.9l-9.8,6.5l9,6.9l0.3,7.4l-3.7,3l7.9,0l-3.2-3L136.6,35.6z M136.4,23.6l7.2,5.6l-7.6,5.6
			l-7.6-5.8L136.4,23.6z"/>
	</g>
	<g>
		<polygon points="124.4,43.3 129.6,40 124.9,36.2 119.8,39.5 		"/>
		<path d="M124.2,33.2l-8.6,6.3l8.8,6.9l9.8-6.5l-9-6.9l-0.3-7.4l3.7-3l-7.9,0l3.2,3L124.2,33.2z M124.5,45.1l-7.2-5.6l7.6-5.6
			l7.6,5.8L124.5,45.1z"/>
	</g>
	<g>
		<polygon points="101.4,43.3 106.6,40 101.9,36.2 96.8,39.5 		"/>
		<path d="M101.2,33.2l-8.6,6.3l8.8,6.9l9.8-6.5l-9-6.9l-0.3-7.4l3.7-3l-7.9,0l3.2,3L101.2,33.2z M101.5,45.1l-7.2-5.6l7.6-5.6
			l7.6,5.8L101.5,45.1z"/>
	</g>
	<g>
		<polygon points="77.4,43.3 82.6,40 77.9,36.2 72.8,39.5 		"/>
		<path d="M77.2,33.2l-8.6,6.3l8.8,6.9l9.8-6.5l-9-6.9l-0.3-7.4l3.7-3l-7.9,0l3.2,3L77.2,33.2z M77.5,45.1l-7.2-5.6l7.6-5.6l7.6,5.8
			L77.5,45.1z"/>
	</g>
	<g>
		<polygon points="17.4,24.4 12.2,27.8 16.9,31.5 22,28.2 		"/>
		<path d="M17.6,34.6l8.6-6.3l-8.8-6.9l-9.8,6.5l9,6.9l0.3,7.4l-3.7,3l7.9,0l-3.2-3L17.6,34.6z M17.4,22.6l7.2,5.6l-7.6,5.6L9.3,28
			L17.4,22.6z"/>
	</g>
	<g>
		<polygon points="41.4,25.4 36.2,28.8 40.9,32.5 46,29.2 		"/>
		<path d="M41.6,35.6l8.6-6.3l-8.8-6.9l-9.8,6.5l9,6.9l0.3,7.4l-3.7,3l7.9,0l-3.2-3L41.6,35.6z M41.4,23.6l7.2,5.6l-7.6,5.6L33.3,29
			L41.4,23.6z"/>
	</g>
	<g>
		<polygon points="64.4,25.4 59.2,28.8 63.9,32.5 69,29.2 		"/>
		<path d="M64.6,35.6l8.6-6.3l-8.8-6.9l-9.8,6.5l9,6.9l0.3,7.4l-3.7,3l7.9,0l-3.2-3L64.6,35.6z M64.4,23.6l7.2,5.6l-7.6,5.6L56.3,29
			L64.4,23.6z"/>
	</g>
	<g>
		<polygon points="52.4,43.3 57.6,40 52.9,36.2 47.8,39.5 		"/>
		<path d="M52.2,33.2l-8.6,6.3l8.8,6.9l9.8-6.5l-9-6.9l-0.3-7.4l3.7-3l-7.9,0l3.2,3L52.2,33.2z M52.5,45.1l-7.2-5.6l7.6-5.6l7.6,5.8
			L52.5,45.1z"/>
	</g>
	<g>
		<polygon points="29.4,43.3 34.6,40 29.9,36.2 24.8,39.5 		"/>
		<path d="M29.2,33.2l-8.6,6.3l8.8,6.9l9.8-6.5l-9-6.9l-0.3-7.4l3.7-3l-7.9,0l3.2,3L29.2,33.2z M29.5,45.1l-7.2-5.6l7.6-5.6l7.6,5.8
			L29.5,45.1z"/>
	</g>
</g>
<g>
	<g>
		<polygon points="1448.4,24.4 1443.2,27.8 1447.9,31.5 1453,28.2 		"/>
		<path d="M1448.6,34.6l8.6-6.3l-8.8-6.9l-9.8,6.5l9,6.9l0.3,7.4l-3.7,3l7.9,0l-3.2-3L1448.6,34.6z M1448.4,22.6l7.2,5.6l-7.6,5.6
			l-7.6-5.8L1448.4,22.6z"/>
	</g>
	<g>
		<polygon points="1472.4,25.4 1467.2,28.8 1471.9,32.5 1477,29.2 		"/>
		<path d="M1472.6,35.6l8.6-6.3l-8.8-6.9l-9.8,6.5l9,6.9l0.3,7.4l-3.7,3l7.9,0l-3.2-3L1472.6,35.6z M1472.4,23.6l7.2,5.6l-7.6,5.6
			l-7.6-5.8L1472.4,23.6z"/>
	</g>
	<g>
		<polygon points="1495.4,25.4 1490.2,28.8 1494.9,32.5 1500,29.2 		"/>
		<path d="M1495.6,35.6l8.6-6.3l-8.8-6.9l-9.8,6.5l9,6.9l0.3,7.4l-3.7,3l7.9,0l-3.2-3L1495.6,35.6z M1495.4,23.6l7.2,5.6l-7.6,5.6
			l-7.6-5.8L1495.4,23.6z"/>
	</g>
	<g>
		<polygon points="1483.4,43.3 1488.6,40 1483.9,36.2 1478.8,39.5 		"/>
		<path d="M1483.2,33.2l-8.6,6.3l8.8,6.9l9.8-6.5l-9-6.9l-0.3-7.4l3.7-3l-7.9,0l3.2,3L1483.2,33.2z M1483.5,45.1l-7.2-5.6l7.6-5.6
			l7.6,5.8L1483.5,45.1z"/>
	</g>
	<g>
		<polygon points="1460.4,43.3 1465.6,40 1460.9,36.2 1455.8,39.5 		"/>
		<path d="M1460.2,33.2l-8.6,6.3l8.8,6.9l9.8-6.5l-9-6.9l-0.3-7.4l3.7-3l-7.9,0l3.2,3L1460.2,33.2z M1460.5,45.1l-7.2-5.6l7.6-5.6
			l7.6,5.8L1460.5,45.1z"/>
	</g>
	<g>
		<polygon points="1436.4,43.3 1441.6,40 1436.9,36.2 1431.8,39.5 		"/>
		<path d="M1436.2,33.2l-8.6,6.3l8.8,6.9l9.8-6.5l-9-6.9l-0.3-7.4l3.7-3l-7.9,0l3.2,3L1436.2,33.2z M1436.5,45.1l-7.2-5.6l7.6-5.6
			l7.6,5.8L1436.5,45.1z"/>
	</g>
	<g>
		<polygon points="1377.4,24.4 1372.2,27.8 1376.9,31.5 1382,28.2 		"/>
		<path d="M1377.6,34.6l8.6-6.3l-8.8-6.9l-9.8,6.5l9,6.9l0.3,7.4l-3.7,3l7.9,0l-3.2-3L1377.6,34.6z M1377.4,22.6l7.2,5.6l-7.6,5.6
			l-7.6-5.8L1377.4,22.6z"/>
	</g>
	<g>
		<polygon points="1401.4,25.4 1396.2,28.8 1400.9,32.5 1406,29.2 		"/>
		<path d="M1401.6,35.6l8.6-6.3l-8.8-6.9l-9.8,6.5l9,6.9l0.3,7.4l-3.7,3l7.9,0l-3.2-3L1401.6,35.6z M1401.4,23.6l7.2,5.6l-7.6,5.6
			l-7.6-5.8L1401.4,23.6z"/>
	</g>
	<g>
		<polygon points="1424.4,25.4 1419.2,28.8 1423.9,32.5 1429,29.2 		"/>
		<path d="M1424.6,35.6l8.6-6.3l-8.8-6.9l-9.8,6.5l9,6.9l0.3,7.4l-3.7,3l7.9,0l-3.2-3L1424.6,35.6z M1424.4,23.6l7.2,5.6l-7.6,5.6
			l-7.6-5.8L1424.4,23.6z"/>
	</g>
	<g>
		<polygon points="1412.4,43.3 1417.6,40 1412.9,36.2 1407.8,39.5 		"/>
		<path d="M1412.2,33.2l-8.6,6.3l8.8,6.9l9.8-6.5l-9-6.9l-0.3-7.4l3.7-3l-7.9,0l3.2,3L1412.2,33.2z M1412.5,45.1l-7.2-5.6l7.6-5.6
			l7.6,5.8L1412.5,45.1z"/>
	</g>
	<g>
		<polygon points="1389.4,43.3 1394.6,40 1389.9,36.2 1384.8,39.5 		"/>
		<path d="M1389.2,33.2l-8.6,6.3l8.8,6.9l9.8-6.5l-9-6.9l-0.3-7.4l3.7-3l-7.9,0l3.2,3L1389.2,33.2z M1389.5,45.1l-7.2-5.6l7.6-5.6
			l7.6,5.8L1389.5,45.1z"/>
	</g>
	<g>
		<polygon points="1365.4,43.3 1370.6,40 1365.9,36.2 1360.8,39.5 		"/>
		<path d="M1365.2,33.2l-8.6,6.3l8.8,6.9l9.8-6.5l-9-6.9l-0.3-7.4l3.7-3l-7.9,0l3.2,3L1365.2,33.2z M1365.5,45.1l-7.2-5.6l7.6-5.6
			l7.6,5.8L1365.5,45.1z"/>
	</g>
	<g>
		<polygon points="1305.4,24.4 1300.2,27.8 1304.9,31.5 1310,28.2 		"/>
		<path d="M1305.6,34.6l8.6-6.3l-8.8-6.9l-9.8,6.5l9,6.9l0.3,7.4l-3.7,3l7.9,0l-3.2-3L1305.6,34.6z M1305.4,22.6l7.2,5.6l-7.6,5.6
			l-7.6-5.8L1305.4,22.6z"/>
	</g>
	<g>
		<polygon points="1329.4,25.4 1324.2,28.8 1328.9,32.5 1334,29.2 		"/>
		<path d="M1329.6,35.6l8.6-6.3l-8.8-6.9l-9.8,6.5l9,6.9l0.3,7.4l-3.7,3l7.9,0l-3.2-3L1329.6,35.6z M1329.4,23.6l7.2,5.6l-7.6,5.6
			l-7.6-5.8L1329.4,23.6z"/>
	</g>
	<g>
		<polygon points="1352.4,25.4 1347.2,28.8 1351.9,32.5 1357,29.2 		"/>
		<path d="M1352.6,35.6l8.6-6.3l-8.8-6.9l-9.8,6.5l9,6.9l0.3,7.4l-3.7,3l7.9,0l-3.2-3L1352.6,35.6z M1352.4,23.6l7.2,5.6l-7.6,5.6
			l-7.6-5.8L1352.4,23.6z"/>
	</g>
	<g>
		<polygon points="1340.4,43.3 1345.6,40 1340.9,36.2 1335.8,39.5 		"/>
		<path d="M1340.2,33.2l-8.6,6.3l8.8,6.9l9.8-6.5l-9-6.9l-0.3-7.4l3.7-3l-7.9,0l3.2,3L1340.2,33.2z M1340.5,45.1l-7.2-5.6l7.6-5.6
			l7.6,5.8L1340.5,45.1z"/>
	</g>
	<g>
		<polygon points="1317.4,43.3 1322.6,40 1317.9,36.2 1312.8,39.5 		"/>
		<path d="M1317.2,33.2l-8.6,6.3l8.8,6.9l9.8-6.5l-9-6.9l-0.3-7.4l3.7-3l-7.9,0l3.2,3L1317.2,33.2z M1317.5,45.1l-7.2-5.6l7.6-5.6
			l7.6,5.8L1317.5,45.1z"/>
	</g>
	<g>
		<polygon points="1293.4,43.3 1298.6,40 1293.9,36.2 1288.8,39.5 		"/>
		<path d="M1293.2,33.2l-8.6,6.3l8.8,6.9l9.8-6.5l-9-6.9l-0.3-7.4l3.7-3l-7.9,0l3.2,3L1293.2,33.2z M1293.5,45.1l-7.2-5.6l7.6-5.6
			l7.6,5.8L1293.5,45.1z"/>
	</g>
	<g>
		<polygon points="1234.4,24.4 1229.2,27.8 1233.9,31.5 1239,28.2 		"/>
		<path d="M1234.6,34.6l8.6-6.3l-8.8-6.9l-9.8,6.5l9,6.9l0.3,7.4l-3.7,3l7.9,0l-3.2-3L1234.6,34.6z M1234.4,22.6l7.2,5.6l-7.6,5.6
			l-7.6-5.8L1234.4,22.6z"/>
	</g>
	<g>
		<polygon points="1258.4,25.4 1253.2,28.8 1257.9,32.5 1263,29.2 		"/>
		<path d="M1258.6,35.6l8.6-6.3l-8.8-6.9l-9.8,6.5l9,6.9l0.3,7.4l-3.7,3l7.9,0l-3.2-3L1258.6,35.6z M1258.4,23.6l7.2,5.6l-7.6,5.6
			l-7.6-5.8L1258.4,23.6z"/>
	</g>
	<g>
		<polygon points="1281.4,25.4 1276.2,28.8 1280.9,32.5 1286,29.2 		"/>
		<path d="M1281.6,35.6l8.6-6.3l-8.8-6.9l-9.8,6.5l9,6.9l0.3,7.4l-3.7,3l7.9,0l-3.2-3L1281.6,35.6z M1281.4,23.6l7.2,5.6l-7.6,5.6
			l-7.6-5.8L1281.4,23.6z"/>
	</g>
	<g>
		<polygon points="1269.4,43.3 1274.6,40 1269.9,36.2 1264.8,39.5 		"/>
		<path d="M1269.2,33.2l-8.6,6.3l8.8,6.9l9.8-6.5l-9-6.9l-0.3-7.4l3.7-3l-7.9,0l3.2,3L1269.2,33.2z M1269.5,45.1l-7.2-5.6l7.6-5.6
			l7.6,5.8L1269.5,45.1z"/>
	</g>
	<g>
		<polygon points="1246.4,43.3 1251.6,40 1246.9,36.2 1241.8,39.5 		"/>
		<path d="M1246.2,33.2l-8.6,6.3l8.8,6.9l9.8-6.5l-9-6.9l-0.3-7.4l3.7-3l-7.9,0l3.2,3L1246.2,33.2z M1246.5,45.1l-7.2-5.6l7.6-5.6
			l7.6,5.8L1246.5,45.1z"/>
	</g>
	<g>
		<polygon points="1222.4,43.3 1227.6,40 1222.9,36.2 1217.8,39.5 		"/>
		<path d="M1222.2,33.2l-8.6,6.3l8.8,6.9l9.8-6.5l-9-6.9l-0.3-7.4l3.7-3l-7.9,0l3.2,3L1222.2,33.2z M1222.5,45.1l-7.2-5.6l7.6-5.6
			l7.6,5.8L1222.5,45.1z"/>
	</g>
	<g>
		<polygon points="1162.4,24.4 1157.2,27.8 1161.9,31.5 1167,28.2 		"/>
		<path d="M1162.6,34.6l8.6-6.3l-8.8-6.9l-9.8,6.5l9,6.9l0.3,7.4l-3.7,3l7.9,0l-3.2-3L1162.6,34.6z M1162.4,22.6l7.2,5.6l-7.6,5.6
			l-7.6-5.8L1162.4,22.6z"/>
	</g>
	<g>
		<polygon points="1186.4,25.4 1181.2,28.8 1185.9,32.5 1191,29.2 		"/>
		<path d="M1186.6,35.6l8.6-6.3l-8.8-6.9l-9.8,6.5l9,6.9l0.3,7.4l-3.7,3l7.9,0l-3.2-3L1186.6,35.6z M1186.4,23.6l7.2,5.6l-7.6,5.6
			l-7.6-5.8L1186.4,23.6z"/>
	</g>
	<g>
		<polygon points="1209.4,25.4 1204.2,28.8 1208.9,32.5 1214,29.2 		"/>
		<path d="M1209.6,35.6l8.6-6.3l-8.8-6.9l-9.8,6.5l9,6.9l0.3,7.4l-3.7,3l7.9,0l-3.2-3L1209.6,35.6z M1209.4,23.6l7.2,5.6l-7.6,5.6
			l-7.6-5.8L1209.4,23.6z"/>
	</g>
	<g>
		<polygon points="1197.4,43.3 1202.6,40 1197.9,36.2 1192.8,39.5 		"/>
		<path d="M1197.2,33.2l-8.6,6.3l8.8,6.9l9.8-6.5l-9-6.9l-0.3-7.4l3.7-3l-7.9,0l3.2,3L1197.2,33.2z M1197.5,45.1l-7.2-5.6l7.6-5.6
			l7.6,5.8L1197.5,45.1z"/>
	</g>
	<g>
		<polygon points="1174.4,43.3 1179.6,40 1174.9,36.2 1169.8,39.5 		"/>
		<path d="M1174.2,33.2l-8.6,6.3l8.8,6.9l9.8-6.5l-9-6.9l-0.3-7.4l3.7-3l-7.9,0l3.2,3L1174.2,33.2z M1174.5,45.1l-7.2-5.6l7.6-5.6
			l7.6,5.8L1174.5,45.1z"/>
	</g>
	<g>
		<polygon points="1150.4,43.3 1155.6,40 1150.9,36.2 1145.8,39.5 		"/>
		<path d="M1150.2,33.2l-8.6,6.3l8.8,6.9l9.8-6.5l-9-6.9l-0.3-7.4l3.7-3l-7.9,0l3.2,3L1150.2,33.2z M1150.5,45.1l-7.2-5.6l7.6-5.6
			l7.6,5.8L1150.5,45.1z"/>
	</g>
	<g>
		<polygon points="1091.4,24.4 1086.2,27.8 1090.9,31.5 1096,28.2 		"/>
		<path d="M1091.6,34.6l8.6-6.3l-8.8-6.9l-9.8,6.5l9,6.9l0.3,7.4l-3.7,3l7.9,0l-3.2-3L1091.6,34.6z M1091.4,22.6l7.2,5.6l-7.6,5.6
			l-7.6-5.8L1091.4,22.6z"/>
	</g>
	<g>
		<polygon points="1115.4,25.4 1110.2,28.8 1114.9,32.5 1120,29.2 		"/>
		<path d="M1115.6,35.6l8.6-6.3l-8.8-6.9l-9.8,6.5l9,6.9l0.3,7.4l-3.7,3l7.9,0l-3.2-3L1115.6,35.6z M1115.4,23.6l7.2,5.6l-7.6,5.6
			l-7.6-5.8L1115.4,23.6z"/>
	</g>
	<g>
		<polygon points="1138.4,25.4 1133.2,28.8 1137.9,32.5 1143,29.2 		"/>
		<path d="M1138.6,35.6l8.6-6.3l-8.8-6.9l-9.8,6.5l9,6.9l0.3,7.4l-3.7,3l7.9,0l-3.2-3L1138.6,35.6z M1138.4,23.6l7.2,5.6l-7.6,5.6
			l-7.6-5.8L1138.4,23.6z"/>
	</g>
	<g>
		<polygon points="1126.4,43.3 1131.6,40 1126.9,36.2 1121.8,39.5 		"/>
		<path d="M1126.2,33.2l-8.6,6.3l8.8,6.9l9.8-6.5l-9-6.9l-0.3-7.4l3.7-3l-7.9,0l3.2,3L1126.2,33.2z M1126.5,45.1l-7.2-5.6l7.6-5.6
			l7.6,5.8L1126.5,45.1z"/>
	</g>
	<g>
		<polygon points="1103.4,43.3 1108.6,40 1103.9,36.2 1098.8,39.5 		"/>
		<path d="M1103.2,33.2l-8.6,6.3l8.8,6.9l9.8-6.5l-9-6.9l-0.3-7.4l3.7-3l-7.9,0l3.2,3L1103.2,33.2z M1103.5,45.1l-7.2-5.6l7.6-5.6
			l7.6,5.8L1103.5,45.1z"/>
	</g>
	<g>
		<polygon points="1079.4,43.3 1084.6,40 1079.9,36.2 1074.8,39.5 		"/>
		<path d="M1079.2,33.2l-8.6,6.3l8.8,6.9l9.8-6.5l-9-6.9l-0.3-7.4l3.7-3l-7.9,0l3.2,3L1079.2,33.2z M1079.5,45.1l-7.2-5.6l7.6-5.6
			l7.6,5.8L1079.5,45.1z"/>
	</g>
	<g>
		<polygon points="1019.4,24.4 1014.2,27.8 1018.9,31.5 1024,28.2 		"/>
		<path d="M1019.6,34.6l8.6-6.3l-8.8-6.9l-9.8,6.5l9,6.9l0.3,7.4l-3.7,3l7.9,0l-3.2-3L1019.6,34.6z M1019.4,22.6l7.2,5.6l-7.6,5.6
			l-7.6-5.8L1019.4,22.6z"/>
	</g>
	<g>
		<polygon points="1043.4,25.4 1038.2,28.8 1042.9,32.5 1048,29.2 		"/>
		<path d="M1043.6,35.6l8.6-6.3l-8.8-6.9l-9.8,6.5l9,6.9l0.3,7.4l-3.7,3l7.9,0l-3.2-3L1043.6,35.6z M1043.4,23.6l7.2,5.6l-7.6,5.6
			l-7.6-5.8L1043.4,23.6z"/>
	</g>
	<g>
		<polygon points="1066.4,25.4 1061.2,28.8 1065.9,32.5 1071,29.2 		"/>
		<path d="M1066.6,35.6l8.6-6.3l-8.8-6.9l-9.8,6.5l9,6.9l0.3,7.4l-3.7,3l7.9,0l-3.2-3L1066.6,35.6z M1066.4,23.6l7.2,5.6l-7.6,5.6
			l-7.6-5.8L1066.4,23.6z"/>
	</g>
	<g>
		<polygon points="1054.4,43.3 1059.6,40 1054.9,36.2 1049.8,39.5 		"/>
		<path d="M1054.2,33.2l-8.6,6.3l8.8,6.9l9.8-6.5l-9-6.9l-0.3-7.4l3.7-3l-7.9,0l3.2,3L1054.2,33.2z M1054.5,45.1l-7.2-5.6l7.6-5.6
			l7.6,5.8L1054.5,45.1z"/>
	</g>
	<g>
		<polygon points="1031.4,43.3 1036.6,40 1031.9,36.2 1026.8,39.5 		"/>
		<path d="M1031.2,33.2l-8.6,6.3l8.8,6.9l9.8-6.5l-9-6.9l-0.3-7.4l3.7-3l-7.9,0l3.2,3L1031.2,33.2z M1031.5,45.1l-7.2-5.6l7.6-5.6
			l7.6,5.8L1031.5,45.1z"/>
	</g>
	<g>
		<polygon points="1007.4,43.3 1012.6,40 1007.9,36.2 1002.8,39.5 		"/>
		<path d="M1007.2,33.2l-8.6,6.3l8.8,6.9l9.8-6.5l-9-6.9l-0.3-7.4l3.7-3l-7.9,0l3.2,3L1007.2,33.2z M1007.5,45.1l-7.2-5.6l7.6-5.6
			l7.6,5.8L1007.5,45.1z"/>
	</g>
	<g>
		<polygon points="948.4,24.4 943.2,27.8 947.9,31.5 953,28.2 		"/>
		<path d="M948.6,34.6l8.6-6.3l-8.8-6.9l-9.8,6.5l9,6.9l0.3,7.4l-3.7,3l7.9,0l-3.2-3L948.6,34.6z M948.4,22.6l7.2,5.6l-7.6,5.6
			l-7.6-5.8L948.4,22.6z"/>
	</g>
	<g>
		<polygon points="972.4,25.4 967.2,28.8 971.9,32.5 977,29.2 		"/>
		<path d="M972.6,35.6l8.6-6.3l-8.8-6.9l-9.8,6.5l9,6.9l0.3,7.4l-3.7,3l7.9,0l-3.2-3L972.6,35.6z M972.4,23.6l7.2,5.6l-7.6,5.6
			l-7.6-5.8L972.4,23.6z"/>
	</g>
	<g>
		<polygon points="995.4,25.4 990.2,28.8 994.9,32.5 1000,29.2 		"/>
		<path d="M995.6,35.6l8.6-6.3l-8.8-6.9l-9.8,6.5l9,6.9l0.3,7.4l-3.7,3l7.9,0l-3.2-3L995.6,35.6z M995.4,23.6l7.2,5.6l-7.6,5.6
			l-7.6-5.8L995.4,23.6z"/>
	</g>
	<g>
		<polygon points="983.4,43.3 988.6,40 983.9,36.2 978.8,39.5 		"/>
		<path d="M983.2,33.2l-8.6,6.3l8.8,6.9l9.8-6.5l-9-6.9l-0.3-7.4l3.7-3l-7.9,0l3.2,3L983.2,33.2z M983.5,45.1l-7.2-5.6l7.6-5.6
			l7.6,5.8L983.5,45.1z"/>
	</g>
	<g>
		<polygon points="960.4,43.3 965.6,40 960.9,36.2 955.8,39.5 		"/>
		<path d="M960.2,33.2l-8.6,6.3l8.8,6.9l9.8-6.5l-9-6.9l-0.3-7.4l3.7-3l-7.9,0l3.2,3L960.2,33.2z M960.5,45.1l-7.2-5.6l7.6-5.6
			l7.6,5.8L960.5,45.1z"/>
	</g>
	<g>
		<polygon points="936.4,43.3 941.6,40 936.9,36.2 931.8,39.5 		"/>
		<path d="M936.2,33.2l-8.6,6.3l8.8,6.9l9.8-6.5l-9-6.9l-0.3-7.4l3.7-3l-7.9,0l3.2,3L936.2,33.2z M936.5,45.1l-7.2-5.6l7.6-5.6
			l7.6,5.8L936.5,45.1z"/>
	</g>
	<g>
		<polygon points="876.4,24.4 871.2,27.8 875.9,31.5 881,28.2 		"/>
		<path d="M876.6,34.6l8.6-6.3l-8.8-6.9l-9.8,6.5l9,6.9l0.3,7.4l-3.7,3l7.9,0l-3.2-3L876.6,34.6z M876.4,22.6l7.2,5.6l-7.6,5.6
			l-7.6-5.8L876.4,22.6z"/>
	</g>
	<g>
		<polygon points="900.4,25.4 895.2,28.8 899.9,32.5 905,29.2 		"/>
		<path d="M900.6,35.6l8.6-6.3l-8.8-6.9l-9.8,6.5l9,6.9l0.3,7.4l-3.7,3l7.9,0l-3.2-3L900.6,35.6z M900.4,23.6l7.2,5.6l-7.6,5.6
			l-7.6-5.8L900.4,23.6z"/>
	</g>
	<g>
		<polygon points="923.4,25.4 918.2,28.8 922.9,32.5 928,29.2 		"/>
		<path d="M923.6,35.6l8.6-6.3l-8.8-6.9l-9.8,6.5l9,6.9l0.3,7.4l-3.7,3l7.9,0l-3.2-3L923.6,35.6z M923.4,23.6l7.2,5.6l-7.6,5.6
			l-7.6-5.8L923.4,23.6z"/>
	</g>
	<g>
		<polygon points="911.4,43.3 916.6,40 911.9,36.2 906.8,39.5 		"/>
		<path d="M911.2,33.2l-8.6,6.3l8.8,6.9l9.8-6.5l-9-6.9l-0.3-7.4l3.7-3l-7.9,0l3.2,3L911.2,33.2z M911.5,45.1l-7.2-5.6l7.6-5.6
			l7.6,5.8L911.5,45.1z"/>
	</g>
	<g>
		<polygon points="888.4,43.3 893.6,40 888.9,36.2 883.8,39.5 		"/>
		<path d="M888.2,33.2l-8.6,6.3l8.8,6.9l9.8-6.5l-9-6.9l-0.3-7.4l3.7-3l-7.9,0l3.2,3L888.2,33.2z M888.5,45.1l-7.2-5.6l7.6-5.6
			l7.6,5.8L888.5,45.1z"/>
	</g>
</g>
</svg>
