<?xml version="1.0" encoding="utf-8"?>
<!-- Generator: Adobe Illustrator 18.0.0, SVG Export Plug-In . SVG Version: 6.00 Build 0)  -->
<!DOCTYPE svg PUBLIC "-//W3C//DTD SVG 1.1//EN" "http://www.w3.org/Graphics/SVG/1.1/DTD/svg11.dtd">
<svg version="1.1" id="Layer_1" xmlns="http://www.w3.org/2000/svg" xmlns:xlink="http://www.w3.org/1999/xlink" x="0px" y="0px"
	 width="1507px" height="60.3px" viewBox="0 0 1507 60.3" enable-background="new 0 0 1507 60.3" xml:space="preserve">
<g id="Layer_4" display="none">
	<polyline display="inline" fill="none" stroke="#000000" stroke-width="2" stroke-miterlimit="10" points="616,23.5 616.3,28.4 
		641.6,28.2 641.4,23.5 	"/>
	
		<line display="inline" fill="none" stroke="#000000" stroke-width="2" stroke-miterlimit="10" x1="619.9" y1="23.5" x2="619.9" y2="28"/>
	
		<line display="inline" fill="none" stroke="#000000" stroke-width="2" stroke-miterlimit="10" x1="622.8" y1="23.7" x2="623.4" y2="28.3"/>
	
		<line display="inline" fill="none" stroke="#000000" stroke-width="2" stroke-miterlimit="10" x1="627.5" y1="23.5" x2="627.3" y2="28.1"/>
	
		<line display="inline" fill="none" stroke="#000000" stroke-width="2" stroke-miterlimit="10" x1="630.5" y1="23.5" x2="630.5" y2="27.7"/>
	
		<line display="inline" fill="none" stroke="#000000" stroke-width="2" stroke-miterlimit="10" x1="633.7" y1="23.5" x2="633.9" y2="28.1"/>
	
		<line display="inline" fill="none" stroke="#000000" stroke-width="2" stroke-miterlimit="10" x1="637.2" y1="23.5" x2="637.1" y2="28.6"/>
	<polyline display="inline" fill="none" stroke="#000000" stroke-width="2" stroke-miterlimit="10" points="616,41.4 616,36.7 
		641.2,36.3 641.3,41.4 	"/>
	
		<line display="inline" fill="none" stroke="#000000" stroke-width="2" stroke-miterlimit="10" x1="637.1" y1="36.4" x2="637.2" y2="41.4"/>
	
		<line display="inline" fill="none" stroke="#000000" stroke-width="2" stroke-miterlimit="10" x1="633.6" y1="36.7" x2="633.6" y2="41.1"/>
	
		<line display="inline" fill="none" stroke="#000000" stroke-width="2" stroke-miterlimit="10" x1="630.1" y1="36.6" x2="630.1" y2="41.7"/>
	
		<line display="inline" fill="none" stroke="#000000" stroke-width="2" stroke-miterlimit="10" x1="626.2" y1="36.4" x2="626.4" y2="41.2"/>
	
		<line display="inline" fill="none" stroke="#000000" stroke-width="2" stroke-miterlimit="10" x1="623" y1="36.6" x2="623" y2="41.4"/>
	
		<line display="inline" fill="none" stroke="#000000" stroke-width="2" stroke-miterlimit="10" x1="619.9" y1="36.4" x2="619.9" y2="41.4"/>
	<circle display="inline" cx="621.4" cy="31" r="1.3"/>
	<ellipse display="inline" cx="618.1" cy="33.7" rx="1.3" ry="1.2"/>
	<ellipse display="inline" cx="624.5" cy="33.8" rx="1.3" ry="1.3"/>
	<ellipse display="inline" cx="628.1" cy="31" rx="1.2" ry="1.2"/>
	<ellipse display="inline" cx="631.6" cy="33.8" rx="1.2" ry="1.3"/>
	<ellipse display="inline" cx="635.2" cy="31.2" rx="1.3" ry="1"/>
	<ellipse display="inline" cx="637.5" cy="33.8" rx="1.2" ry="1.1"/>
	<ellipse display="inline" cx="640.6" cy="31.3" rx="1.3" ry="1.1"/>
	<polyline display="inline" fill="none" stroke="#000000" stroke-width="2" stroke-miterlimit="10" points="648.3,26 648.6,31.2 
		673.7,31.4 673.4,26.6 	"/>
	
		<line display="inline" fill="none" stroke="#000000" stroke-width="2" stroke-miterlimit="10" x1="669.5" y1="26.1" x2="669.5" y2="31.4"/>
	
		<line display="inline" fill="none" stroke="#000000" stroke-width="2" stroke-miterlimit="10" x1="666" y1="26.3" x2="665.8" y2="31"/>
	
		<line display="inline" fill="none" stroke="#000000" stroke-width="2" stroke-miterlimit="10" x1="662.1" y1="26.1" x2="662.3" y2="30.7"/>
	
		<line display="inline" fill="none" stroke="#000000" stroke-width="2" stroke-miterlimit="10" x1="659.2" y1="26.3" x2="659.2" y2="31"/>
	
		<line display="inline" fill="none" stroke="#000000" stroke-width="2" stroke-miterlimit="10" x1="655.3" y1="26.6" x2="655.3" y2="31.2"/>
	
		<line display="inline" fill="none" stroke="#000000" stroke-width="2" stroke-miterlimit="10" x1="651.9" y1="26.6" x2="651.9" y2="30.8"/>
	<polyline display="inline" fill="none" stroke="#000000" stroke-width="2" stroke-miterlimit="10" points="648.1,44.4 648.3,39.4 
		673.9,39.3 673.8,44.4 	"/>
	
		<line display="inline" fill="none" stroke="#000000" stroke-width="2" stroke-miterlimit="10" x1="669.1" y1="39.8" x2="669.4" y2="44"/>
	
		<line display="inline" fill="none" stroke="#000000" stroke-width="2" stroke-miterlimit="10" x1="665.6" y1="39.5" x2="665.8" y2="44"/>
	
		<line display="inline" fill="none" stroke="#000000" stroke-width="2" stroke-miterlimit="10" x1="662.4" y1="39.5" x2="662.3" y2="44.2"/>
	<path display="inline" fill="none" stroke="#000000" stroke-width="2" stroke-miterlimit="10" d="M659.2,40.1"/>
	
		<line display="inline" fill="none" stroke="#000000" stroke-width="2" stroke-miterlimit="10" x1="659.1" y1="44.2" x2="659.1" y2="39.7"/>
	
		<line display="inline" fill="none" stroke="#000000" stroke-width="2" stroke-miterlimit="10" x1="655.1" y1="44.2" x2="655" y2="39.5"/>
	
		<line display="inline" fill="none" stroke="#000000" stroke-width="2" stroke-miterlimit="10" x1="652.1" y1="44.1" x2="651.9" y2="39.3"/>
	<polyline display="inline" fill="none" stroke="#000000" stroke-width="2" stroke-miterlimit="10" points="680.4,25.1 680.8,30 
		706,29.8 705.8,25.1 	"/>
	
		<line display="inline" fill="none" stroke="#000000" stroke-width="2" stroke-miterlimit="10" x1="684.3" y1="25.1" x2="684.3" y2="29.6"/>
	
		<line display="inline" fill="none" stroke="#000000" stroke-width="2" stroke-miterlimit="10" x1="687.2" y1="25.4" x2="687.8" y2="29.9"/>
	
		<line display="inline" fill="none" stroke="#000000" stroke-width="2" stroke-miterlimit="10" x1="691.9" y1="25.1" x2="691.7" y2="29.8"/>
	
		<line display="inline" fill="none" stroke="#000000" stroke-width="2" stroke-miterlimit="10" x1="694.9" y1="25.1" x2="694.9" y2="29.4"/>
	
		<line display="inline" fill="none" stroke="#000000" stroke-width="2" stroke-miterlimit="10" x1="698.1" y1="25.1" x2="698.3" y2="29.8"/>
	
		<line display="inline" fill="none" stroke="#000000" stroke-width="2" stroke-miterlimit="10" x1="701.6" y1="25.1" x2="701.5" y2="30.2"/>
	<polyline display="inline" fill="none" stroke="#000000" stroke-width="2" stroke-miterlimit="10" points="680.4,43 680.4,38.3 
		705.6,38 705.7,43 	"/>
	
		<line display="inline" fill="none" stroke="#000000" stroke-width="2" stroke-miterlimit="10" x1="701.5" y1="38.1" x2="701.6" y2="43"/>
	
		<line display="inline" fill="none" stroke="#000000" stroke-width="2" stroke-miterlimit="10" x1="698" y1="38.4" x2="698.1" y2="42.8"/>
	
		<line display="inline" fill="none" stroke="#000000" stroke-width="2" stroke-miterlimit="10" x1="694.5" y1="38.2" x2="694.5" y2="43.3"/>
	
		<line display="inline" fill="none" stroke="#000000" stroke-width="2" stroke-miterlimit="10" x1="690.6" y1="38.1" x2="690.9" y2="42.9"/>
	
		<line display="inline" fill="none" stroke="#000000" stroke-width="2" stroke-miterlimit="10" x1="687.4" y1="38.2" x2="687.4" y2="43"/>
	
		<line display="inline" fill="none" stroke="#000000" stroke-width="2" stroke-miterlimit="10" x1="684.3" y1="38.1" x2="684.3" y2="43"/>
	<circle display="inline" cx="685.8" cy="32.7" r="1.3"/>
	<ellipse display="inline" cx="682.5" cy="35.4" rx="1.3" ry="1.2"/>
	<ellipse display="inline" cx="688.9" cy="35.5" rx="1.3" ry="1.3"/>
	<ellipse display="inline" cx="692.5" cy="32.6" rx="1.2" ry="1.2"/>
	<ellipse display="inline" cx="696.1" cy="35.5" rx="1.2" ry="1.3"/>
	<ellipse display="inline" cx="699.6" cy="32.8" rx="1.3" ry="1"/>
	<ellipse display="inline" cx="701.9" cy="35.5" rx="1.2" ry="1.1"/>
	<ellipse display="inline" cx="705" cy="33" rx="1.3" ry="1.1"/>
	<circle display="inline" cx="653.5" cy="33.7" r="1.4"/>
	<circle display="inline" cx="650.2" cy="37.1" r="1.3"/>
	<circle display="inline" cx="656.5" cy="36.9" r="1.2"/>
	<ellipse display="inline" cx="660" cy="34.3" rx="1.4" ry="1.3"/>
	<ellipse display="inline" cx="664" cy="36.6" rx="1.5" ry="1.3"/>
	<ellipse display="inline" cx="667.1" cy="34.2" rx="1.5" ry="1.2"/>
	<circle display="inline" cx="669.7" cy="36.9" r="1.2"/>
	<ellipse display="inline" cx="673" cy="34.4" rx="1.3" ry="1.2"/>
	<polyline display="inline" fill="none" stroke="#000000" stroke-width="2" stroke-miterlimit="10" points="712.9,25.6 713.2,30.9 
		738.3,31 738,26.2 	"/>
	
		<line display="inline" fill="none" stroke="#000000" stroke-width="2" stroke-miterlimit="10" x1="734.1" y1="25.8" x2="734.1" y2="31"/>
	
		<line display="inline" fill="none" stroke="#000000" stroke-width="2" stroke-miterlimit="10" x1="730.6" y1="25.9" x2="730.3" y2="30.6"/>
	
		<line display="inline" fill="none" stroke="#000000" stroke-width="2" stroke-miterlimit="10" x1="726.7" y1="25.8" x2="726.9" y2="30.3"/>
	
		<line display="inline" fill="none" stroke="#000000" stroke-width="2" stroke-miterlimit="10" x1="723.8" y1="25.9" x2="723.8" y2="30.6"/>
	
		<line display="inline" fill="none" stroke="#000000" stroke-width="2" stroke-miterlimit="10" x1="719.9" y1="26.2" x2="719.9" y2="30.9"/>
	
		<line display="inline" fill="none" stroke="#000000" stroke-width="2" stroke-miterlimit="10" x1="716.5" y1="26.2" x2="716.5" y2="30.4"/>
	<polyline display="inline" fill="none" stroke="#000000" stroke-width="2" stroke-miterlimit="10" points="712.7,44 712.9,39 
		738.5,38.9 738.4,44 	"/>
	
		<line display="inline" fill="none" stroke="#000000" stroke-width="2" stroke-miterlimit="10" x1="733.7" y1="39.5" x2="734" y2="43.6"/>
	
		<line display="inline" fill="none" stroke="#000000" stroke-width="2" stroke-miterlimit="10" x1="730.2" y1="39.2" x2="730.3" y2="43.6"/>
	
		<line display="inline" fill="none" stroke="#000000" stroke-width="2" stroke-miterlimit="10" x1="727" y1="39.2" x2="726.9" y2="43.8"/>
	<path display="inline" fill="none" stroke="#000000" stroke-width="2" stroke-miterlimit="10" d="M723.8,39.7"/>
	
		<line display="inline" fill="none" stroke="#000000" stroke-width="2" stroke-miterlimit="10" x1="723.6" y1="43.8" x2="723.6" y2="39.3"/>
	
		<line display="inline" fill="none" stroke="#000000" stroke-width="2" stroke-miterlimit="10" x1="719.7" y1="43.8" x2="719.6" y2="39.2"/>
	
		<line display="inline" fill="none" stroke="#000000" stroke-width="2" stroke-miterlimit="10" x1="716.7" y1="43.7" x2="716.5" y2="38.9"/>
	<polyline display="inline" fill="none" stroke="#000000" stroke-width="2" stroke-miterlimit="10" points="744,24.7 744.3,29.7 
		769.6,29.5 769.4,24.7 	"/>
	
		<line display="inline" fill="none" stroke="#000000" stroke-width="2" stroke-miterlimit="10" x1="747.9" y1="24.7" x2="747.9" y2="29.3"/>
	
		<line display="inline" fill="none" stroke="#000000" stroke-width="2" stroke-miterlimit="10" x1="750.8" y1="25" x2="751.4" y2="29.5"/>
	
		<line display="inline" fill="none" stroke="#000000" stroke-width="2" stroke-miterlimit="10" x1="755.5" y1="24.7" x2="755.3" y2="29.4"/>
	
		<line display="inline" fill="none" stroke="#000000" stroke-width="2" stroke-miterlimit="10" x1="758.5" y1="24.7" x2="758.5" y2="29"/>
	
		<line display="inline" fill="none" stroke="#000000" stroke-width="2" stroke-miterlimit="10" x1="761.7" y1="24.7" x2="761.9" y2="29.4"/>
	
		<line display="inline" fill="none" stroke="#000000" stroke-width="2" stroke-miterlimit="10" x1="765.2" y1="24.7" x2="765.1" y2="29.8"/>
	<polyline display="inline" fill="none" stroke="#000000" stroke-width="2" stroke-miterlimit="10" points="744,42.7 744,37.9 
		769.2,37.6 769.3,42.7 	"/>
	
		<line display="inline" fill="none" stroke="#000000" stroke-width="2" stroke-miterlimit="10" x1="765.1" y1="37.7" x2="765.2" y2="42.7"/>
	
		<line display="inline" fill="none" stroke="#000000" stroke-width="2" stroke-miterlimit="10" x1="761.6" y1="38" x2="761.6" y2="42.4"/>
	
		<line display="inline" fill="none" stroke="#000000" stroke-width="2" stroke-miterlimit="10" x1="758.1" y1="37.9" x2="758.1" y2="42.9"/>
	
		<line display="inline" fill="none" stroke="#000000" stroke-width="2" stroke-miterlimit="10" x1="754.1" y1="37.7" x2="754.4" y2="42.5"/>
	
		<line display="inline" fill="none" stroke="#000000" stroke-width="2" stroke-miterlimit="10" x1="750.9" y1="37.9" x2="750.9" y2="42.7"/>
	
		<line display="inline" fill="none" stroke="#000000" stroke-width="2" stroke-miterlimit="10" x1="747.9" y1="37.7" x2="747.9" y2="42.7"/>
	<circle display="inline" cx="749.3" cy="32.3" r="1.3"/>
	<ellipse display="inline" cx="746" cy="35" rx="1.3" ry="1.2"/>
	<ellipse display="inline" cx="752.5" cy="35.1" rx="1.3" ry="1.3"/>
	<ellipse display="inline" cx="756" cy="32.2" rx="1.2" ry="1.2"/>
	<ellipse display="inline" cx="759.6" cy="35.1" rx="1.2" ry="1.3"/>
	<ellipse display="inline" cx="763.2" cy="32.5" rx="1.3" ry="1"/>
	<ellipse display="inline" cx="765.5" cy="35.1" rx="1.2" ry="1.1"/>
	<ellipse display="inline" cx="768.6" cy="32.6" rx="1.3" ry="1.1"/>
	<circle display="inline" cx="718.1" cy="33.3" r="1.4"/>
	<circle display="inline" cx="714.8" cy="36.7" r="1.3"/>
	<circle display="inline" cx="721.1" cy="36.5" r="1.2"/>
	<ellipse display="inline" cx="724.6" cy="33.9" rx="1.4" ry="1.3"/>
	<ellipse display="inline" cx="728.6" cy="36.2" rx="1.5" ry="1.3"/>
	<ellipse display="inline" cx="731.7" cy="33.8" rx="1.5" ry="1.2"/>
	<circle display="inline" cx="734.3" cy="36.5" r="1.2"/>
	<ellipse display="inline" cx="737.6" cy="34" rx="1.3" ry="1.2"/>
	<polyline display="inline" fill="none" stroke="#000000" stroke-width="2" stroke-miterlimit="10" points="776.3,25.2 776.6,30.5 
		801.7,30.6 801.4,25.8 	"/>
	
		<line display="inline" fill="none" stroke="#000000" stroke-width="2" stroke-miterlimit="10" x1="797.5" y1="25.4" x2="797.5" y2="30.6"/>
	
		<line display="inline" fill="none" stroke="#000000" stroke-width="2" stroke-miterlimit="10" x1="794" y1="25.5" x2="793.7" y2="30.2"/>
	
		<line display="inline" fill="none" stroke="#000000" stroke-width="2" stroke-miterlimit="10" x1="790.1" y1="25.4" x2="790.2" y2="29.9"/>
	
		<line display="inline" fill="none" stroke="#000000" stroke-width="2" stroke-miterlimit="10" x1="787.2" y1="25.5" x2="787.2" y2="30.2"/>
	
		<line display="inline" fill="none" stroke="#000000" stroke-width="2" stroke-miterlimit="10" x1="783.3" y1="25.8" x2="783.3" y2="30.5"/>
	
		<line display="inline" fill="none" stroke="#000000" stroke-width="2" stroke-miterlimit="10" x1="779.9" y1="25.8" x2="779.9" y2="30"/>
	<polyline display="inline" fill="none" stroke="#000000" stroke-width="2" stroke-miterlimit="10" points="776.1,43.6 776.3,38.6 
		801.9,38.5 801.8,43.6 	"/>
	
		<line display="inline" fill="none" stroke="#000000" stroke-width="2" stroke-miterlimit="10" x1="797.1" y1="39.1" x2="797.4" y2="43.2"/>
	
		<line display="inline" fill="none" stroke="#000000" stroke-width="2" stroke-miterlimit="10" x1="793.6" y1="38.8" x2="793.7" y2="43.2"/>
	
		<line display="inline" fill="none" stroke="#000000" stroke-width="2" stroke-miterlimit="10" x1="790.4" y1="38.8" x2="790.2" y2="43.4"/>
	<path display="inline" fill="none" stroke="#000000" stroke-width="2" stroke-miterlimit="10" d="M787.2,39.4"/>
	
		<line display="inline" fill="none" stroke="#000000" stroke-width="2" stroke-miterlimit="10" x1="787" y1="43.4" x2="787" y2="38.9"/>
	
		<line display="inline" fill="none" stroke="#000000" stroke-width="2" stroke-miterlimit="10" x1="783.1" y1="43.4" x2="783" y2="38.8"/>
	
		<line display="inline" fill="none" stroke="#000000" stroke-width="2" stroke-miterlimit="10" x1="780.1" y1="43.3" x2="779.9" y2="38.5"/>
	<polyline display="inline" fill="none" stroke="#000000" stroke-width="2" stroke-miterlimit="10" points="808.4,24.4 808.8,29.3 
		834,29.1 833.8,24.4 	"/>
	
		<line display="inline" fill="none" stroke="#000000" stroke-width="2" stroke-miterlimit="10" x1="812.3" y1="24.4" x2="812.3" y2="28.9"/>
	
		<line display="inline" fill="none" stroke="#000000" stroke-width="2" stroke-miterlimit="10" x1="815.2" y1="24.6" x2="815.8" y2="29.2"/>
	
		<line display="inline" fill="none" stroke="#000000" stroke-width="2" stroke-miterlimit="10" x1="819.9" y1="24.4" x2="819.7" y2="29"/>
	
		<line display="inline" fill="none" stroke="#000000" stroke-width="2" stroke-miterlimit="10" x1="822.9" y1="24.4" x2="822.9" y2="28.6"/>
	
		<line display="inline" fill="none" stroke="#000000" stroke-width="2" stroke-miterlimit="10" x1="826.1" y1="24.4" x2="826.3" y2="29"/>
	
		<line display="inline" fill="none" stroke="#000000" stroke-width="2" stroke-miterlimit="10" x1="829.6" y1="24.4" x2="829.5" y2="29.5"/>
	<polyline display="inline" fill="none" stroke="#000000" stroke-width="2" stroke-miterlimit="10" points="808.4,42.3 808.4,37.5 
		833.6,37.2 833.7,42.3 	"/>
	
		<line display="inline" fill="none" stroke="#000000" stroke-width="2" stroke-miterlimit="10" x1="829.5" y1="37.3" x2="829.6" y2="42.3"/>
	
		<line display="inline" fill="none" stroke="#000000" stroke-width="2" stroke-miterlimit="10" x1="826" y1="37.6" x2="826.1" y2="42"/>
	
		<line display="inline" fill="none" stroke="#000000" stroke-width="2" stroke-miterlimit="10" x1="822.5" y1="37.5" x2="822.5" y2="42.6"/>
	
		<line display="inline" fill="none" stroke="#000000" stroke-width="2" stroke-miterlimit="10" x1="818.6" y1="37.3" x2="818.9" y2="42.1"/>
	
		<line display="inline" fill="none" stroke="#000000" stroke-width="2" stroke-miterlimit="10" x1="815.4" y1="37.5" x2="815.4" y2="42.3"/>
	
		<line display="inline" fill="none" stroke="#000000" stroke-width="2" stroke-miterlimit="10" x1="812.3" y1="37.3" x2="812.3" y2="42.3"/>
	<circle display="inline" cx="813.8" cy="31.9" r="1.3"/>
	<ellipse display="inline" cx="810.5" cy="34.6" rx="1.3" ry="1.2"/>
	<ellipse display="inline" cx="816.9" cy="34.7" rx="1.3" ry="1.3"/>
	<ellipse display="inline" cx="820.5" cy="31.9" rx="1.2" ry="1.2"/>
	<ellipse display="inline" cx="824" cy="34.7" rx="1.2" ry="1.3"/>
	<ellipse display="inline" cx="827.6" cy="32.1" rx="1.3" ry="1"/>
	<ellipse display="inline" cx="829.9" cy="34.7" rx="1.2" ry="1.1"/>
	<ellipse display="inline" cx="833" cy="32.2" rx="1.3" ry="1.1"/>
	<polyline display="inline" fill="none" stroke="#000000" stroke-width="2" stroke-miterlimit="10" points="840.1,26.3 840.5,31.2 
		865.7,31 865.5,26.3 	"/>
	
		<line display="inline" fill="none" stroke="#000000" stroke-width="2" stroke-miterlimit="10" x1="844" y1="26.3" x2="844" y2="30.8"/>
	
		<line display="inline" fill="none" stroke="#000000" stroke-width="2" stroke-miterlimit="10" x1="846.9" y1="26.6" x2="847.5" y2="31.1"/>
	
		<line display="inline" fill="none" stroke="#000000" stroke-width="2" stroke-miterlimit="10" x1="851.6" y1="26.3" x2="851.5" y2="31"/>
	
		<line display="inline" fill="none" stroke="#000000" stroke-width="2" stroke-miterlimit="10" x1="854.7" y1="26.3" x2="854.7" y2="30.5"/>
	
		<line display="inline" fill="none" stroke="#000000" stroke-width="2" stroke-miterlimit="10" x1="857.9" y1="26.3" x2="858" y2="31"/>
	
		<line display="inline" fill="none" stroke="#000000" stroke-width="2" stroke-miterlimit="10" x1="861.4" y1="26.3" x2="861.2" y2="31.4"/>
	<polyline display="inline" fill="none" stroke="#000000" stroke-width="2" stroke-miterlimit="10" points="840.1,44.2 840.1,39.5 
		865.4,39.2 865.4,44.2 	"/>
	
		<line display="inline" fill="none" stroke="#000000" stroke-width="2" stroke-miterlimit="10" x1="861.2" y1="39.3" x2="861.4" y2="44.2"/>
	
		<line display="inline" fill="none" stroke="#000000" stroke-width="2" stroke-miterlimit="10" x1="857.7" y1="39.5" x2="857.8" y2="43.9"/>
	
		<line display="inline" fill="none" stroke="#000000" stroke-width="2" stroke-miterlimit="10" x1="854.2" y1="39.4" x2="854.2" y2="44.5"/>
	
		<line display="inline" fill="none" stroke="#000000" stroke-width="2" stroke-miterlimit="10" x1="850.3" y1="39.3" x2="850.6" y2="44.1"/>
	
		<line display="inline" fill="none" stroke="#000000" stroke-width="2" stroke-miterlimit="10" x1="847.1" y1="39.4" x2="847.1" y2="44.2"/>
	
		<line display="inline" fill="none" stroke="#000000" stroke-width="2" stroke-miterlimit="10" x1="844" y1="39.3" x2="844" y2="44.2"/>
	<circle display="inline" cx="845.5" cy="33.9" r="1.3"/>
	<ellipse display="inline" cx="842.2" cy="36.6" rx="1.3" ry="1.2"/>
	<ellipse display="inline" cx="848.6" cy="36.6" rx="1.3" ry="1.3"/>
	<ellipse display="inline" cx="852.2" cy="33.8" rx="1.2" ry="1.2"/>
	<ellipse display="inline" cx="855.8" cy="36.6" rx="1.2" ry="1.3"/>
	<ellipse display="inline" cx="859.3" cy="34" rx="1.3" ry="1"/>
	<ellipse display="inline" cx="861.6" cy="36.6" rx="1.2" ry="1.1"/>
	<ellipse display="inline" cx="864.7" cy="34.1" rx="1.3" ry="1.1"/>
	<polyline display="inline" fill="none" stroke="#000000" stroke-width="2" stroke-miterlimit="10" points="871.8,24.1 872.2,29 
		897.5,28.8 897.3,24.1 	"/>
	
		<line display="inline" fill="none" stroke="#000000" stroke-width="2" stroke-miterlimit="10" x1="875.8" y1="24.1" x2="875.8" y2="28.6"/>
	
		<line display="inline" fill="none" stroke="#000000" stroke-width="2" stroke-miterlimit="10" x1="878.7" y1="24.4" x2="879.3" y2="28.9"/>
	
		<line display="inline" fill="none" stroke="#000000" stroke-width="2" stroke-miterlimit="10" x1="883.3" y1="24.1" x2="883.2" y2="28.8"/>
	
		<line display="inline" fill="none" stroke="#000000" stroke-width="2" stroke-miterlimit="10" x1="886.4" y1="24.1" x2="886.4" y2="28.3"/>
	
		<line display="inline" fill="none" stroke="#000000" stroke-width="2" stroke-miterlimit="10" x1="889.6" y1="24.1" x2="889.8" y2="28.8"/>
	
		<line display="inline" fill="none" stroke="#000000" stroke-width="2" stroke-miterlimit="10" x1="893.1" y1="24.1" x2="893" y2="29.2"/>
	<polyline display="inline" fill="none" stroke="#000000" stroke-width="2" stroke-miterlimit="10" points="871.8,42 871.8,37.3 
		897.1,37 897.2,42 	"/>
	
		<line display="inline" fill="none" stroke="#000000" stroke-width="2" stroke-miterlimit="10" x1="893" y1="37.1" x2="893.1" y2="42"/>
	
		<line display="inline" fill="none" stroke="#000000" stroke-width="2" stroke-miterlimit="10" x1="889.5" y1="37.3" x2="889.5" y2="41.7"/>
	
		<line display="inline" fill="none" stroke="#000000" stroke-width="2" stroke-miterlimit="10" x1="886" y1="37.2" x2="886" y2="42.3"/>
	
		<line display="inline" fill="none" stroke="#000000" stroke-width="2" stroke-miterlimit="10" x1="882" y1="37.1" x2="882.3" y2="41.9"/>
	
		<line display="inline" fill="none" stroke="#000000" stroke-width="2" stroke-miterlimit="10" x1="878.8" y1="37.2" x2="878.8" y2="42"/>
	
		<line display="inline" fill="none" stroke="#000000" stroke-width="2" stroke-miterlimit="10" x1="875.8" y1="37.1" x2="875.8" y2="42"/>
	<circle display="inline" cx="877.2" cy="31.7" r="1.3"/>
	<ellipse display="inline" cx="873.9" cy="34.4" rx="1.3" ry="1.2"/>
	<ellipse display="inline" cx="880.4" cy="34.4" rx="1.3" ry="1.3"/>
	<ellipse display="inline" cx="883.9" cy="31.6" rx="1.2" ry="1.2"/>
	<ellipse display="inline" cx="887.5" cy="34.4" rx="1.2" ry="1.3"/>
	<ellipse display="inline" cx="891.1" cy="31.8" rx="1.3" ry="1"/>
	<ellipse display="inline" cx="893.4" cy="34.4" rx="1.2" ry="1.1"/>
	<ellipse display="inline" cx="896.5" cy="31.9" rx="1.3" ry="1.1"/>
	<circle display="inline" cx="781.5" cy="32.9" r="1.4"/>
	<circle display="inline" cx="778.2" cy="36.3" r="1.3"/>
	<circle display="inline" cx="784.5" cy="36.1" r="1.2"/>
	<ellipse display="inline" cx="788" cy="33.5" rx="1.4" ry="1.3"/>
	<ellipse display="inline" cx="792" cy="35.9" rx="1.5" ry="1.3"/>
	<ellipse display="inline" cx="795.1" cy="33.5" rx="1.5" ry="1.2"/>
	<circle display="inline" cx="797.7" cy="36.2" r="1.2"/>
	<ellipse display="inline" cx="801" cy="33.6" rx="1.3" ry="1.2"/>
</g>
<g id="Layer_3">
	
		<text transform="matrix(1 0 0 1 696.6019 41.9845)" fill="#F5F5FA" font-family="'BlissPro-Bold'" font-size="28" letter-spacing="1">VISIT US</text>
</g>
<polygon fill="#F5F5FA" points="668.9,28.8 664.7,32.5 660.7,28.4 656.5,32.6 660.3,36.7 664.6,33.3 668.9,37 673.1,33 "/>
<path fill="#F5F5FA" d="M658.1,26.8l-4.6-5.4l-5.1,4.9l5.1,5.3L658.1,26.8z M650.8,26.2l2.6-2.5l2.3,2.7l-2.3,2.5L650.8,26.2z"/>
<path fill="#F5F5FA" d="M647.9,38.9L653,44l5.7-5l-5.6-5.7L647.9,38.9z M655.7,39l-2.3,2.5l-2.6-2.7l2.6-2.5L655.7,39z"/>
<polygon fill="#F5F5FA" points="646.5,28.8 642.2,32.5 638.3,28.4 634,32.6 637.8,36.7 642.1,33.3 646.5,37 650.6,33 "/>
<path fill="#F5F5FA" d="M635.6,26.8l-4.5-5.4l-5.2,4.9l5.2,5.3L635.6,26.8z M628.3,26.2l2.6-2.5l2.3,2.7l-2.3,2.5L628.3,26.2z"/>
<path fill="#F5F5FA" d="M625.5,38.9l5,5.1l5.7-5l-5.6-5.7L625.5,38.9z M633.2,39l-2.3,2.5l-2.6-2.7l2.6-2.5L633.2,39z"/>
<polygon fill="#F5F5FA" points="623.5,28.8 619.2,32.5 615.3,28.4 611,32.6 614.8,36.7 619.1,33.3 623.5,37 627.6,33 "/>
<path fill="#F5F5FA" d="M612.6,26.8l-4.6-5.4l-5.1,4.9l5.1,5.3L612.6,26.8z M605.3,26.2l2.6-2.5l2.3,2.7l-2.3,2.5L605.3,26.2z"/>
<path fill="#F5F5FA" d="M602.5,38.9l5,5.1l5.7-5l-5.6-5.7L602.5,38.9z M610.2,39l-2.3,2.5l-2.6-2.7l2.6-2.5L610.2,39z"/>
<polygon fill="#F5F5FA" points="600.5,28.2 596.2,31.9 592.3,27.9 588,32 591.8,36.2 596.1,32.8 600.5,36.4 604.6,32.5 "/>
<polygon fill="#F5F5FA" points="577.6,27.5 573.3,31.2 569.4,27.2 565.1,31.3 568.9,35.5 573.2,32.1 577.6,35.7 581.7,31.8 "/>
<path fill="#F5F5FA" d="M589.6,26.2l-4.6-5.3l-5.1,4.9L585,31L589.6,26.2z M582.3,25.7l2.6-2.5l2.3,2.7l-2.3,2.4L582.3,25.7z"/>
<path fill="#F5F5FA" d="M579.5,38.4l5,5l5.7-4.9l-5.6-5.7L579.5,38.4z M587.2,38.5l-2.3,2.4l-2.6-2.6l2.6-2.5L587.2,38.5z"/>
<path fill="#F5F5FA" d="M670.8,26.5l5.8,5.3l4.8-4.8l-5.2-5.5L670.8,26.5z M678.7,26.4l-2.3,2.5l-2.6-2.7l2.6-2.5L678.7,26.4z"/>
<path fill="#F5F5FA" d="M670.7,39.3l5.5,5.1l5-5.6l-5.3-4.9L670.7,39.3z M675.8,41.5l-2.6-2.7l2.6-2.5l2.4,2.7L675.8,41.5z"/>
<polygon fill="#F5F5FA" points="555.2,27.4 551,31.1 547,27 542.8,31.2 546.6,35.4 550.9,32 555.2,35.6 559.4,31.6 "/>
<path fill="#F5F5FA" d="M544.4,25.4l-4.6-5.4l-5.1,5l5.1,5.2L544.4,25.4z M537.1,24.8l2.6-2.5L542,25l-2.3,2.5L537.1,24.8z"/>
<path fill="#F5F5FA" d="M534.2,37.5l5.1,5.1l5.7-5l-5.6-5.6L534.2,37.5z M542,37.6l-2.3,2.5l-2.6-2.7l2.6-2.5L542,37.6z"/>
<polygon fill="#F5F5FA" points="532.8,27.4 528.5,31.1 524.6,27 520.3,31.2 524.1,35.4 528.4,32 532.8,35.6 536.9,31.6 "/>
<path fill="#F5F5FA" d="M522,25.4l-4.6-5.4l-5.2,5l5.2,5.2L522,25.4z M514.6,24.8l2.6-2.5l2.4,2.7l-2.4,2.5L514.6,24.8z"/>
<path fill="#F5F5FA" d="M511.8,37.5l5,5.1l5.7-5l-5.6-5.6L511.8,37.5z M519.6,37.6l-2.4,2.5l-2.6-2.7l2.6-2.5L519.6,37.6z"/>
<polygon fill="#F5F5FA" points="509.8,27.4 505.5,31.1 501.6,27 497.3,31.2 501.1,35.4 505.4,32 509.8,35.6 513.9,31.6 "/>
<path fill="#F5F5FA" d="M498.9,25.4l-4.5-5.4l-5.2,5l5.2,5.2L498.9,25.4z M491.6,24.8l2.6-2.5l2.3,2.7l-2.3,2.5L491.6,24.8z"/>
<path fill="#F5F5FA" d="M488.8,37.5l5,5.1l5.7-5l-5.6-5.6L488.8,37.5z M496.5,37.6l-2.3,2.5l-2.6-2.7l2.6-2.5L496.5,37.6z"/>
<polygon fill="#F5F5FA" points="486.8,26.8 482.5,30.5 478.6,26.5 474.3,30.6 478.1,34.8 482.4,31.4 486.8,35 490.9,31.1 "/>
<polygon fill="#F5F5FA" points="463.9,26.1 459.6,29.8 455.7,25.8 451.4,30 455.2,34.1 459.5,30.7 463.9,34.3 468,30.4 "/>
<path fill="#F5F5FA" d="M475.9,24.8l-4.6-5.3l-5.1,4.9l5.1,5.3L475.9,24.8z M468.6,24.3l2.6-2.5l2.3,2.7l-2.3,2.4L468.6,24.3z"/>
<path fill="#F5F5FA" d="M465.8,37l5,5l5.7-4.9l-5.6-5.7L465.8,37z M473.5,37.1l-2.3,2.4l-2.6-2.6l2.6-2.5L473.5,37.1z"/>
<path fill="#F5F5FA" d="M567.7,25.6l-5.2-5.5l-5.4,5l5.8,5.3L567.7,25.6z M560.1,24.8l2.6-2.5L565,25l-2.3,2.5L560.1,24.8z"/>
<path fill="#F5F5FA" d="M557,37.9l5.5,5.1l5-5.6l-5.3-4.9L557,37.9z M562.2,40.1l-2.6-2.7l2.6-2.5l2.3,2.7L562.2,40.1z"/>
<polygon fill="#F5F5FA" points="440.2,26.7 435.9,30.4 432,26.3 427.7,30.5 431.5,34.7 435.8,31.3 440.2,34.9 444.3,30.9 "/>
<path fill="#F5F5FA" d="M429.3,24.7l-4.5-5.4l-5.2,5l5.2,5.2L429.3,24.7z M422,24.1l2.6-2.5l2.3,2.7l-2.3,2.5L422,24.1z"/>
<path fill="#F5F5FA" d="M419.2,36.8l5,5.1l5.7-4.9l-5.6-5.7L419.2,36.8z M426.9,36.9l-2.3,2.5l-2.6-2.7l2.6-2.5L426.9,36.9z"/>
<polygon fill="#F5F5FA" points="417.7,26.7 413.4,30.4 409.5,26.3 405.2,30.5 409.1,34.7 413.3,31.3 417.7,34.9 421.9,30.9 "/>
<path fill="#F5F5FA" d="M406.9,24.7l-4.6-5.4l-5.2,5l5.2,5.2L406.9,24.7z M399.6,24.1l2.6-2.5l2.3,2.7l-2.3,2.5L399.6,24.1z"/>
<path fill="#F5F5FA" d="M396.7,36.8l5,5.1l5.7-4.9l-5.5-5.7L396.7,36.8z M404.5,36.9l-2.3,2.5l-2.6-2.7l2.6-2.5L404.5,36.9z"/>
<polygon fill="#F5F5FA" points="394.7,26.7 390.4,30.4 386.5,26.3 382.2,30.5 386.1,34.7 390.3,31.3 394.7,34.9 398.9,30.9 "/>
<path fill="#F5F5FA" d="M383.9,24.7l-4.6-5.4l-5.2,5l5.2,5.2L383.9,24.7z M376.5,24.1l2.6-2.5l2.4,2.7l-2.4,2.5L376.5,24.1z"/>
<path fill="#F5F5FA" d="M373.7,36.8l5,5.1l5.7-4.9l-5.6-5.7L373.7,36.8z M381.5,36.9l-2.4,2.5l-2.6-2.7l2.6-2.5L381.5,36.9z"/>
<polygon fill="#F5F5FA" points="371.7,26.1 367.4,29.8 363.5,25.8 359.2,30 363,34.1 367.3,30.7 371.7,34.3 375.8,30.4 "/>
<polygon fill="#F5F5FA" points="348.8,26.4 344.5,30.2 340.6,26.1 336.3,30.3 340.2,34.4 344.4,31 348.8,34.6 353,30.7 "/>
<path fill="#F5F5FA" d="M360.9,24.2l-4.6-5.4l-5.2,4.9l5.2,5.3L360.9,24.2z M353.5,23.6l2.6-2.5l2.4,2.7l-2.4,2.4L353.5,23.6z"/>
<path fill="#F5F5FA" d="M350.7,36.3l5,5l5.7-4.9l-5.6-5.7L350.7,36.3z M358.5,36.4l-2.4,2.4l-2.6-2.6l2.6-2.5L358.5,36.4z"/>
<path fill="#F5F5FA" d="M452.6,24.9l-5.2-5.4l-5.4,4.9l5.8,5.3L452.6,24.9z M445,24.1l2.6-2.5l2.3,2.7l-2.3,2.5L445,24.1z"/>
<path fill="#F5F5FA" d="M441.9,37.2l5.5,5.1l5-5.6l-5.2-4.9L441.9,37.2z M447.1,39.4l-2.6-2.7l2.6-2.5l2.3,2.7L447.1,39.4z"/>
<polygon fill="#F5F5FA" points="326.5,26.3 322.2,30 318.3,26 314,30.1 317.8,34.3 322.1,30.9 326.5,34.5 330.6,30.6 "/>
<path fill="#F5F5FA" d="M315.7,24.3l-4.6-5.3l-5.2,4.9l5.2,5.2L315.7,24.3z M308.3,23.7l2.6-2.5l2.3,2.8l-2.3,2.4L308.3,23.7z"/>
<path fill="#F5F5FA" d="M305.5,36.5l5,5l5.7-4.9l-5.6-5.7L305.5,36.5z M313.2,36.6l-2.3,2.4l-2.6-2.7l2.6-2.4L313.2,36.6z"/>
<polygon fill="#F5F5FA" points="304,26.3 299.8,30 295.8,26 291.6,30.1 295.4,34.3 299.6,30.9 304,34.5 308.2,30.6 "/>
<path fill="#F5F5FA" d="M293.2,24.3l-4.6-5.3l-5.1,4.9l5.1,5.2L293.2,24.3z M285.9,23.7l2.6-2.5l2.3,2.8l-2.3,2.4L285.9,23.7z"/>
<path fill="#F5F5FA" d="M283,36.5l5.1,5l5.6-4.9l-5.5-5.7L283,36.5z M290.8,36.6l-2.3,2.4l-2.6-2.7l2.6-2.4L290.8,36.6z"/>
<polygon fill="#F5F5FA" points="281,26.3 276.7,30 272.8,26 268.5,30.1 272.4,34.3 276.6,30.9 281,34.5 285.2,30.6 "/>
<path fill="#F5F5FA" d="M270.2,24.3l-4.6-5.3l-5.2,4.9l5.2,5.2L270.2,24.3z M262.9,23.7l2.6-2.5l2.3,2.8l-2.3,2.4L262.9,23.7z"/>
<path fill="#F5F5FA" d="M260,36.5l5,5l5.7-4.9l-5.5-5.7L260,36.5z M267.8,36.6l-2.3,2.4l-2.6-2.7l2.6-2.4L267.8,36.6z"/>
<polygon fill="#F5F5FA" points="258,25.7 253.7,29.5 249.8,25.4 245.5,29.6 249.4,33.7 253.6,30.3 258,33.9 262.2,30 "/>
<polygon fill="#F5F5FA" points="235.1,25 230.9,28.8 226.9,24.7 222.7,28.9 226.5,33 230.7,29.6 235.1,33.2 239.3,29.3 "/>
<path fill="#F5F5FA" d="M247.2,23.8l-4.6-5.4l-5.2,4.9l5.2,5.3L247.2,23.8z M239.8,23.2l2.6-2.5l2.4,2.7l-2.4,2.4L239.8,23.2z"/>
<path fill="#F5F5FA" d="M237,35.9l5,5l5.7-4.9l-5.6-5.7L237,35.9z M244.8,36l-2.4,2.4l-2.6-2.6l2.6-2.5L244.8,36z"/>
<path fill="#F5F5FA" d="M339,24.5l-5.3-5.4l-5.4,4.9l5.8,5.3L339,24.5z M331.3,23.7l2.6-2.5l2.4,2.8l-2.4,2.4L331.3,23.7z"/>
<path fill="#F5F5FA" d="M328.2,36.8l5.5,5.1l5-5.6l-5.2-4.9L328.2,36.8z M333.4,39l-2.6-2.7l2.6-2.4l2.3,2.7L333.4,39z"/>
<polygon fill="#F5F5FA" points="210.2,25.7 205.9,29.4 202,25.3 197.7,29.5 201.5,33.7 205.8,30.3 210.2,33.9 214.3,29.9 "/>
<path fill="#F5F5FA" d="M199.3,23.7l-4.5-5.4l-5.2,5l5.2,5.2L199.3,23.7z M192,23.1l2.6-2.5l2.3,2.7l-2.3,2.5L192,23.1z"/>
<path fill="#F5F5FA" d="M189.2,35.8l5,5.1l5.7-4.9l-5.6-5.7L189.2,35.8z M196.9,35.9l-2.3,2.5l-2.6-2.7l2.6-2.5L196.9,35.9z"/>
<polygon fill="#F5F5FA" points="187.7,25.7 183.4,29.4 179.5,25.3 175.2,29.5 179.1,33.7 183.3,30.3 187.7,33.9 191.9,29.9 "/>
<path fill="#F5F5FA" d="M176.9,23.7l-4.6-5.4l-5.2,5l5.2,5.2L176.9,23.7z M169.6,23.1l2.6-2.5l2.3,2.7l-2.3,2.5L169.6,23.1z"/>
<path fill="#F5F5FA" d="M166.7,35.8l5,5.1l5.7-4.9l-5.5-5.7L166.7,35.8z M174.5,35.9l-2.3,2.5l-2.6-2.7l2.6-2.5L174.5,35.9z"/>
<polygon fill="#F5F5FA" points="164.7,25.7 160.4,29.4 156.5,25.3 152.2,29.5 156.1,33.7 160.3,30.3 164.7,33.9 168.9,29.9 "/>
<path fill="#F5F5FA" d="M153.9,23.7l-4.6-5.4l-5.2,5l5.2,5.2L153.9,23.7z M146.5,23.1l2.6-2.5l2.4,2.7l-2.4,2.5L146.5,23.1z"/>
<path fill="#F5F5FA" d="M143.7,35.8l5,5.1l5.7-4.9l-5.6-5.7L143.7,35.8z M151.5,35.9l-2.4,2.5l-2.6-2.7l2.6-2.5L151.5,35.9z"/>
<polygon fill="#F5F5FA" points="141.7,25.1 137.4,28.8 133.5,24.8 129.2,29 133,33.1 137.3,29.7 141.7,33.3 145.8,29.4 "/>
<polygon fill="#F5F5FA" points="118.8,24.4 114.5,28.2 110.6,24.1 106.3,28.3 110.2,32.4 114.4,29 118.8,32.6 123,28.7 "/>
<path fill="#F5F5FA" d="M130.9,23.2l-4.6-5.4l-5.2,4.9l5.2,5.3L130.9,23.2z M123.5,22.6l2.6-2.5l2.4,2.7l-2.4,2.4L123.5,22.6z"/>
<path fill="#F5F5FA" d="M120.7,35.3l5,5l5.7-4.9l-5.6-5.7L120.7,35.3z M128.5,35.4l-2.4,2.4l-2.6-2.6l2.6-2.5L128.5,35.4z"/>
<path fill="#F5F5FA" d="M212,23.4l5.8,5.3l4.8-4.8l-5.2-5.4L212,23.4z M219.9,23.3l-2.3,2.5l-2.6-2.7l2.6-2.5L219.9,23.3z"/>
<path fill="#F5F5FA" d="M211.9,36.2l5.5,5.1l5-5.6l-5.2-4.9L211.9,36.2z M217.1,38.4l-2.6-2.7l2.6-2.5l2.3,2.7L217.1,38.4z"/>
<polygon fill="#F5F5FA" points="96.5,24.3 92.2,28 88.3,24 84,28.1 87.8,32.3 92.1,28.9 96.5,32.5 100.6,28.6 "/>
<path fill="#F5F5FA" d="M85.7,22.3L81.1,17l-5.2,4.9l5.2,5.2L85.7,22.3z M78.3,21.7l2.6-2.5l2.3,2.8l-2.3,2.4L78.3,21.7z"/>
<path fill="#F5F5FA" d="M75.5,34.5l5,5l5.7-4.9l-5.6-5.7L75.5,34.5z M83.2,34.6L80.9,37l-2.6-2.7l2.6-2.4L83.2,34.6z"/>
<polygon fill="#F5F5FA" points="74,24.3 69.8,28 65.8,24 61.6,28.1 65.4,32.3 69.6,28.9 74,32.5 78.2,28.6 "/>
<path fill="#F5F5FA" d="M63.2,22.3L58.6,17l-5.1,4.9l5.1,5.2L63.2,22.3z M55.9,21.7l2.6-2.5l2.3,2.8l-2.3,2.4L55.9,21.7z"/>
<path fill="#F5F5FA" d="M53,34.5l5.1,5l5.6-4.9l-5.5-5.7L53,34.5z M60.8,34.6L58.5,37l-2.6-2.7l2.6-2.4L60.8,34.6z"/>
<polygon fill="#F5F5FA" points="51,24.3 46.7,28 42.8,24 38.5,28.1 42.4,32.3 46.6,28.9 51,32.5 55.2,28.6 "/>
<path fill="#F5F5FA" d="M40.2,22.3L35.6,17l-5.2,4.9l5.2,5.2L40.2,22.3z M32.9,21.7l2.6-2.5l2.3,2.8l-2.3,2.4L32.9,21.7z"/>
<path fill="#F5F5FA" d="M30,34.5l5,5l5.7-4.9l-5.5-5.7L30,34.5z M37.8,34.6L35.5,37l-2.6-2.7l2.6-2.4L37.8,34.6z"/>
<polygon fill="#F5F5FA" points="28,23.7 23.7,27.5 19.8,23.4 15.5,27.6 19.4,31.7 23.6,28.3 28,31.9 32.2,28 "/>
<path fill="#F5F5FA" d="M17.2,21.8l-4.6-5.4l-5.2,4.9l5.2,5.3L17.2,21.8z M9.8,21.2l2.6-2.5l2.4,2.7l-2.4,2.4L9.8,21.2z"/>
<path fill="#F5F5FA" d="M7,33.9l5,5l5.7-4.9l-5.6-5.7L7,33.9z M14.8,34l-2.4,2.4l-2.6-2.6l2.6-2.5L14.8,34z"/>
<path fill="#F5F5FA" d="M109,22.5l-5.3-5.4L98.3,22l5.8,5.3L109,22.5z M101.3,21.7l2.6-2.5l2.4,2.8l-2.4,2.4L101.3,21.7z"/>
<path fill="#F5F5FA" d="M98.2,34.8l5.5,5.1l5-5.6l-5.2-4.9L98.2,34.8z M103.4,37l-2.6-2.7l2.6-2.4l2.3,2.7L103.4,37z"/>
<polygon fill="#F5F5FA" points="1490.3,32.2 1486.1,35.9 1482.1,31.8 1477.9,36 1481.7,40.1 1486,36.7 1490.3,40.4 1494.5,36.4 "/>
<path fill="#F5F5FA" d="M1479.5,30.2l-4.6-5.4l-5.1,4.9l5.1,5.3L1479.5,30.2z M1472.2,29.6l2.6-2.5l2.3,2.7l-2.3,2.5L1472.2,29.6z"
	/>
<path fill="#F5F5FA" d="M1469.3,42.3l5.1,5.1l5.7-5l-5.6-5.7L1469.3,42.3z M1477.1,42.4l-2.3,2.5l-2.6-2.7l2.6-2.5L1477.1,42.4z"/>
<polygon fill="#F5F5FA" points="1467.9,32.2 1463.6,35.9 1459.7,31.8 1455.4,36 1459.2,40.1 1463.5,36.7 1467.9,40.4 1472,36.4 "/>
<path fill="#F5F5FA" d="M1457,30.2l-4.5-5.4l-5.2,4.9l5.2,5.3L1457,30.2z M1449.7,29.6l2.6-2.5l2.3,2.7l-2.3,2.5L1449.7,29.6z"/>
<path fill="#F5F5FA" d="M1446.9,42.3l5,5.1l5.7-5l-5.6-5.7L1446.9,42.3z M1454.6,42.4l-2.3,2.5l-2.6-2.7l2.6-2.5L1454.6,42.4z"/>
<polygon fill="#F5F5FA" points="1444.9,32.2 1440.6,35.9 1436.7,31.8 1432.4,36 1436.2,40.1 1440.5,36.7 1444.9,40.4 1449,36.4 "/>
<path fill="#F5F5FA" d="M1434,30.2l-4.6-5.4l-5.1,4.9l5.1,5.3L1434,30.2z M1426.7,29.6l2.6-2.5l2.3,2.7l-2.3,2.5L1426.7,29.6z"/>
<path fill="#F5F5FA" d="M1423.9,42.3l5,5.1l5.7-5l-5.6-5.7L1423.9,42.3z M1431.6,42.4l-2.3,2.5l-2.6-2.7l2.6-2.5L1431.6,42.4z"/>
<polygon fill="#F5F5FA" points="1421.9,31.6 1417.6,35.3 1413.7,31.3 1409.4,35.4 1413.2,39.6 1417.5,36.2 1421.9,39.8 1426,35.9 
	"/>
<polygon fill="#F5F5FA" points="1399,30.9 1394.7,34.6 1390.8,30.6 1386.5,34.7 1390.3,38.9 1394.6,35.5 1399,39.1 1403.1,35.2 "/>
<path fill="#F5F5FA" d="M1411,29.6l-4.6-5.3l-5.1,4.9l5.1,5.2L1411,29.6z M1403.7,29.1l2.6-2.5l2.3,2.7l-2.3,2.4L1403.7,29.1z"/>
<path fill="#F5F5FA" d="M1400.9,41.8l5,5l5.7-4.9l-5.6-5.7L1400.9,41.8z M1408.6,41.9l-2.3,2.4l-2.6-2.6l2.6-2.5L1408.6,41.9z"/>
<path fill="#F5F5FA" d="M1492.2,29.9l5.8,5.3l4.8-4.8l-5.2-5.5L1492.2,29.9z M1500.1,29.8l-2.3,2.5l-2.6-2.7l2.6-2.5L1500.1,29.8z"
	/>
<path fill="#F5F5FA" d="M1492.1,42.7l5.5,5.1l5-5.6l-5.3-4.9L1492.1,42.7z M1497.2,44.9l-2.6-2.7l2.6-2.5l2.4,2.7L1497.2,44.9z"/>
<polygon fill="#F5F5FA" points="1376.6,30.8 1372.4,34.5 1368.4,30.4 1364.2,34.6 1368,38.8 1372.3,35.4 1376.6,39 1380.8,35 "/>
<path fill="#F5F5FA" d="M1365.8,28.8l-4.6-5.4l-5.1,5l5.1,5.2L1365.8,28.8z M1358.5,28.2l2.6-2.5l2.3,2.7l-2.3,2.5L1358.5,28.2z"/>
<path fill="#F5F5FA" d="M1355.6,40.9l5.1,5.1l5.7-5l-5.6-5.6L1355.6,40.9z M1363.4,41l-2.3,2.5l-2.6-2.7l2.6-2.5L1363.4,41z"/>
<polygon fill="#F5F5FA" points="1354.2,30.8 1349.9,34.5 1346,30.4 1341.7,34.6 1345.5,38.8 1349.8,35.4 1354.2,39 1358.3,35 "/>
<path fill="#F5F5FA" d="M1343.4,28.8l-4.6-5.4l-5.2,5l5.2,5.2L1343.4,28.8z M1336,28.2l2.6-2.5l2.4,2.7l-2.4,2.5L1336,28.2z"/>
<path fill="#F5F5FA" d="M1333.2,40.9l5,5.1l5.7-5l-5.6-5.6L1333.2,40.9z M1341,41l-2.4,2.5l-2.6-2.7l2.6-2.5L1341,41z"/>
<polygon fill="#F5F5FA" points="1331.2,30.8 1326.9,34.5 1323,30.4 1318.7,34.6 1322.5,38.8 1326.8,35.4 1331.2,39 1335.3,35 "/>
<path fill="#F5F5FA" d="M1320.3,28.8l-4.5-5.4l-5.2,5l5.2,5.2L1320.3,28.8z M1313,28.2l2.6-2.5l2.3,2.7l-2.3,2.5L1313,28.2z"/>
<path fill="#F5F5FA" d="M1310.2,40.9l5,5.1l5.7-5l-5.6-5.6L1310.2,40.9z M1317.9,41l-2.3,2.5l-2.6-2.7l2.6-2.5L1317.9,41z"/>
<polygon fill="#F5F5FA" points="1308.2,30.2 1303.9,33.9 1300,29.9 1295.7,34 1299.5,38.2 1303.8,34.8 1308.2,38.4 1312.3,34.5 "/>
<polygon fill="#F5F5FA" points="1285.3,29.5 1281,33.2 1277.1,29.2 1272.8,33.4 1276.6,37.5 1280.9,34.1 1285.3,37.7 1289.4,33.8 
	"/>
<path fill="#F5F5FA" d="M1297.3,28.2l-4.6-5.3l-5.1,4.9l5.1,5.3L1297.3,28.2z M1290,27.7l2.6-2.5l2.3,2.7l-2.3,2.4L1290,27.7z"/>
<path fill="#F5F5FA" d="M1287.2,40.4l5,5l5.7-4.9l-5.6-5.7L1287.2,40.4z M1294.9,40.5l-2.3,2.4l-2.6-2.6l2.6-2.5L1294.9,40.5z"/>
<path fill="#F5F5FA" d="M1389.1,29l-5.2-5.5l-5.4,5l5.8,5.3L1389.1,29z M1381.5,28.2l2.6-2.5l2.3,2.7l-2.3,2.5L1381.5,28.2z"/>
<path fill="#F5F5FA" d="M1378.4,41.3l5.5,5.1l5-5.6l-5.3-4.9L1378.4,41.3z M1383.6,43.5l-2.6-2.7l2.6-2.5l2.3,2.7L1383.6,43.5z"/>
<polygon fill="#F5F5FA" points="1261.6,30.1 1257.3,33.8 1253.4,29.7 1249.1,33.9 1252.9,38.1 1257.2,34.7 1261.6,38.3 1265.7,34.3 
	"/>
<path fill="#F5F5FA" d="M1250.7,28.1l-4.5-5.4l-5.2,5l5.2,5.2L1250.7,28.1z M1243.4,27.5l2.6-2.5l2.3,2.7l-2.3,2.5L1243.4,27.5z"/>
<path fill="#F5F5FA" d="M1240.6,40.2l5,5.1l5.7-4.9l-5.6-5.7L1240.6,40.2z M1248.3,40.3l-2.3,2.5l-2.6-2.7l2.6-2.5L1248.3,40.3z"/>
<polygon fill="#F5F5FA" points="1239.1,30.1 1234.8,33.8 1230.9,29.7 1226.6,33.9 1230.5,38.1 1234.7,34.7 1239.1,38.3 1243.3,34.3 
	"/>
<path fill="#F5F5FA" d="M1228.3,28.1l-4.6-5.4l-5.2,5l5.2,5.2L1228.3,28.1z M1221,27.5l2.6-2.5l2.3,2.7l-2.3,2.5L1221,27.5z"/>
<path fill="#F5F5FA" d="M1218.1,40.2l5,5.1l5.7-4.9l-5.5-5.7L1218.1,40.2z M1225.9,40.3l-2.3,2.5l-2.6-2.7l2.6-2.5L1225.9,40.3z"/>
<polygon fill="#F5F5FA" points="1216.1,30.1 1211.8,33.8 1207.9,29.7 1203.6,33.9 1207.5,38.1 1211.7,34.7 1216.1,38.3 1220.3,34.3 
	"/>
<path fill="#F5F5FA" d="M1205.3,28.1l-4.6-5.4l-5.2,5l5.2,5.2L1205.3,28.1z M1197.9,27.5l2.6-2.5l2.4,2.7l-2.4,2.5L1197.9,27.5z"/>
<path fill="#F5F5FA" d="M1195.1,40.2l5,5.1l5.7-4.9l-5.6-5.7L1195.1,40.2z M1202.9,40.3l-2.4,2.5l-2.6-2.7l2.6-2.5L1202.9,40.3z"/>
<polygon fill="#F5F5FA" points="1193.1,29.5 1188.8,33.2 1184.9,29.2 1180.6,33.4 1184.4,37.5 1188.7,34.1 1193.1,37.7 1197.2,33.8 
	"/>
<polygon fill="#F5F5FA" points="1170.2,29.8 1165.9,33.6 1162,29.5 1157.7,33.7 1161.6,37.8 1165.8,34.4 1170.2,38 1174.4,34.1 "/>
<path fill="#F5F5FA" d="M1182.3,27.6l-4.6-5.4l-5.2,4.9l5.2,5.3L1182.3,27.6z M1174.9,27l2.6-2.5l2.4,2.7l-2.4,2.4L1174.9,27z"/>
<path fill="#F5F5FA" d="M1172.1,39.7l5,5l5.7-4.9l-5.6-5.7L1172.1,39.7z M1179.9,39.8l-2.4,2.4l-2.6-2.6l2.6-2.5L1179.9,39.8z"/>
<path fill="#F5F5FA" d="M1274,28.3l-5.2-5.4l-5.4,4.9l5.8,5.3L1274,28.3z M1266.4,27.5l2.6-2.5l2.3,2.7l-2.3,2.5L1266.4,27.5z"/>
<path fill="#F5F5FA" d="M1263.3,40.6l5.5,5.1l5-5.6l-5.2-4.9L1263.3,40.6z M1268.5,42.8l-2.6-2.7l2.6-2.5l2.3,2.7L1268.5,42.8z"/>
<polygon fill="#F5F5FA" points="1147.9,29.7 1143.6,33.4 1139.7,29.4 1135.4,33.5 1139.2,37.7 1143.5,34.3 1147.9,37.9 1152,34 "/>
<path fill="#F5F5FA" d="M1137.1,27.7l-4.6-5.3l-5.2,4.9l5.2,5.2L1137.1,27.7z M1129.7,27.1l2.6-2.5l2.3,2.8l-2.3,2.4L1129.7,27.1z"
	/>
<path fill="#F5F5FA" d="M1126.9,39.9l5,5l5.7-4.9l-5.6-5.7L1126.9,39.9z M1134.6,40l-2.3,2.4l-2.6-2.7l2.6-2.4L1134.6,40z"/>
<polygon fill="#F5F5FA" points="1125.4,29.7 1121.2,33.4 1117.2,29.4 1113,33.5 1116.8,37.7 1121,34.3 1125.4,37.9 1129.6,34 "/>
<path fill="#F5F5FA" d="M1114.6,27.7l-4.6-5.3l-5.1,4.9l5.1,5.2L1114.6,27.7z M1107.3,27.1l2.6-2.5l2.3,2.8l-2.3,2.4L1107.3,27.1z"
	/>
<path fill="#F5F5FA" d="M1104.4,39.9l5.1,5l5.6-4.9l-5.5-5.7L1104.4,39.9z M1112.2,40l-2.3,2.4l-2.6-2.7l2.6-2.4L1112.2,40z"/>
<polygon fill="#F5F5FA" points="1102.4,29.7 1098.1,33.4 1094.2,29.4 1089.9,33.5 1093.8,37.7 1098,34.3 1102.4,37.9 1106.6,34 "/>
<path fill="#F5F5FA" d="M1091.6,27.7l-4.6-5.3l-5.2,4.9l5.2,5.2L1091.6,27.7z M1084.3,27.1l2.6-2.5l2.3,2.8l-2.3,2.4L1084.3,27.1z"
	/>
<path fill="#F5F5FA" d="M1081.4,39.9l5,5l5.7-4.9l-5.5-5.7L1081.4,39.9z M1089.2,40l-2.3,2.4l-2.6-2.7l2.6-2.4L1089.2,40z"/>
<polygon fill="#F5F5FA" points="1079.4,29.1 1075.1,32.9 1071.2,28.8 1066.9,33 1070.8,37.1 1075,33.7 1079.4,37.3 1083.6,33.4 "/>
<polygon fill="#F5F5FA" points="1056.5,28.4 1052.3,32.2 1048.3,28.1 1044.1,32.3 1047.9,36.4 1052.1,33 1056.5,36.6 1060.7,32.7 
	"/>
<path fill="#F5F5FA" d="M1068.6,27.2l-4.6-5.4l-5.2,4.9l5.2,5.3L1068.6,27.2z M1061.2,26.6l2.6-2.5l2.4,2.7l-2.4,2.4L1061.2,26.6z"
	/>
<path fill="#F5F5FA" d="M1058.4,39.3l5,5l5.7-4.9l-5.6-5.7L1058.4,39.3z M1066.2,39.4l-2.4,2.4l-2.6-2.6l2.6-2.5L1066.2,39.4z"/>
<path fill="#F5F5FA" d="M1160.4,27.9l-5.3-5.4l-5.4,4.9l5.8,5.3L1160.4,27.9z M1152.7,27.1l2.6-2.5l2.4,2.8l-2.4,2.4L1152.7,27.1z"
	/>
<path fill="#F5F5FA" d="M1149.6,40.2l5.5,5.1l5-5.6l-5.2-4.9L1149.6,40.2z M1154.8,42.4l-2.6-2.7l2.6-2.4l2.3,2.7L1154.8,42.4z"/>
<polygon fill="#F5F5FA" points="1031.6,29.1 1027.3,32.8 1023.4,28.7 1019.1,32.9 1022.9,37.1 1027.2,33.7 1031.6,37.3 1035.7,33.3 
	"/>
<path fill="#F5F5FA" d="M1020.7,27.1l-4.5-5.4l-5.2,5l5.2,5.2L1020.7,27.1z M1013.4,26.5l2.6-2.5l2.3,2.7l-2.3,2.5L1013.4,26.5z"/>
<path fill="#F5F5FA" d="M1010.6,39.2l5,5.1l5.7-4.9l-5.6-5.7L1010.6,39.2z M1018.3,39.3l-2.3,2.5l-2.6-2.7l2.6-2.5L1018.3,39.3z"/>
<polygon fill="#F5F5FA" points="1009.1,29.1 1004.8,32.8 1000.9,28.7 996.6,32.9 1000.5,37.1 1004.7,33.7 1009.1,37.3 1013.3,33.3 
	"/>
<path fill="#F5F5FA" d="M998.3,27.1l-4.6-5.4l-5.2,5l5.2,5.2L998.3,27.1z M991,26.5l2.6-2.5l2.3,2.7l-2.3,2.5L991,26.5z"/>
<path fill="#F5F5FA" d="M988.1,39.2l5,5.1l5.7-4.9l-5.5-5.7L988.1,39.2z M995.9,39.3l-2.3,2.5l-2.6-2.7l2.6-2.5L995.9,39.3z"/>
<polygon fill="#F5F5FA" points="986.1,29.1 981.8,32.8 977.9,28.7 973.6,32.9 977.5,37.1 981.7,33.7 986.1,37.3 990.3,33.3 "/>
<path fill="#F5F5FA" d="M975.3,27.1l-4.6-5.4l-5.2,5l5.2,5.2L975.3,27.1z M967.9,26.5l2.6-2.5l2.4,2.7l-2.4,2.5L967.9,26.5z"/>
<path fill="#F5F5FA" d="M965.1,39.2l5,5.1l5.7-4.9l-5.6-5.7L965.1,39.2z M972.9,39.3l-2.4,2.5l-2.6-2.7l2.6-2.5L972.9,39.3z"/>
<polygon fill="#F5F5FA" points="963.1,28.5 958.8,32.2 954.9,28.2 950.6,32.4 954.4,36.5 958.7,33.1 963.1,36.7 967.2,32.8 "/>
<polygon fill="#F5F5FA" points="940.2,27.8 935.9,31.6 932,27.5 927.7,31.7 931.6,35.8 935.8,32.4 940.2,36 944.4,32.1 "/>
<path fill="#F5F5FA" d="M952.3,26.6l-4.6-5.4l-5.2,4.9l5.2,5.3L952.3,26.6z M944.9,26l2.6-2.5l2.4,2.7l-2.4,2.4L944.9,26z"/>
<path fill="#F5F5FA" d="M942.1,38.7l5,5l5.7-4.9l-5.6-5.7L942.1,38.7z M949.9,38.8l-2.4,2.4l-2.6-2.6l2.6-2.5L949.9,38.8z"/>
<path fill="#F5F5FA" d="M1033.4,26.8l5.8,5.3l4.8-4.8l-5.2-5.4L1033.4,26.8z M1041.3,26.7l-2.3,2.5l-2.6-2.7l2.6-2.5L1041.3,26.7z"
	/>
<path fill="#F5F5FA" d="M1033.3,39.6l5.5,5.1l5-5.6l-5.2-4.9L1033.3,39.6z M1038.5,41.8l-2.6-2.7l2.6-2.5l2.3,2.7L1038.5,41.8z"/>
<polygon fill="#F5F5FA" points="917.9,27.7 913.6,31.4 909.7,27.4 905.4,31.5 909.2,35.7 913.5,32.3 917.9,35.9 922,32 "/>
<path fill="#F5F5FA" d="M907.1,25.7l-4.6-5.3l-5.2,4.9l5.2,5.2L907.1,25.7z M899.7,25.1l2.6-2.5l2.3,2.8l-2.3,2.4L899.7,25.1z"/>
<path fill="#F5F5FA" d="M896.9,37.9l5,5l5.7-4.9l-5.6-5.7L896.9,37.9z M904.6,38l-2.3,2.4l-2.6-2.7l2.6-2.4L904.6,38z"/>
<polygon fill="#F5F5FA" points="895.4,27.7 891.2,31.4 887.2,27.4 883,31.5 886.8,35.7 891,32.3 895.4,35.9 899.6,32 "/>
<path fill="#F5F5FA" d="M884.6,25.7l-4.6-5.3l-5.1,4.9l5.1,5.2L884.6,25.7z M877.3,25.1l2.6-2.5l2.3,2.8l-2.3,2.4L877.3,25.1z"/>
<path fill="#F5F5FA" d="M874.4,37.9l5.1,5l5.6-4.9l-5.5-5.7L874.4,37.9z M882.2,38l-2.3,2.4l-2.6-2.7l2.6-2.4L882.2,38z"/>
<polygon fill="#F5F5FA" points="872.4,27.7 868.1,31.4 864.2,27.4 859.9,31.5 863.8,35.7 868,32.3 872.4,35.9 876.6,32 "/>
<path fill="#F5F5FA" d="M861.6,25.7l-4.6-5.3l-5.2,4.9l5.2,5.2L861.6,25.7z M854.3,25.1l2.6-2.5l2.3,2.8l-2.3,2.4L854.3,25.1z"/>
<path fill="#F5F5FA" d="M851.4,37.9l5,5l5.7-4.9l-5.5-5.7L851.4,37.9z M859.2,38l-2.3,2.4l-2.6-2.7l2.6-2.4L859.2,38z"/>
<polygon fill="#F5F5FA" points="849.4,27.1 845.1,30.9 841.2,26.8 836.9,31 840.8,35.1 845,31.7 849.4,35.3 853.6,31.4 "/>
<path fill="#F5F5FA" d="M838.6,25.2l-4.6-5.4l-5.2,4.9L834,30L838.6,25.2z M831.2,24.6l2.6-2.5l2.4,2.7l-2.4,2.4L831.2,24.6z"/>
<path fill="#F5F5FA" d="M828.4,37.3l5,5l5.7-4.9l-5.6-5.7L828.4,37.3z M836.2,37.4l-2.4,2.4l-2.6-2.6l2.6-2.5L836.2,37.4z"/>
<path fill="#F5F5FA" d="M930.4,25.9l-5.3-5.4l-5.4,4.9l5.8,5.3L930.4,25.9z M922.7,25.1l2.6-2.5l2.4,2.8l-2.4,2.4L922.7,25.1z"/>
<path fill="#F5F5FA" d="M919.6,38.2l5.5,5.1l5-5.6l-5.2-4.9L919.6,38.2z M924.8,40.4l-2.6-2.7l2.6-2.4l2.3,2.7L924.8,40.4z"/>
</svg>
