<?xml version="1.0" encoding="utf-8"?>
<!-- Generator: Adobe Illustrator 18.0.0, SVG Export Plug-In . SVG Version: 6.00 Build 0)  -->
<!DOCTYPE svg PUBLIC "-//W3C//DTD SVG 1.1//EN" "http://www.w3.org/Graphics/SVG/1.1/DTD/svg11.dtd">
<svg version="1.1" xmlns="http://www.w3.org/2000/svg" xmlns:xlink="http://www.w3.org/1999/xlink" x="0px" y="0px" width="1507px"
	 height="60.3px" viewBox="0 0 1507 60.3" enable-background="new 0 0 1507 60.3" xml:space="preserve">
<g id="Layer_1">
	<polygon fill="#202428" points="469.1,28.9 472.3,21.5 475.9,29.5 	"/>
	<polygon fill="#202428" points="476.3,29.2 480.1,21.8 483.2,29.2 	"/>
	<polygon fill="#202428" points="484.5,29 491.7,28.8 491.7,28.8 487.7,21.3 	"/>
	<polygon fill="#202428" points="492.2,28.8 499,29 495.8,21.9 	"/>
	<polygon fill="#202428" points="499.8,28.8 504.1,21.9 507,29.2 	"/>
	<polygon fill="#202428" points="508.1,28.1 511.7,20.9 514.6,27.9 	"/>
	<polygon fill="#202428" points="515.5,28.2 518.2,20.1 521.8,27.5 	"/>
	<polygon fill="#202428" points="522.3,27.9 524.6,20.8 528.5,28.2 	"/>
	<polygon fill="#202428" points="521.9,31.9 525.3,40.4 528.4,32.5 	"/>
	<polygon fill="#202428" points="520.9,32 517.9,40.5 515,31.6 	"/>
	<polygon fill="#202428" points="508.1,31.6 514.2,31.9 510.9,39.5 	"/>
	<polygon fill="#202428" points="507,32.8 499.7,32.9 503,40.5 	"/>
	<polygon fill="#202428" points="499.1,32.4 491.5,32.4 495.7,40.1 	"/>
	<polygon fill="#202428" points="491,32.4 483.4,32.4 487.3,40.9 	"/>
	<polygon fill="#202428" points="482.6,33 476.3,33.3 478.9,40.8 	"/>
	<polygon fill="#202428" points="475.3,33.3 468.6,33.3 471.3,40.8 	"/>
	<polygon fill="#202428" points="530.1,28.9 533.4,21.5 536.9,29.5 	"/>
	<polygon fill="#202428" points="537.4,29.2 541.2,21.8 544.2,29.2 	"/>
	<polygon fill="#202428" points="545.5,29 552.7,28.8 552.7,28.8 548.7,21.3 	"/>
	<polygon fill="#202428" points="553.2,28.8 560,29 556.8,21.9 	"/>
	<polygon fill="#202428" points="560.8,28.8 565.1,21.9 568,29.2 	"/>
	<polygon fill="#202428" points="569.1,29.2 572.7,21.9 575.7,29 	"/>
	<polygon fill="#202428" points="576.4,29.2 579.2,21.1 582.8,28.6 	"/>
	<polygon fill="#202428" points="583.3,29 585.6,21.9 589.6,29.2 	"/>
	<polygon fill="#202428" points="582.9,32.9 586.3,41.5 589.5,33.6 	"/>
	<polygon fill="#202428" points="581.9,33.1 579,41.5 576,32.7 	"/>
	<polygon fill="#202428" points="569.1,32.7 575.3,32.9 571.9,40.5 	"/>
	<polygon fill="#202428" points="568,32.8 560.8,32.9 564.1,40.5 	"/>
	<polygon fill="#202428" points="560.1,32.4 552.5,32.4 556.7,40.1 	"/>
	<polygon fill="#202428" points="552,32.4 544.5,32.4 548.3,40.9 	"/>
	<polygon fill="#202428" points="543.6,33 537.4,33.3 539.9,40.8 	"/>
	<polygon fill="#202428" points="536.3,33.3 529.7,33.3 532.4,40.8 	"/>
	<polygon fill="#202428" points="347.2,28.3 350.4,21 353.7,28.9 	"/>
	<polygon fill="#202428" points="354.3,28.6 358,21.1 361.1,28.6 	"/>
	<polygon fill="#202428" points="362.4,29 369.6,28.8 369.6,28.8 365.7,21.3 	"/>
	<polygon fill="#202428" points="370.2,28.8 377,29 373.9,21.9 	"/>
	<polygon fill="#202428" points="377.8,28.3 382,21.4 385,28.7 	"/>
	<polygon fill="#202428" points="386.1,28.1 389.7,20.9 392.6,27.9 	"/>
	<polygon fill="#202428" points="393.4,28.2 396.2,20.1 399.7,27.5 	"/>
	<polygon fill="#202428" points="400.2,27.9 402.6,20.8 406.5,28.2 	"/>
	<polygon fill="#202428" points="400,31.9 403.3,40.4 406.5,32.5 	"/>
	<polygon fill="#202428" points="399,32 395.8,40.5 393.1,31.6 	"/>
	<polygon fill="#202428" points="386.1,31.6 392.2,31.9 388.9,39.5 	"/>
	<polygon fill="#202428" points="385,32.3 377.6,32.4 381,40 	"/>
	<polygon fill="#202428" points="377.1,32.4 369.6,32.4 373.6,40.1 	"/>
	<polygon fill="#202428" points="369,32.4 361.4,32.4 365.3,40.9 	"/>
	<polygon fill="#202428" points="360.6,32.4 354.3,32.7 356.8,40.2 	"/>
	<polygon fill="#202428" points="353.1,32.7 346.6,32.8 349.3,40.3 	"/>
	<polygon fill="#202428" points="408.1,28.9 411.3,21.5 414.8,29.5 	"/>
	<polygon fill="#202428" points="415.3,29.2 419.1,21.8 422.1,29.2 	"/>
	<polygon fill="#202428" points="423.4,29 430.7,28.8 430.7,28.8 426.8,21.3 	"/>
	<polygon fill="#202428" points="431.1,28.8 438,29 434.8,21.9 	"/>
	<polygon fill="#202428" points="438.8,28.8 443,21.9 446,29.2 	"/>
	<polygon fill="#202428" points="447.1,29.2 450.7,21.9 453.6,29 	"/>
	<polygon fill="#202428" points="454.5,28.2 457.2,20.1 460.7,27.5 	"/>
	<polygon fill="#202428" points="461.2,27.9 463.6,20.8 467.5,28.2 	"/>
	<polygon fill="#202428" points="461,31.9 464.3,40.4 467.4,32.5 	"/>
	<polygon fill="#202428" points="459.9,32 456.8,40.5 454.1,31.6 	"/>
	<polygon fill="#202428" points="447.1,32.7 453.2,32.9 449.8,40.5 	"/>
	<polygon fill="#202428" points="446,32.8 438.6,32.9 442,40.5 	"/>
	<polygon fill="#202428" points="438.1,32.4 430.5,32.4 434.7,40.1 	"/>
	<polygon fill="#202428" points="630.1,28.8 633.3,21.5 636.8,29.4 	"/>
	<polygon fill="#202428" points="637.3,29.2 641.1,21.9 644,29.2 	"/>
	<polygon fill="#202428" points="645.4,29.6 652.6,29.2 652.6,29.2 648.6,21.9 	"/>
	<polygon fill="#202428" points="651.9,33.2 644.3,33.2 648.3,41.6 	"/>
	<polygon fill="#202428" points="643.6,33 637.3,33.2 639.8,40.7 	"/>
	<polygon fill="#202428" points="636.1,33.2 629.5,33.3 632.3,40.8 	"/>
	<polygon fill="#202428" points="592.1,28.8 598.9,29 595.7,21.9 	"/>
	<polygon fill="#202428" points="599.8,28.3 604,21.3 606.9,28.7 	"/>
	<polygon fill="#202428" points="608,28.6 611.7,21.3 614.5,28.4 	"/>
	<polygon fill="#202428" points="615.4,28.7 618.1,20.6 621.6,27.9 	"/>
	<polygon fill="#202428" points="622.2,28.4 624.5,21.2 628.5,28.7 	"/>
	<polygon fill="#202428" points="621.9,32.4 625.2,40.8 628.3,33 	"/>
	<polygon fill="#202428" points="620.8,32.5 617.8,40.9 614.9,32.1 	"/>
	<polygon fill="#202428" points="608,32.1 614.1,32.4 610.7,39.9 	"/>
	<polygon fill="#202428" points="606.9,32.2 599.6,32.4 603,39.9 	"/>
	<polygon fill="#202428" points="599,32.4 591.5,32.4 595.5,40.1 	"/>
	<polygon fill="#202428" points="865.6,29.7 869.9,22.8 872.7,30.1 	"/>
	<polygon fill="#202428" points="873.9,28.9 877.5,21.7 880.4,28.8 	"/>
	<polygon fill="#202428" points="881.2,29 883.9,20.9 887.5,28.3 	"/>
	<polygon fill="#202428" points="888.1,28.8 890.3,21.6 894.3,29 	"/>
	<polygon fill="#202428" points="887.7,32.7 891,41.2 894.2,33.4 	"/>
	<polygon fill="#202428" points="886.7,32.8 883.6,41.3 880.8,32.4 	"/>
	<polygon fill="#202428" points="873.9,32.4 880,32.7 876.6,40.3 	"/>
	<polygon fill="#202428" points="872.7,33.7 865.5,33.7 868.8,41.4 	"/>
	<polygon fill="#202428" points="895.9,29.7 899.2,22.4 902.6,30.3 	"/>
	<polygon fill="#202428" points="903.1,30.1 906.9,22.6 909.9,30.1 	"/>
	<polygon fill="#202428" points="911.2,29.9 918.5,29.6 918.5,29.6 914.5,22.2 	"/>
	<polygon fill="#202428" points="919,29 925.7,29.2 922.6,22.1 	"/>
	<polygon fill="#202428" points="926.6,29.1 930.9,22.2 933.8,29.6 	"/>
	<polygon fill="#202428" points="934.9,29.4 938.4,22.2 941.4,29.2 	"/>
	<polygon fill="#202428" points="942.2,29.6 944.9,21.4 948.6,28.8 	"/>
	<polygon fill="#202428" points="949.1,28.7 951.4,21.5 955.4,28.9 	"/>
	<polygon fill="#202428" points="948.7,32.6 952.1,41.1 955.2,33.3 	"/>
	<polygon fill="#202428" points="947.7,33.4 944.7,41.8 941.8,32.9 	"/>
	<polygon fill="#202428" points="934.9,32.9 941,33.2 937.6,40.8 	"/>
	<polygon fill="#202428" points="933.8,33.1 926.5,33.2 929.9,40.8 	"/>
	<polygon fill="#202428" points="925.9,32.8 918.3,32.8 922.4,40.4 	"/>
	<polygon fill="#202428" points="917.8,33.3 910.2,33.3 914.1,41.8 	"/>
	<polygon fill="#202428" points="909.4,33.8 903.1,34.1 905.6,41.6 	"/>
	<polygon fill="#202428" points="902,34.1 895.4,34.2 898.1,41.7 	"/>
	<polygon fill="#202428" points="995.8,28.7 999,21.4 1002.5,29.2 	"/>
	<polygon fill="#202428" points="1003,29.2 1006.8,21.7 1009.8,29.2 	"/>
	<polygon fill="#202428" points="1011.1,29.4 1018.4,29.1 1018.4,29.1 1014.4,21.7 	"/>
	<polygon fill="#202428" points="1018.9,29.1 1025.7,29.4 1022.5,22.2 	"/>
	<polygon fill="#202428" points="1026.5,29.2 1030.8,22.3 1033.7,29.6 	"/>
	<polygon fill="#202428" points="1034.8,29.5 1038.3,22.3 1041.3,29.4 	"/>
	<polygon fill="#202428" points="1042.1,29.2 1044.9,21 1048.5,28.5 	"/>
	<polygon fill="#202428" points="1048.9,29 1051.2,21.8 1055.2,29.2 	"/>
	<polygon fill="#202428" points="1048.6,32.8 1052,41.4 1055.2,33.5 	"/>
	<polygon fill="#202428" points="1047.6,33.1 1044.6,41.5 1041.7,32.7 	"/>
	<polygon fill="#202428" points="1034.8,33.1 1041,33.3 1037.6,40.8 	"/>
	<polygon fill="#202428" points="1033.7,33.1 1026.4,33.3 1029.8,40.8 	"/>
	<polygon fill="#202428" points="1025.8,33.1 1018.2,33.1 1022.3,40.7 	"/>
	<polygon fill="#202428" points="1017.7,33.1 1010.1,33.1 1014,41.5 	"/>
	<polygon fill="#202428" points="1009.3,32.8 1003,33.1 1005.6,40.5 	"/>
	<polygon fill="#202428" points="1001.9,33.1 995.3,33.1 998.1,40.6 	"/>
	<polygon fill="#202428" points="1056.8,28.8 1060.1,21.5 1063.5,29.4 	"/>
	<polygon fill="#202428" points="1064,28.8 1067.7,21.3 1070.9,28.8 	"/>
	<polygon fill="#202428" points="1072.1,29.6 1079.4,29.2 1079.4,29.2 1075.4,21.9 	"/>
	<polygon fill="#202428" points="1079.9,28.8 1086.7,29.2 1083.6,21.9 	"/>
	<polygon fill="#202428" points="1087.5,28.9 1091.8,22 1094.7,29.3 	"/>
	<polygon fill="#202428" points="1095.8,29.2 1099.4,22 1102.4,29.2 	"/>
	<polygon fill="#202428" points="1103.1,28.9 1105.9,20.9 1109.4,28.3 	"/>
	<polygon fill="#202428" points="1110,28.8 1112.3,21.5 1116.3,28.9 	"/>
	<polygon fill="#202428" points="1109.7,32.6 1113,41.1 1116.2,33.3 	"/>
	<polygon fill="#202428" points="1108.7,32.8 1105.6,41.1 1102.7,32.4 	"/>
	<polygon fill="#202428" points="1095.8,32.8 1101.9,33 1098.6,40.5 	"/>
	<polygon fill="#202428" points="1094.7,32.8 1087.4,33 1090.7,40.5 	"/>
	<polygon fill="#202428" points="1086.9,32.9 1079.3,32.9 1083.3,40.5 	"/>
	<polygon fill="#202428" points="1117.2,28.9 1123.9,29.2 1120.8,22 	"/>
	<polygon fill="#202428" points="1124.8,29.1 1129.1,22.2 1131.9,29.5 	"/>
	<polygon fill="#202428" points="1133.1,29.3 1136.7,22.2 1139.6,29.2 	"/>
	<polygon fill="#202428" points="1140.4,29.5 1143.1,21.4 1146.7,28.8 	"/>
	<polygon fill="#202428" points="1147.3,29.2 1149.5,22 1153.5,29.5 	"/>
	<polygon fill="#202428" points="1146.9,33.1 1150.3,41.6 1153.4,33.7 	"/>
	<polygon fill="#202428" points="1145.9,33.3 1142.8,41.7 1140,32.9 	"/>
	<polygon fill="#202428" points="1133.1,32.9 1139.2,33.1 1135.8,40.7 	"/>
	<polygon fill="#202428" points="1131.9,33 1124.7,33.1 1128,40.7 	"/>
	<polygon fill="#202428" points="1124.1,33.2 1116.5,33.2 1120.6,40.8 	"/>
	<polygon fill="#202428" points="1078.7,33.3 1071.1,33.3 1075,41.8 	"/>
	<polygon fill="#202428" points="1070.4,33 1064,33.2 1066.6,40.7 	"/>
	<polygon fill="#202428" points="1062.9,33.2 1056.3,33.3 1059.1,40.8 	"/>
	<polygon fill="#202428" points="957.8,28.4 964.6,28.7 961.4,21.5 	"/>
	<polygon fill="#202428" points="965.5,28.5 969.7,21.5 972.6,28.9 	"/>
	<polygon fill="#202428" points="973.8,28.8 977.4,21.5 980.2,28.7 	"/>
	<polygon fill="#202428" points="981.2,28.9 983.8,20.8 987.4,28.3 	"/>
	<polygon fill="#202428" points="987.9,28.3 990.2,21.1 994.2,28.6 	"/>
	<polygon fill="#202428" points="987.6,32.2 990.9,40.7 994.1,32.8 	"/>
	<polygon fill="#202428" points="986.5,32.8 983.5,41.1 980.7,32.4 	"/>
	<polygon fill="#202428" points="1169.8,29.9 1173,22.6 1176.4,30.5 	"/>
	<polygon fill="#202428" points="1176.9,30.4 1180.7,22.9 1183.7,30.4 	"/>
	<polygon fill="#202428" points="1185.1,30.6 1192.3,30.3 1192.3,30.3 1188.4,22.9 	"/>
	<polygon fill="#202428" points="1192.8,30.3 1199.7,30.6 1196.5,23.4 	"/>
	<polygon fill="#202428" points="1200.4,30.5 1204.7,23.5 1207.7,30.8 	"/>
	<polygon fill="#202428" points="1208.8,30.7 1212.3,23.5 1215.2,30.6 	"/>
	<polygon fill="#202428" points="1216.1,30.5 1218.9,22.3 1222.4,29.7 	"/>
	<polygon fill="#202428" points="1222.8,30.2 1225.2,23 1229.1,30.5 	"/>
	<polygon fill="#202428" points="1222.6,34.1 1225.9,42.6 1229.1,34.7 	"/>
	<polygon fill="#202428" points="1221.6,34.3 1218.5,42.7 1215.7,33.9 	"/>
	<polygon fill="#202428" points="1208.8,34.3 1214.9,34.5 1211.5,42 	"/>
	<polygon fill="#202428" points="1207.7,34.3 1200.3,34.5 1203.7,42 	"/>
	<polygon fill="#202428" points="1199.7,34.3 1192.2,34.3 1196.3,41.9 	"/>
	<polygon fill="#202428" points="1191.7,34.3 1184.1,34.3 1188,42.7 	"/>
	<polygon fill="#202428" points="1183.2,34.1 1176.9,34.3 1179.5,41.8 	"/>
	<polygon fill="#202428" points="1175.8,34.3 1169.3,34.3 1172,41.9 	"/>
	<polygon fill="#202428" points="1230.7,30.1 1234,22.8 1237.5,30.6 	"/>
	<polygon fill="#202428" points="1238,30 1241.7,22.5 1244.8,30 	"/>
	<polygon fill="#202428" points="1246.1,30.8 1253.3,30.5 1253.3,30.5 1249.4,23.1 	"/>
	<polygon fill="#202428" points="1253.8,30.1 1260.7,30.4 1257.5,23.1 	"/>
	<polygon fill="#202428" points="1261.5,30.1 1265.7,23.3 1268.7,30.6 	"/>
	<polygon fill="#202428" points="1269.7,30.5 1273.4,23.3 1276.3,30.4 	"/>
	<polygon fill="#202428" points="1277.1,30.1 1279.9,22.1 1283.4,29.5 	"/>
	<polygon fill="#202428" points="1283.9,30 1286.3,22.8 1290.2,30.1 	"/>
	<polygon fill="#202428" points="1283.6,33.8 1286.9,42.4 1290.1,34.5 	"/>
	<polygon fill="#202428" points="1282.6,34 1279.5,42.4 1276.7,33.7 	"/>
	<polygon fill="#202428" points="1269.7,34 1275.9,34.2 1272.5,41.8 	"/>
	<polygon fill="#202428" points="1268.7,34.1 1261.3,34.2 1264.7,41.8 	"/>
	<polygon fill="#202428" points="1260.8,34.2 1253.2,34.2 1257.3,41.8 	"/>
	<polygon fill="#202428" points="1291.1,30.1 1297.9,30.5 1294.8,23.3 	"/>
	<polygon fill="#202428" points="1298.7,30.3 1303,23.4 1305.9,30.7 	"/>
	<polygon fill="#202428" points="1307.1,30.6 1310.6,23.4 1313.6,30.5 	"/>
	<polygon fill="#202428" points="1314.3,30.7 1317.1,22.6 1320.6,30 	"/>
	<polygon fill="#202428" points="1321.2,30.5 1323.5,23.3 1327.5,30.7 	"/>
	<polygon fill="#202428" points="1320.9,34.3 1324.2,42.8 1327.4,35 	"/>
	<polygon fill="#202428" points="1319.9,34.6 1316.8,42.9 1314,34.2 	"/>
	<polygon fill="#202428" points="1307.1,34.2 1313.1,34.3 1309.8,41.9 	"/>
	<polygon fill="#202428" points="1305.9,34.2 1298.6,34.3 1301.9,41.9 	"/>
	<polygon fill="#202428" points="1298.1,34.4 1290.5,34.4 1294.5,42 	"/>
	<polygon fill="#202428" points="1328.9,30.6 1333.1,23.7 1336,31 	"/>
	<polygon fill="#202428" points="1337.1,30.9 1340.8,23.7 1343.7,30.8 	"/>
	<polygon fill="#202428" points="1344.5,30.6 1347.2,22.5 1350.8,29.9 	"/>
	<polygon fill="#202428" points="1351.3,30.4 1353.6,23.2 1357.6,30.6 	"/>
	<polygon fill="#202428" points="1351,34.2 1354.3,42.8 1357.5,34.9 	"/>
	<polygon fill="#202428" points="1350,34.4 1346.9,42.8 1344,34.1 	"/>
	<polygon fill="#202428" points="1337.1,34.4 1343.3,34.6 1339.9,42.2 	"/>
	<polygon fill="#202428" points="1336,34.5 1328.7,34.6 1332.1,42.2 	"/>
	<polygon fill="#202428" points="1358.5,30.6 1365.3,30.9 1362.2,23.7 	"/>
	<polygon fill="#202428" points="1366.1,30.7 1370.4,23.8 1373.3,31.1 	"/>
	<polygon fill="#202428" points="1374.5,31 1378,23.8 1380.9,30.9 	"/>
	<polygon fill="#202428" points="1381.7,31.1 1384.5,23 1388,30.4 	"/>
	<polygon fill="#202428" points="1388.6,30.9 1390.9,23.7 1394.8,31.1 	"/>
	<polygon fill="#202428" points="1388.3,34.7 1391.6,43.3 1394.8,35.4 	"/>
	<polygon fill="#202428" points="1387.3,35 1384.1,43.3 1381.4,34.6 	"/>
	<polygon fill="#202428" points="1396,31.1 1398.8,23 1402.3,30.4 	"/>
	<polygon fill="#202428" points="1402.9,30.9 1405.2,23.7 1409.2,31.1 	"/>
	<polygon fill="#202428" points="1402.6,34.7 1406,43.3 1409.1,35.4 	"/>
	<polygon fill="#202428" points="1401.6,35 1398.5,43.3 1395.7,34.6 	"/>
	<polygon fill="#202428" points="1374.5,34.6 1380.5,34.7 1377.2,42.4 	"/>
	<polygon fill="#202428" points="1373.3,34.6 1366,34.7 1369.3,42.4 	"/>
	<polygon fill="#202428" points="1365.4,34.8 1357.9,34.8 1361.9,42.4 	"/>
	<polygon fill="#202428" points="1411,30.8 1413.3,23.6 1417.3,31 	"/>
	<polygon fill="#202428" points="1410.7,34.6 1414,43.2 1417.2,35.3 	"/>
	<polygon fill="#202428" points="1418.2,31 1425,31.3 1421.9,24.1 	"/>
	<polygon fill="#202428" points="1425.8,31.1 1430.1,24.2 1433,31.5 	"/>
	<polygon fill="#202428" points="1434.2,31.4 1437.7,24.2 1440.6,31.3 	"/>
	<polygon fill="#202428" points="1441.4,31.5 1444.2,23.4 1447.7,30.8 	"/>
	<polygon fill="#202428" points="1448.3,31.3 1450.6,24.1 1454.5,31.5 	"/>
	<polygon fill="#202428" points="1448,35.1 1451.3,43.7 1454.5,35.8 	"/>
	<polygon fill="#202428" points="1447,35.4 1443.8,43.7 1441.1,35 	"/>
	<polygon fill="#202428" points="1455.7,31.5 1458.5,23.4 1462,30.8 	"/>
	<polygon fill="#202428" points="1462.6,31.3 1464.9,24.1 1468.9,31.5 	"/>
	<polygon fill="#202428" points="1462.3,35.1 1465.7,43.7 1468.8,35.8 	"/>
	<polygon fill="#202428" points="1461.3,35.4 1458.2,43.7 1455.4,35 	"/>
	<polygon fill="#202428" points="1470.9,31.5 1473.7,23.4 1477.2,30.8 	"/>
	<polygon fill="#202428" points="1477.8,31.3 1480.1,24.1 1484,31.5 	"/>
	<polygon fill="#202428" points="1477.5,35.1 1480.8,43.7 1484,35.8 	"/>
	<polygon fill="#202428" points="1476.5,35.4 1473.3,43.7 1470.6,35 	"/>
	<polygon fill="#202428" points="1485.2,31.5 1488,23.4 1491.5,30.8 	"/>
	<polygon fill="#202428" points="1492.1,31.3 1494.4,24.1 1498.4,31.5 	"/>
	<polygon fill="#202428" points="1491.8,35.1 1495.2,43.7 1498.3,35.8 	"/>
	<polygon fill="#202428" points="1499.1,31.3 1501.4,24.1 1505.4,31.5 	"/>
	<polygon fill="#202428" points="1498.8,35.1 1502.2,43.7 1505.3,35.8 	"/>
	<polygon fill="#202428" points="1490.8,35.4 1487.7,43.7 1484.9,35 	"/>
	<polygon fill="#202428" points="1434.2,35 1440.2,35.1 1436.9,42.8 	"/>
	<polygon fill="#202428" points="1433,35 1425.7,35.1 1429,42.8 	"/>
	<polygon fill="#202428" points="1425.1,35.2 1417.6,35.2 1421.6,42.8 	"/>
	<polygon fill="#202428" points="1252.6,34.6 1245.1,34.6 1248.9,43 	"/>
	<polygon fill="#202428" points="1244.3,34.2 1238,34.4 1240.5,41.9 	"/>
	<polygon fill="#202428" points="1236.9,34.4 1230.2,34.5 1233,42 	"/>
	<polygon fill="#202428" points="1155.1,30.1 1157.8,22 1161.3,29.5 	"/>
	<polygon fill="#202428" points="1161.8,29.5 1164.2,22.4 1168.2,29.8 	"/>
	<polygon fill="#202428" points="1161.5,33.4 1164.9,41.9 1168.1,34.1 	"/>
	<polygon fill="#202428" points="1160.5,34 1157.5,42.4 1154.7,33.6 	"/>
	<polygon fill="#202428" points="973.8,32.4 979.9,32.6 976.5,40.1 	"/>
	<polygon fill="#202428" points="972.6,32.4 965.3,32.6 968.7,40.1 	"/>
	<polygon fill="#202428" points="964.7,32.1 957.2,32.1 961.3,39.8 	"/>
	<polygon fill="#202428" points="430,32.4 422.5,32.4 426.3,40.9 	"/>
	<polygon fill="#202428" points="421.6,33 415.3,33.3 417.8,40.8 	"/>
	<polygon fill="#202428" points="414.2,33.3 407.6,33.3 410.3,40.8 	"/>
	<polygon fill="#202428" points="224.5,29.6 227.8,22.3 231.2,30.1 	"/>
	<polygon fill="#202428" points="231.7,29.2 235.5,21.7 238.5,29.2 	"/>
	<polygon fill="#202428" points="239.8,29.5 247.1,29.2 247.1,29.2 243.1,21.8 	"/>
	<polygon fill="#202428" points="247.6,28.2 254.3,28.4 251.2,21.2 	"/>
	<polygon fill="#202428" points="255.2,28.3 259.5,21.3 262.4,28.7 	"/>
	<polygon fill="#202428" points="263.5,28.6 267,21.3 270,28.4 	"/>
	<polygon fill="#202428" points="270.8,28.7 273.5,20.6 277.2,28 	"/>
	<polygon fill="#202428" points="277.7,27.9 280,20.7 284,28.2 	"/>
	<polygon fill="#202428" points="277.3,31.8 280.7,40.4 283.8,32.5 	"/>
	<polygon fill="#202428" points="276.3,32.5 273.3,40.9 270.4,32.1 	"/>
	<polygon fill="#202428" points="263.5,32.1 269.6,32.3 266.2,39.9 	"/>
	<polygon fill="#202428" points="262.4,32.2 255.1,32.3 258.5,39.9 	"/>
	<polygon fill="#202428" points="254.5,32.2 246.9,32.2 251,39.8 	"/>
	<polygon fill="#202428" points="246.4,32.9 238.8,32.9 242.7,41.4 	"/>
	<polygon fill="#202428" points="238,33.2 231.7,33.3 234.2,40.9 	"/>
	<polygon fill="#202428" points="230.6,33.8 224,34 226.7,41.5 	"/>
	<polygon fill="#202428" points="285.5,28.8 288.8,21.5 292.2,29.4 	"/>
	<polygon fill="#202428" points="292.7,29.1 296.5,21.6 299.6,29.1 	"/>
	<polygon fill="#202428" points="300.9,29 308.1,28.8 308.1,28.8 304.1,21.3 	"/>
	<polygon fill="#202428" points="308.6,28.8 315.4,29 312.2,21.8 	"/>
	<polygon fill="#202428" points="316.2,27.8 320.5,20.9 323.4,28.2 	"/>
	<polygon fill="#202428" points="324.6,28.1 328.1,20.9 331,27.9 	"/>
	<polygon fill="#202428" points="331.9,28.2 334.6,20.1 338.1,27.5 	"/>
	<polygon fill="#202428" points="338.6,27.9 341,20.8 345,28.2 	"/>
	<polygon fill="#202428" points="338.3,31.9 341.7,40.4 344.8,32.5 	"/>
	<polygon fill="#202428" points="337.3,32 334.3,40.5 331.4,31.6 	"/>
	<polygon fill="#202428" points="324.6,31.6 330.6,31.9 327.3,39.5 	"/>
	<polygon fill="#202428" points="323.4,31.8 316.1,31.9 319.4,39.5 	"/>
	<polygon fill="#202428" points="315.5,32.9 308,32.9 312,40.6 	"/>
	<polygon fill="#202428" points="307.4,32.9 299.9,32.9 303.7,41.4 	"/>
	<polygon fill="#202428" points="299.1,32.9 292.7,33.2 295.3,40.7 	"/>
	<polygon fill="#202428" points="291.6,33.2 285.1,33.3 287.8,40.8 	"/>
	<polygon fill="#202428" points="102.4,27.7 105.7,20.4 109.2,28.3 	"/>
	<polygon fill="#202428" points="109.7,27.8 113.4,20.3 116.5,27.8 	"/>
	<polygon fill="#202428" points="117.8,28.3 125,28.1 125,28.1 121.1,20.6 	"/>
	<polygon fill="#202428" points="125.5,27.8 132.3,28.1 129.1,20.9 	"/>
	<polygon fill="#202428" points="133.1,27.9 137.4,21 140.4,28.3 	"/>
	<polygon fill="#202428" points="141.4,28.3 145.1,21 148,28.1 	"/>
	<polygon fill="#202428" points="148.8,28.3 151.6,20.2 155.1,27.6 	"/>
	<polygon fill="#202428" points="155.6,28.1 157.9,20.9 161.9,28.3 	"/>
	<polygon fill="#202428" points="155.3,31.9 158.6,40.5 161.8,32.7 	"/>
	<polygon fill="#202428" points="154.3,32.1 151.2,40.5 148.4,31.8 	"/>
	<polygon fill="#202428" points="141.4,31.8 147.6,31.9 144.2,39.6 	"/>
	<polygon fill="#202428" points="140.4,31.9 133,31.9 136.4,39.6 	"/>
	<polygon fill="#202428" points="132.5,32.1 124.9,32.1 129,39.7 	"/>
	<polygon fill="#202428" points="124.3,32.4 116.8,32.4 120.6,40.7 	"/>
	<polygon fill="#202428" points="116,31.8 109.7,32 112.2,39.5 	"/>
	<polygon fill="#202428" points="108.6,32 101.9,32.1 104.7,39.6 	"/>
	<polygon fill="#202428" points="163.5,29 166.7,21.7 170.2,29.6 	"/>
	<polygon fill="#202428" points="170.7,29.5 174.4,22 177.5,29.5 	"/>
	<polygon fill="#202428" points="178.8,29.7 186,29.4 186,29.4 182,21.9 	"/>
	<polygon fill="#202428" points="186.6,28.9 193.3,29.2 190.2,21.9 	"/>
	<polygon fill="#202428" points="194.2,28.4 198.5,21.5 201.4,28.8 	"/>
	<polygon fill="#202428" points="202.5,28.8 206.1,21.5 209,28.7 	"/>
	<polygon fill="#202428" points="209.8,28.8 212.5,20.7 216.1,28.2 	"/>
	<polygon fill="#202428" points="216.7,28.7 218.9,21.5 222.9,28.8 	"/>
	<polygon fill="#202428" points="216.3,32.5 219.7,41 222.8,33.3 	"/>
	<polygon fill="#202428" points="215.3,32.7 212.3,41.1 209.4,32.3 	"/>
	<polygon fill="#202428" points="202.5,32.3 208.6,32.5 205.2,40.1 	"/>
	<polygon fill="#202428" points="201.4,32.4 194.1,32.5 197.5,40.1 	"/>
	<polygon fill="#202428" points="193.5,32.8 185.9,32.8 190,40.4 	"/>
	<polygon fill="#202428" points="185.3,33.4 177.8,33.4 181.7,41.8 	"/>
	<polygon fill="#202428" points="177,33.1 170.7,33.3 173.2,40.8 	"/>
	<polygon fill="#202428" points="169.6,33.3 162.9,33.4 165.7,41 	"/>
	<polygon fill="#202428" points="2.2,27.3 5.9,19.8 9,27.3 	"/>
	<polygon fill="#202428" points="10.3,27.8 17.5,27.6 17.5,27.6 13.6,20.1 	"/>
	<polygon fill="#202428" points="18,27.3 24.8,27.6 21.6,20.4 	"/>
	<polygon fill="#202428" points="25.6,27.4 29.9,20.5 32.9,27.8 	"/>
	<polygon fill="#202428" points="33.9,27.8 37.6,20.5 40.5,27.6 	"/>
	<polygon fill="#202428" points="41.3,27.8 44.1,19.7 47.6,27.1 	"/>
	<polygon fill="#202428" points="48.1,27.6 50.4,20.4 54.4,27.8 	"/>
	<polygon fill="#202428" points="47.8,31.4 51.1,40 54.3,32.2 	"/>
	<polygon fill="#202428" points="46.8,31.6 43.7,40 40.9,31.3 	"/>
	<polygon fill="#202428" points="33.9,31.3 40.1,31.4 36.7,39.1 	"/>
	<polygon fill="#202428" points="32.9,31.4 25.5,31.4 28.9,39.1 	"/>
	<polygon fill="#202428" points="25,31.6 17.4,31.6 21.5,39.2 	"/>
	<polygon fill="#202428" points="16.8,31.9 9.3,31.9 13.1,40.2 	"/>
	<polygon fill="#202428" points="8.5,31.3 2.2,31.5 4.7,39 	"/>
	<polygon fill="#202428" points="56,28.5 59.2,21.2 62.7,29.1 	"/>
	<polygon fill="#202428" points="63.2,29 66.9,21.5 70,29 	"/>
	<polygon fill="#202428" points="71.3,29.2 78.5,28.9 78.5,28.9 74.5,21.4 	"/>
	<polygon fill="#202428" points="79.1,28.4 85.8,28.7 82.7,21.4 	"/>
	<polygon fill="#202428" points="86.7,27.9 91,21 93.9,28.3 	"/>
	<polygon fill="#202428" points="95,28.3 98.6,21 101.5,28.2 	"/>
	<polygon fill="#202428" points="95,31.8 101.1,32 97.7,39.6 	"/>
	<polygon fill="#202428" points="93.9,31.9 86.6,32 90,39.6 	"/>
	<polygon fill="#202428" points="86,32.3 78.4,32.3 82.5,39.9 	"/>
	<polygon fill="#202428" points="77.8,32.9 70.3,32.9 74.2,41.3 	"/>
	<polygon fill="#202428" points="69.5,32.6 63.2,32.8 65.7,40.3 	"/>
	<polygon fill="#202428" points="62.1,32.8 55.4,32.9 58.2,40.5 	"/>
	<g id="Layer_3" display="none">
		<polygon display="inline" fill="#050505" points="668.9,28.8 673.9,20.4 677.4,29.3 		"/>
		<polygon display="inline" fill="#050505" points="678.8,29.1 683,20.4 686.5,29.1 		"/>
		<polygon display="inline" fill="#050505" points="687.4,29.3 690.7,19.3 694.9,28.4 		"/>
		<polygon display="inline" fill="#050505" points="695.5,29.1 698.3,20.2 703,29.3 		"/>
		<polygon display="inline" fill="#050505" points="695.2,33.8 699.2,44.1 702.9,34.6 		"/>
		<polygon display="inline" fill="#050505" points="694,34 690.3,44.2 687,33.5 		"/>
		<polygon display="inline" fill="#050505" points="678.8,33.5 686,33.8 682,43 		"/>
		<polygon display="inline" fill="#050505" points="677.4,33.6 668.7,33.8 672.7,43 		"/>
		<polygon display="inline" fill="#050505" points="704.9,28.8 708.7,19.9 712.9,29.5 		"/>
		<polygon display="inline" fill="#050505" points="713.4,27.3 717.9,18.2 721.5,27.3 		"/>
		<polygon display="inline" fill="#050505" points="723.1,28.3 731.7,27.9 731.7,27.9 727,18.9 		"/>
		<polygon display="inline" fill="#050505" points="732.2,27.9 740.3,28.3 736.6,19.4 		"/>
		<polygon display="inline" fill="#050505" points="741.3,28 746.3,19.6 749.8,28.5 		"/>
		<polygon display="inline" fill="#050505" points="751.2,28.3 755.4,19.6 758.9,28.3 		"/>
		<polygon display="inline" fill="#050505" points="759.9,28.5 763.1,18.6 767.4,27.6 		"/>
		<polygon display="inline" fill="#050505" points="767.9,28.3 770.7,19.4 775.4,28.5 		"/>
		<polygon display="inline" fill="#050505" points="767.6,33 771.6,43.3 775.3,33.8 		"/>
		<polygon display="inline" fill="#050505" points="766.4,33.2 762.7,43.4 759.4,32.7 		"/>
		<polygon display="inline" fill="#050505" points="751.2,32.7 758.4,33 754.5,42.2 		"/>
		<polygon display="inline" fill="#050505" points="749.8,32.8 741.1,33 745.1,42.2 		"/>
		<polygon display="inline" fill="#050505" points="740.5,32.9 731.5,32.9 736.4,42.2 		"/>
		<polygon display="inline" fill="#050505" points="776.5,28.5 784.6,28.9 780.8,20.1 		"/>
		<polygon display="inline" fill="#050505" points="785.5,28.7 790.6,20.2 794.1,29.1 		"/>
		<polygon display="inline" fill="#050505" points="795.4,29 799.6,20.2 803.1,28.9 		"/>
		<polygon display="inline" fill="#050505" points="804.1,29.1 807.4,19.3 811.6,28.3 		"/>
		<polygon display="inline" fill="#050505" points="812.2,28.9 814.9,20.1 819.6,29.1 		"/>
		<polygon display="inline" fill="#050505" points="811.8,33.6 815.8,44 819.5,34.4 		"/>
		<polygon display="inline" fill="#050505" points="810.6,33.8 807,44 803.6,33.4 		"/>
		<polygon display="inline" fill="#050505" points="795.4,33.4 802.7,33.6 798.7,42.8 		"/>
		<polygon display="inline" fill="#050505" points="794.1,33.4 785.4,33.6 789.4,42.8 		"/>
		<polygon display="inline" fill="#050505" points="784.7,33.7 775.7,33.7 780.6,43 		"/>
		<polygon display="inline" fill="#050505" points="730.9,32.9 721.9,32.9 726.5,43.2 		"/>
		<polygon display="inline" fill="#050505" points="720.9,32.5 713.4,32.7 716.4,41.9 		"/>
		<polygon display="inline" fill="#050505" points="712.1,34.2 704.3,34.2 707.5,43.4 		"/>
		<polygon display="inline" fill="#050505" points="821.5,29.3 825.3,20.4 829.4,30 		"/>
		<polygon display="inline" fill="#050505" points="830,29.7 834.4,20.6 838.1,29.7 		"/>
		<polygon display="inline" fill="#050505" points="839.6,29.5 848.2,29.1 848.2,29.1 843.5,20.1 		"/>
		<polygon display="inline" fill="#050505" points="847.4,33.7 838.4,33.7 843.1,44 		"/>
		<polygon display="inline" fill="#050505" points="837.5,34.3 830,34.6 833,43.8 		"/>
		<polygon display="inline" fill="#050505" points="828.7,34.6 820.8,34.7 824.1,43.9 		"/>
	</g>
</g>
<g id="Layer_2_1_" display="none">
	<g id="Layer_2" display="inline">
		<text transform="matrix(1 0 0 1 674.1696 43.5906)" fill="#FF6200" font-family="'BlissPro-Bold'" font-size="39.9854">NOW ON</text>
	</g>
</g>
<g id="Layer_3_1_">
	<g>
		<path fill="#202428" d="M751.5,34.6c-0.6,0.7-1.2,1.2-1.7,1.8c-0.7,0.8-1.4,1.6-2.1,2.4c-1,1-2,1.9-3,2.9
			c-0.9,0.9-2.7,0.9-3.8,0.2c-1.1-0.8-1.5-1.8-1.6-3c-0.1-1.8,0.2-3.6,0.6-5.4c0.3-1.3,0.6-2.7,0.9-4c0.4-1.5,0.7-3.1,1.5-4.4
			c0.4-0.8,0.9-1.6,1.7-1.9c0.3-0.1,0.6-0.2,0.8-0.2c2,0.1,2.9,2.6,2.3,4c-0.8,1.8-1.2,3.7-1.7,5.6c-0.1,0.3-0.1,0.7-0.2,1
			c0.1,0,0.1,0,0.2,0.1c0.4-0.4,0.8-0.9,1.2-1.3c0.8-0.9,1.5-1.9,2.5-2.5c0.4-0.2,0.7-0.4,1.1-0.5c1.9-0.3,3.1-0.2,4.3,1.5
			c0.8,1.1,1.5,2.3,2.3,3.4c1.3,1.9,2.6,3.8,4.6,5.1c0.1,0.1,0.3,0.2,0.4,0.3c0.6,0.3,0.9,0.3,1.3-0.3c1-1.5,1.9-3,2.7-4.6
			c2.1-4.2,3.7-8.5,5.3-12.9c0.2-0.6,0.5-1.1,0.9-1.5c0.4-0.4,0.8-0.5,1.2-0.4c0.2,0,0.4,0.1,0.5,0.1c1-0.1,1.6,0.5,2.1,1.1
			c0.6,0.8,0.6,1.7,0.2,2.6c-0.8,2.2-1.7,4.4-2.5,6.6c-0.3,0.9-0.7,1.8-1.1,2.7c-0.5,1.1-0.9,2.2-1.4,3.2c-1.1,2.4-2.4,4.6-4,6.7
			c-1,1.3-2.4,1.8-4,1.6c-1.7-0.1-3.1-0.8-4.5-1.7c-2.6-1.9-4.7-4.3-6.5-7.1C752.1,35.4,751.8,35.1,751.5,34.6z"/>
		<path fill="#202428" d="M683.3,24.3c-0.2,0.8-0.3,1.4-0.4,2.1c-0.2,1.5-0.4,2.9-0.5,4.4c-0.2,1.8-0.3,3.7-0.4,5.5
			c-0.1,1.4-0.1,2.8-0.2,4.2c0,0.4-0.4,0.7-0.7,0.8c-0.5,0.1-1,0.6-1.6,0.4c-0.1,0-0.3,0.2-0.5,0.3c-0.5-0.3-1.1-0.6-1.5-0.9
			c-0.5-0.5-0.8-1.1-0.7-1.8c0.1-1.4,0.1-2.8,0.2-4.2c0.1-1.2,0.2-2.4,0.3-3.7c0.1-1.3,0.2-2.6,0.4-3.9c0.4-2.9,0.7-5.7,1.6-8.5
			c0.1-0.4,0.3-0.7,0.7-1c0.2-0.2,0.4-0.4,0.5-0.7c0.2-0.3,0.4-0.5,0.7-0.4c0.1,0,0.3,0.1,0.4,0c1.1-0.1,1.8,0.5,2.1,1.4
			c0.3,0.9,0.9,1.2,1.7,1.4c0.7,0.2,1.3,0.6,1.7,1.2c1.1,1.6,2.6,2.9,4,4.2c2.3,2.2,4.5,4.5,6.7,6.7c1.3,1.3,2.2,2.8,3.3,4.2
			c0.1,0.2,0.3,0.3,0.5,0.6c0.4-0.6,0.8-1.1,1.1-1.6c1-1.9,2-3.8,2.9-5.8c1-2.2,2-4.5,3.1-6.7c0.4-0.7,1-1.3,1.5-1.9
			c0.1-0.2,0.5-0.2,0.7-0.2c0.5,0.2,0.9,0.5,1.4,0.7c0.1,0,0.2,0.1,0.3,0.2c0.7,0.2,0.9,0.8,1,1.4c0.1,0.7,0.2,1.3-0.2,2
			c-0.6,1-1.1,2.1-1.6,3.2c-0.8,1.7-1.7,3.5-2.5,5.2c-0.4,0.9-0.8,1.8-1.3,2.7c-0.8,1.4-1.6,2.7-2.5,4.1c-0.5,0.8-1,1.6-1.5,2.3
			c-0.1,0.1-0.1,0.3-0.2,0.3c-1,0.2-1.9,0.8-3,0.3c-0.6-0.3-1.1-0.5-1.5-0.9c-0.4-0.4-0.6-0.9-0.9-1.3c-0.5-0.7-0.8-1.5-1.4-2.1
			c-0.4-0.4-0.6-1-0.9-1.6c-1.1-1.7-2.5-3.2-3.9-4.7c-1-1-2.1-2.1-3.1-3.1c-0.9-0.9-1.9-1.7-2.9-2.5c-0.8-0.7-1.5-1.4-2.2-2.2
			C683.6,24.6,683.5,24.5,683.3,24.3z"/>
		<path fill="#202428" d="M831.1,37.7c0.3-0.3,0.5-0.4,0.6-0.6c1.1-1.7,2.1-3.3,3.2-5c1.5-2.3,2.9-4.6,4.4-7c0.6-1,1.2-1.9,1.8-2.9
			c0.5-0.9,1.3-1.5,2.2-2c0.3-0.2,0.7-0.3,1.1,0c0.1,0.1,0.3,0.2,0.4,0.2c0.8,0.1,1.3,0.7,1.7,1.4c0.5,1,0.4,2.1-0.3,2.9
			c-1,1-1.8,2.1-2.6,3.4c-1,1.7-2.1,3.3-3.1,5c-1.5,2.4-2.8,4.8-4.4,7.2c-0.8,1.2-1.8,2.3-2.6,3.5c-0.4,0.5-0.9,0.6-1.5,0.6
			c-1.9-0.1-3.2-1.1-4.2-2.7c-1.7-2.7-2.8-5.6-3.3-8.7c-0.3-1.6-0.8-3.3-1.2-4.9c-0.2-0.6-0.2-0.6-0.8-0.5c-0.7,0.1-1.1,0.5-1.2,1.3
			c-0.2,1.6-0.5,3.2-0.9,4.8c-0.4,1.6-0.9,3.2-1.3,4.8c-0.2,0.8-0.6,1.6-1,2.4c-0.3,0.6-0.8,1-1.5,1c-0.2,0-0.4,0-0.6,0
			c-0.7,0.1-1.3-0.2-1.7-0.7c-0.2-0.2-0.4-0.5-0.7-0.7c-0.4-0.3-0.5-0.8-0.4-1.3c0-0.2,0.1-0.4,0.1-0.5c0.3-1.3,0.5-2.6,0.9-3.8
			c0.4-1.5,0.8-3,1.3-4.5c0.3-1,0.5-1.9,0.6-3c0.1-1,0.2-2.1,0.6-3.1c0.3-0.8,1-1.4,1.9-1.5c0.4-0.1,0.9,0.1,1.3,0.3
			c0.4,0.2,0.6,0.1,1,0c0.7-0.2,1.3-0.4,2-0.5c0.4-0.1,0.9,0,1.3,0c0.1,0,0.3,0.1,0.4,0.1c0.7-0.2,1.1,0.2,1.4,0.6
			c0.8,0.8,1.4,1.6,1.7,2.6c0.4,1.5,1,3,1.4,4.6c0.4,1.3,0.6,2.6,0.9,4c0.2,0.9,0.5,1.7,0.8,2.6C830.8,37.2,830.9,37.4,831.1,37.7z"
			/>
		<path fill="#202428" d="M733.2,33.7c0.2,1.9-0.8,4-2.2,5.9c-0.7,0.9-1.4,1.9-2.2,2.8c-1,1.2-2.3,2.1-3.9,2.5
			c-1.6,0.4-3.2,0.3-4.7-0.6c-0.8-0.4-1.4-1-2-1.7c-0.2-0.2-0.4-0.5-0.5-0.8c-1.2-2.3-1.4-4.7-0.9-7.2c0.2-1,0.4-2,0.8-3
			c0.2-0.4,0.1-0.8,0.3-1.1c0.7-1.2,1.4-2.4,2.2-3.5c0.6-0.7,1.2-1.5,2.1-1.9c0.1-0.1,0.2-0.2,0.3-0.3c0.6-0.8,1.2-1.5,1.7-2.3
			c0.4-0.5,0.8-0.7,1.4-0.7c0.8,0,1.7-0.1,2.4,0.4c0.4,0.3,0.9,0.5,1.2,0.9c0.7,0.9,1.3,1.8,1.7,2.8c0,0.1,0.1,0.1,0.1,0.2
			C732.6,28.2,733.1,30.6,733.2,33.7z M726.1,26.5c-0.2,0.1-0.3,0.2-0.3,0.3c-0.2,1-0.8,1.7-1.3,2.5c-0.2,0.3-0.5,0.6-0.7,1
			c-0.7,1-1,2.1-1.4,3.2c-0.5,1.3-0.8,2.7-0.7,4.1c0,0.7,0.2,1.4,0.5,2.1c0.3,0.9,0.8,1,1.6,0.5c0.8-0.5,1.6-1.1,2.2-2
			c0.6-0.8,1.1-1.6,1.6-2.5c0.6-1.1,1-2.4,0.7-3.7c-0.1-0.5-0.2-1-0.3-1.6C727.6,29.1,726.9,27.9,726.1,26.5z"/>
		<path fill="#202428" d="M798.9,41.7c-1.7,0.2-3.3-0.5-4.7-1.5c-0.5-0.3-0.8-0.8-1.1-1.4c-0.4-0.9-0.7-1.8-0.9-2.7
			c-0.1-0.5,0-1.1,0-1.6c0.4-2.7,1.6-5.2,3-7.5c0.9-1.5,2.1-2.8,3.5-3.8c1.3-1,2.8-1.7,4.4-2c0.7-0.2,1.4,0,2.1,0.2
			c0.4,0.1,0.8,0.2,1.1,0.2c0.6,0.1,1.1,0,1.7,0.1c0.3,0,0.5,0.3,0.7,0.4c0.7,0.5,1.2,1.2,1.4,2.1c0.3,1.3,0.5,2.6,0.2,3.9
			c-0.4,2.6-1,5.2-2.1,7.6c-0.5,0.9-1,1.8-1.8,2.5c-0.6,0.5-1.1,1.1-1.7,1.6c-0.9,0.8-2,1.1-3.1,1.4
			C800.8,41.6,799.9,41.8,798.9,41.7z M805.3,24.7c-1.4,0.6-2.7,1.2-3.7,2.2c-1.9,1.9-3.2,4.2-4.1,6.7c-0.3,0.9-0.5,1.8-0.2,2.7
			c0.1,0.4,0.4,0.6,0.8,0.6c1,0,2-0.3,2.9-0.8c1.3-0.8,2.1-1.9,2.7-3.2c0.9-1.9,1.4-4,1.8-6C805.6,26.2,805.7,25.5,805.3,24.7z"/>
	</g>
</g>
</svg>
