<?xml version="1.0" encoding="utf-8"?>
<!-- Generator: Adobe Illustrator 18.0.0, SVG Export Plug-In . SVG Version: 6.00 Build 0)  -->
<!DOCTYPE svg PUBLIC "-//W3C//DTD SVG 1.1//EN" "http://www.w3.org/Graphics/SVG/1.1/DTD/svg11.dtd">
<svg version="1.1" id="Layer_1" xmlns="http://www.w3.org/2000/svg" xmlns:xlink="http://www.w3.org/1999/xlink" x="0px" y="0px"
	 width="1724px" height="60.3px" viewBox="0 0 1724 60.3" enable-background="new 0 0 1724 60.3" xml:space="preserve">
<polygon fill="#202428" points="504.1,16.9 508.1,27.3 511.8,17.7 "/>
<polygon fill="#202428" points="502.9,17.1 499.3,27.4 495.9,16.6 "/>
<polygon fill="#202428" points="487.7,16.6 494.9,16.9 491,26.2 "/>
<polygon fill="#202428" points="486.3,18 477.7,18.2 481.6,27.4 "/>
<polygon fill="#202428" points="477,17.6 468,17.6 472.9,27 "/>
<polygon fill="#202428" points="467.4,17.6 458.4,17.6 463,27.9 "/>
<polygon fill="#202428" points="457.4,18.3 449.9,18.6 453,27.8 "/>
<polygon fill="#202428" points="448.7,18.6 440.8,18.7 444,27.8 "/>
<polygon fill="#202428" points="576.5,18.2 580.5,28.6 584.3,19 "/>
<polygon fill="#202428" points="575.3,18.4 571.8,28.6 568.3,17.9 "/>
<polygon fill="#202428" points="560.1,17.9 567.4,18.2 563.4,27.4 "/>
<polygon fill="#202428" points="558.8,18 550.2,18.2 554.1,27.4 "/>
<polygon fill="#202428" points="549.4,17.6 540.4,17.6 545.3,27 "/>
<polygon fill="#202428" points="539.8,17.6 530.9,17.6 535.4,27.9 "/>
<polygon fill="#202428" points="529.8,18.3 522.4,18.6 525.4,27.8 "/>
<polygon fill="#202428" points="521.1,18.6 513.3,18.7 516.5,27.8 "/>
<polygon fill="#202428" points="359.3,16.9 363.2,27.3 367,17.7 "/>
<polygon fill="#202428" points="358.1,17.1 354.4,27.4 351.1,16.6 "/>
<polygon fill="#202428" points="342.8,16.6 350.1,16.9 346.1,26.2 "/>
<polygon fill="#202428" points="341.5,17.4 332.8,17.5 336.8,26.8 "/>
<polygon fill="#202428" points="332.1,17.6 323.2,17.6 328,27 "/>
<polygon fill="#202428" points="322.5,17.6 313.5,17.6 318.1,27.9 "/>
<polygon fill="#202428" points="312.6,17.6 305.1,17.9 308.1,27.1 "/>
<polygon fill="#202428" points="303.7,17.9 295.9,18 299.2,27.2 "/>
<polygon fill="#202428" points="431.7,16.9 435.7,27.3 439.4,17.7 "/>
<polygon fill="#202428" points="430.5,17.1 426.8,27.4 423.5,16.6 "/>
<polygon fill="#202428" points="415.3,17.9 422.5,18.2 418.5,27.4 "/>
<polygon fill="#202428" points="413.9,18 405.2,18.2 409.2,27.4 "/>
<polygon fill="#202428" points="404.6,17.6 395.6,17.6 400.5,27 "/>
<polygon fill="#202428" points="668,18.5 659.1,18.5 663.9,27.8 "/>
<polygon fill="#202428" points="658.4,18.5 649.4,18.5 654.1,28.8 "/>
<polygon fill="#202428" points="648.5,18.3 641,18.5 644,27.7 "/>
<polygon fill="#202428" points="639.6,18.5 631.8,18.6 635.1,27.8 "/>
<polygon fill="#202428" points="622.7,17.5 626.7,27.8 630.4,18.3 "/>
<polygon fill="#202428" points="621.5,17.7 617.9,27.9 614.5,17.2 "/>
<polygon fill="#202428" points="606.3,17.2 613.5,17.5 609.5,26.7 "/>
<polygon fill="#202428" points="605,17.3 596.3,17.5 600.3,26.7 "/>
<polygon fill="#202428" points="595.6,17.6 586.7,17.6 591.4,27 "/>
<polygon fill="#202428" points="884.2,17.9 888.1,28.3 891.9,18.8 "/>
<polygon fill="#202428" points="883,18.1 879.3,28.4 876,17.6 "/>
<polygon fill="#202428" points="867.8,17.6 875,17.9 871,27.2 "/>
<polygon fill="#202428" points="866.4,19.1 857.8,19.2 861.7,28.5 "/>
<polygon fill="#202428" points="857.1,18.7 848.1,18.7 852.9,28 "/>
<polygon fill="#202428" points="956.6,17.8 960.9,28.2 964.6,18.6 "/>
<polygon fill="#202428" points="955.4,18.8 951.8,29 948.4,18.2 "/>
<polygon fill="#202428" points="940.2,18.2 947.4,18.5 943.4,27.8 "/>
<polygon fill="#202428" points="938.9,18.4 930.2,18.5 934.2,27.8 "/>
<polygon fill="#202428" points="929.5,18 920.5,18 925.4,27.3 "/>
<polygon fill="#202428" points="919.9,18.7 910.9,18.7 915.5,29 "/>
<polygon fill="#202428" points="909.9,19.3 902.5,19.6 905.4,28.8 "/>
<polygon fill="#202428" points="901.1,19.6 893.3,19.7 896.5,28.9 "/>
<polygon fill="#202428" points="1075.2,18.1 1079.2,28.5 1083,18.9 "/>
<polygon fill="#202428" points="1074,18.4 1070.4,28.6 1067,17.9 "/>
<polygon fill="#202428" points="1058.8,18.4 1066.1,18.6 1062.1,27.8 "/>
<polygon fill="#202428" points="1057.5,18.4 1048.8,18.6 1052.8,27.8 "/>
<polygon fill="#202428" points="1048.1,18.4 1039.1,18.4 1044,27.7 "/>
<polygon fill="#202428" points="1038.5,18.4 1029.5,18.4 1034.1,28.6 "/>
<polygon fill="#202428" points="1028.5,18.1 1021,18.4 1024.1,27.5 "/>
<polygon fill="#202428" points="1019.7,18.4 1011.9,18.4 1015.2,27.6 "/>
<polygon fill="#202428" points="1147.7,17.8 1151.6,28.2 1155.4,18.6 "/>
<polygon fill="#202428" points="1146.5,18 1142.8,28.2 1139.4,17.6 "/>
<polygon fill="#202428" points="1131.2,18 1138.5,18.3 1134.5,27.5 "/>
<polygon fill="#202428" points="1129.9,18.1 1121.2,18.3 1125.2,27.5 "/>
<polygon fill="#202428" points="1120.6,18.2 1111.6,18.2 1116.4,27.5 "/>
<polygon fill="#202428" points="1191.9,18.4 1195.9,28.8 1199.6,19.2 "/>
<polygon fill="#202428" points="1190.7,18.7 1187,28.9 1183.7,18.2 "/>
<polygon fill="#202428" points="1175.5,18.2 1182.7,18.4 1178.7,27.7 "/>
<polygon fill="#202428" points="1174.1,18.3 1165.5,18.4 1169.4,27.7 "/>
<polygon fill="#202428" points="1164.8,18.5 1155.8,18.5 1160.6,27.8 "/>
<polygon fill="#202428" points="1110.9,18.7 1101.9,18.7 1106.5,29 "/>
<polygon fill="#202428" points="1101,18.3 1093.5,18.5 1096.5,27.7 "/>
<polygon fill="#202428" points="1092.2,18.5 1084.3,18.6 1087.6,27.8 "/>
<polygon fill="#202428" points="1002.7,17.3 1006.7,27.7 1010.5,18.1 "/>
<polygon fill="#202428" points="1001.5,18 997.9,28.2 994.6,17.5 "/>
<polygon fill="#202428" points="1281.7,19.6 1285.7,30 1289.5,20.4 "/>
<polygon fill="#202428" points="1280.5,19.9 1276.9,30.1 1273.5,19.4 "/>
<polygon fill="#202428" points="1265.3,19.9 1272.6,20.1 1268.6,29.3 "/>
<polygon fill="#202428" points="1264,19.9 1255.3,20.1 1259.3,29.3 "/>
<polygon fill="#202428" points="1254.6,19.9 1245.6,19.9 1250.5,29.2 "/>
<polygon fill="#202428" points="1245,19.9 1236,19.9 1240.6,30.1 "/>
<polygon fill="#202428" points="1235,19.6 1227.5,19.9 1230.6,29 "/>
<polygon fill="#202428" points="1226.2,19.9 1218.4,19.9 1221.7,29.1 "/>
<polygon fill="#202428" points="1354.2,19.3 1358.1,29.7 1361.9,20.1 "/>
<polygon fill="#202428" points="1353,19.5 1349.3,29.7 1345.9,19.1 "/>
<polygon fill="#202428" points="1337.7,19.5 1345,19.8 1341,29 "/>
<polygon fill="#202428" points="1336.4,19.6 1327.7,19.8 1331.7,29 "/>
<polygon fill="#202428" points="1327.1,19.7 1318.1,19.7 1322.9,29 "/>
<polygon fill="#202428" points="1398.4,19.9 1402.4,30.3 1406.1,20.7 "/>
<polygon fill="#202428" points="1397.2,20.2 1393.5,30.4 1390.2,19.7 "/>
<polygon fill="#202428" points="1382,19.7 1389.2,19.9 1385.2,29.2 "/>
<polygon fill="#202428" points="1380.6,19.8 1372,19.9 1375.9,29.2 "/>
<polygon fill="#202428" points="1371.3,20 1362.3,20 1367.1,29.3 "/>
<polygon fill="#202428" points="1434.2,19.8 1438.1,30.2 1441.9,20.6 "/>
<polygon fill="#202428" points="1433,20 1429.3,30.2 1425.9,19.6 "/>
<polygon fill="#202428" points="1417.7,20 1425,20.3 1421,29.5 "/>
<polygon fill="#202428" points="1416.4,20.1 1407.7,20.3 1411.7,29.5 "/>
<polygon fill="#202428" points="1478.4,20.4 1482.4,30.8 1486.1,21.2 "/>
<polygon fill="#202428" points="1477.2,20.7 1473.5,30.9 1470.2,20.2 "/>
<polygon fill="#202428" points="1495.4,20.4 1499.4,30.8 1503.1,21.2 "/>
<polygon fill="#202428" points="1494.2,20.7 1490.5,30.9 1487.2,20.2 "/>
<polygon fill="#202428" points="1462,20.2 1469.2,20.4 1465.2,29.7 "/>
<polygon fill="#202428" points="1460.6,20.3 1452,20.4 1455.9,29.7 "/>
<polygon fill="#202428" points="1451.3,20.5 1442.3,20.5 1447.1,29.8 "/>
<polygon fill="#202428" points="1512.7,20.6 1516.6,31 1520.4,21.4 "/>
<polygon fill="#202428" points="1511.5,20.8 1507.8,31 1504.4,20.4 "/>
<polygon fill="#202428" points="1556.9,21.2 1560.9,31.6 1564.6,22 "/>
<polygon fill="#202428" points="1555.7,21.5 1552,31.7 1548.7,21 "/>
<polygon fill="#202428" points="1540.5,21 1547.7,21.2 1543.7,30.5 "/>
<polygon fill="#202428" points="1539.1,21.1 1530.5,21.2 1534.4,30.5 "/>
<polygon fill="#202428" points="1529.8,21.3 1520.8,21.3 1525.6,30.6 "/>
<polygon fill="#202428" points="1592.7,21.1 1596.6,31.5 1600.4,21.9 "/>
<polygon fill="#202428" points="1591.5,21.3 1587.8,31.5 1584.4,20.9 "/>
<polygon fill="#202428" points="1576.2,21.3 1583.5,21.6 1579.5,30.8 "/>
<polygon fill="#202428" points="1574.9,21.4 1566.2,21.6 1570.2,30.8 "/>
<polygon fill="#202428" points="1679.4,21.2 1683.4,31.6 1687.1,22 "/>
<polygon fill="#202428" points="1678.2,21.5 1674.5,31.7 1671.2,21 "/>
<polygon fill="#202428" points="1663,21 1670.2,21.2 1666.2,30.5 "/>
<polygon fill="#202428" points="1714,21.3 1710.3,31.5 1706.9,20.9 "/>
<polygon fill="#202428" points="1698.7,21.3 1706,21.6 1702,30.8 "/>
<polygon fill="#202428" points="1697.4,21.4 1688.7,21.6 1692.7,30.8 "/>
<polygon fill="#202428" points="1723.4,21.4 1714.7,21.6 1718.7,30.8 "/>
<polygon fill="#202428" points="1636.9,20.7 1640.9,33.1 1644.6,21.7 "/>
<polygon fill="#202428" points="1635.7,21.1 1632,33.2 1628.7,20.5 "/>
<polygon fill="#202428" points="1653.9,20.7 1657.9,33.1 1661.6,21.7 "/>
<polygon fill="#202428" points="1652.7,21.1 1649,33.2 1645.7,20.5 "/>
<polygon fill="#202428" points="1620.5,20.5 1627.7,20.7 1623.7,31.8 "/>
<polygon fill="#202428" points="1619.1,21.6 1610.5,21.7 1614.4,31 "/>
<polygon fill="#202428" points="1609.8,21.8 1600.8,21.8 1605.6,31.1 "/>
<polygon fill="#202428" points="1317.4,20.2 1308.4,20.2 1313,30.5 "/>
<polygon fill="#202428" points="1307.5,19.8 1300,20 1303,29.2 "/>
<polygon fill="#202428" points="1298.7,20 1290.8,20.1 1294.1,29.3 "/>
<polygon fill="#202428" points="1209.2,18.8 1213.2,29.2 1217,19.6 "/>
<polygon fill="#202428" points="1208,19.5 1204.4,29.7 1201.1,19 "/>
<polygon fill="#202428" points="986.4,17.5 993.6,17.8 989.6,27 "/>
<polygon fill="#202428" points="985,17.6 976.3,17.8 980.3,27 "/>
<polygon fill="#202428" points="975.6,17.2 966.7,17.2 971.5,26.6 "/>
<polygon fill="#202428" points="395,17.6 386,17.6 390.6,27.9 "/>
<polygon fill="#202428" points="385,18.3 377.5,18.6 380.5,27.8 "/>
<polygon fill="#202428" points="376.2,18.6 368.3,18.7 371.6,27.8 "/>
<polygon fill="#202428" points="213.7,16.8 217.7,27.3 221.4,17.7 "/>
<polygon fill="#202428" points="212.5,17.7 208.9,27.9 205.5,17.2 "/>
<polygon fill="#202428" points="197.3,17.2 204.5,17.4 200.5,26.7 "/>
<polygon fill="#202428" points="196,17.3 187.3,17.4 191.3,26.7 "/>
<polygon fill="#202428" points="186.6,17.3 177.6,17.3 182.5,26.6 "/>
<polygon fill="#202428" points="177,18.2 168,18.2 172.6,28.5 "/>
<polygon fill="#202428" points="167,18.5 159.6,18.7 162.5,27.9 "/>
<polygon fill="#202428" points="158.2,19.3 150.4,19.5 153.6,28.7 "/>
<polygon fill="#202428" points="286.1,16.9 290.1,27.3 293.8,17.7 "/>
<polygon fill="#202428" points="284.9,17.1 281.3,27.4 277.9,16.6 "/>
<polygon fill="#202428" points="269.8,16.6 277,16.9 273,26.2 "/>
<polygon fill="#202428" points="268.4,16.8 259.7,16.9 263.7,26.2 "/>
<polygon fill="#202428" points="259,18.2 250.1,18.2 254.9,27.6 "/>
<polygon fill="#202428" points="249.4,18.2 240.5,18.2 245,28.5 "/>
<polygon fill="#202428" points="239.5,18.2 232,18.5 235,27.7 "/>
<polygon fill="#202428" points="230.7,18.5 222.9,18.6 226.1,27.8 "/>
<polygon fill="#202428" points="68.8,17 72.8,27.4 76.6,17.9 "/>
<polygon fill="#202428" points="67.6,17.2 64,27.5 60.6,16.8 "/>
<polygon fill="#202428" points="52.4,16.8 59.7,17 55.7,26.3 "/>
<polygon fill="#202428" points="51.1,16.9 42.4,17 46.4,26.3 "/>
<polygon fill="#202428" points="41.8,17.2 32.7,17.2 37.6,26.5 "/>
<polygon fill="#202428" points="32.1,17.5 23.1,17.5 27.7,27.7 "/>
<polygon fill="#202428" points="22.2,16.8 14.7,17.1 17.7,26.2 "/>
<polygon fill="#202428" points="13.4,17.1 5.5,17.2 8.8,26.4 "/>
<polygon fill="#202428" points="141.3,17.7 145.3,28 149,18.6 "/>
<polygon fill="#202428" points="140.1,17.9 136.5,28.2 133.1,17.4 "/>
<polygon fill="#202428" points="124.9,17.4 132.1,17.7 128.1,27 "/>
<polygon fill="#202428" points="123.6,17.6 114.9,17.7 118.9,27 "/>
<polygon fill="#202428" points="114.2,18 105.2,18 110,27.3 "/>
<polygon fill="#202428" points="104.5,18.8 95.5,18.8 100.2,29 "/>
<polygon fill="#202428" points="94.6,18.4 87.1,18.7 90.1,27.8 "/>
<polygon fill="#202428" points="85.8,18.7 77.9,18.8 81.2,28 "/>
<g id="Layer_2" display="none">
	<text transform="matrix(1 0 0 1 674.1696 43.5906)" display="inline" font-family="'BlissPro-Bold'" font-size="39.9854">NOW ON</text>
</g>
<polygon fill="#202428" points="695.2,18.8 699.2,29.1 702.9,19.6 "/>
<polygon fill="#202428" points="694,19 690.3,29.2 687,18.5 "/>
<polygon fill="#202428" points="678.8,18.5 686,18.8 682,28 "/>
<polygon fill="#202428" points="677.4,18.6 668.7,18.8 672.7,28 "/>
<polygon fill="#202428" points="767.6,18 771.6,28.3 775.3,18.8 "/>
<polygon fill="#202428" points="766.4,18.2 762.7,28.4 759.4,17.7 "/>
<polygon fill="#202428" points="751.2,17.7 758.4,18 754.5,27.2 "/>
<polygon fill="#202428" points="749.8,17.8 741.1,18 745.1,27.2 "/>
<polygon fill="#202428" points="740.5,17.9 731.5,17.9 736.4,27.2 "/>
<polygon fill="#202428" points="811.8,18.6 815.8,29 819.5,19.4 "/>
<polygon fill="#202428" points="810.6,18.8 807,29 803.6,18.4 "/>
<polygon fill="#202428" points="795.4,18.4 802.7,18.6 798.7,27.8 "/>
<polygon fill="#202428" points="794.1,18.4 785.4,18.6 789.4,27.8 "/>
<polygon fill="#202428" points="784.7,18.7 775.7,18.7 780.6,28 "/>
<polygon fill="#202428" points="730.9,17.9 721.9,17.9 726.5,28.2 "/>
<polygon fill="#202428" points="720.9,18.1 713.4,18.3 716.4,27.5 "/>
<polygon fill="#202428" points="712.1,19.2 704.3,19.2 707.5,28.4 "/>
<polygon fill="#202428" points="847.4,18.7 838.4,18.7 843.1,29 "/>
<polygon fill="#202428" points="837.5,19.3 830,19.6 833,28.8 "/>
<polygon fill="#202428" points="828.7,19.6 820.8,19.7 824.1,28.9 "/>
</svg>
