<?xml version="1.0" encoding="utf-8"?>
<!-- Generator: Adobe Illustrator 18.0.0, SVG Export Plug-In . SVG Version: 6.00 Build 0)  -->
<!DOCTYPE svg PUBLIC "-//W3C//DTD SVG 1.1//EN" "http://www.w3.org/Graphics/SVG/1.1/DTD/svg11.dtd">
<svg version="1.1" id="Layer_1" xmlns="http://www.w3.org/2000/svg" xmlns:xlink="http://www.w3.org/1999/xlink" x="0px" y="0px"
	 width="561.5px" height="36px" viewBox="0 0 561.5 36" enable-background="new 0 0 561.5 36" xml:space="preserve">
<path d="M317.9,17.1l28.1,0.4C346,17.5,339,3.6,317.9,17.1z"/>
<path d="M355.7,17.5l31.6-0.4C387.3,17.1,371.7,1.1,355.7,17.5z"/>
<path d="M396.6,17.1l28.7,0.4C425.2,17.5,413.9,3.2,396.6,17.1z"/>
<path d="M318.4,20.9l26.3,0.4C343.8,20.5,333.7,35.2,318.4,20.9z"/>
<path d="M355.3,22.6l32.5,0.8C387.7,23.4,368.3,34.4,355.3,22.6z"/>
<path d="M396.2,23.4l31.2-1.3C427.4,22.2,410.9,37.8,396.2,23.4z"/>
<path d="M435.6,17.7l29.5,0.4C461.1,14.1,448.6,4.3,435.6,17.7z"/>
<path d="M434.5,22.2l32-0.3C466.6,21.9,449.7,37.8,434.5,22.2z"/>
<ellipse cx="350.9" cy="20.6" rx="2.4" ry="2"/>
<ellipse cx="312.9" cy="19.6" rx="2.4" ry="2"/>
<ellipse cx="392.6" cy="19.9" rx="2.3" ry="1.9"/>
<ellipse cx="430.3" cy="19.9" rx="2" ry="1.9"/>
<path d="M476.9,17.1l28.1,0.4C505,17.5,498,3.6,476.9,17.1z"/>
<path d="M514.7,17.5l31.6-0.4C546.3,17.1,530.7,1.1,514.7,17.5z"/>
<path d="M477.4,20.9l26.3,0.4C502.8,20.5,492.7,35.2,477.4,20.9z"/>
<path d="M514.3,22.6l32.5,0.8C546.7,23.4,527.3,34.4,514.3,22.6z"/>
<ellipse cx="509.9" cy="20.6" rx="2.4" ry="2"/>
<ellipse cx="471.9" cy="19.6" rx="2.4" ry="2"/>
<path d="M-0.1,16.1L28,16.5C28,16.5,21,2.6-0.1,16.1z"/>
<path d="M37.7,16.5l31.6-0.4C69.3,16.1,53.7,0.1,37.7,16.5z"/>
<path d="M78.6,16.1l28.7,0.4C107.2,16.5,95.9,2.2,78.6,16.1z"/>
<path d="M0.4,19.9l26.3,0.4C25.8,19.5,15.7,34.2,0.4,19.9z"/>
<path d="M37.3,21.6l32.5,0.8C69.7,22.4,50.3,33.4,37.3,21.6z"/>
<path d="M78.2,22.4l31.2-1.3C109.4,21.2,92.9,36.8,78.2,22.4z"/>
<path d="M117.6,16.7l29.5,0.4C143.1,13.1,130.6,3.3,117.6,16.7z"/>
<path d="M116.5,21.2l32-0.3C148.6,20.9,131.7,36.8,116.5,21.2z"/>
<ellipse cx="32.9" cy="19.6" rx="2.4" ry="2"/>
<ellipse cx="74.6" cy="18.9" rx="2.3" ry="1.9"/>
<ellipse cx="112.3" cy="18.9" rx="2" ry="1.9"/>
<path d="M158.9,16.1l28.1,0.4C187,16.5,180,2.6,158.9,16.1z"/>
<path d="M196.7,16.5l31.6-0.4C228.3,16.1,212.7,0.1,196.7,16.5z"/>
<path d="M237.6,16.1l28.7,0.4C266.2,16.5,254.9,2.2,237.6,16.1z"/>
<path d="M159.4,19.9l26.3,0.4C184.8,19.5,174.7,34.2,159.4,19.9z"/>
<path d="M196.3,21.6l32.5,0.8C228.7,22.4,209.3,33.4,196.3,21.6z"/>
<path d="M237.2,22.4l31.2-1.3C268.4,21.2,251.9,36.8,237.2,22.4z"/>
<path d="M276.6,16.7l29.5,0.4C302.1,13.1,289.6,3.3,276.6,16.7z"/>
<path d="M275.5,21.2l32-0.3C307.6,20.9,290.7,36.8,275.5,21.2z"/>
<ellipse cx="191.9" cy="19.6" rx="2.4" ry="2"/>
<ellipse cx="153.9" cy="18.6" rx="2.4" ry="2"/>
<ellipse cx="233.6" cy="18.9" rx="2.3" ry="1.9"/>
<ellipse cx="271.3" cy="18.9" rx="2" ry="1.9"/>
</svg>
