<?xml version="1.0" encoding="utf-8"?>
<!-- Generator: Adobe Illustrator 18.0.0, SVG Export Plug-In . SVG Version: 6.00 Build 0)  -->
<!DOCTYPE svg PUBLIC "-//W3C//DTD SVG 1.1//EN" "http://www.w3.org/Graphics/SVG/1.1/DTD/svg11.dtd">
<svg version="1.1" id="Layer_1" xmlns="http://www.w3.org/2000/svg" xmlns:xlink="http://www.w3.org/1999/xlink" x="0px" y="0px"
	 width="1724px" height="60.3px" viewBox="0 0 1724 60.3" enable-background="new 0 0 1724 60.3" xml:space="preserve">
<g id="Layer_2" display="none">
	<text transform="matrix(1 0 0 1 674.1696 43.5906)" display="inline" font-family="'BlissPro-Bold'" font-size="39.9854">NOW ON</text>
</g>
<polyline fill="none" stroke="#FF6200" stroke-width="2" stroke-miterlimit="10" points="7.6,23.1 27.1,38.1 42.1,20.1 54.1,32.1 
	73.6,18.6 92,34 112,20 129,36 141,21 162,36 171,17 192,32 208,16 227,34 259,15 269,31 291,14 318,32 343,17 359,30 373,17 
	386,30 398,22 408,30 430,18 448,35 466,12 502,42 508,31 533,39 540,16 568,33 579,26 588,33 603,21 616,36 631,15 681,39 694,16 
	711,29 736,14 747,37 778,20 799,39 816,21 865,48 881,19 927,40 960,17 1027,41 1067,13 1085,32 1118,16.7 1143.3,34.7 
	1156.7,16.7 1178,34.7 1194,15.3 1222.7,33.3 1240,14 1262,32 1267.3,14 1298,40.7 1318.7,14.7 1341.3,38.7 1370,12 1391.3,34.7 
	1412,17.3 1442.7,38 1472,16 1500,39.3 1531.3,18 1564.7,40 1591.3,17.3 1620,40.7 1642.7,22 1656,34.7 1673.3,21.3 1697.3,40 
	1719.3,24.7 "/>
</svg>
