<?xml version="1.0" encoding="utf-8"?>
<!-- Generator: Adobe Illustrator 18.0.0, SVG Export Plug-In . SVG Version: 6.00 Build 0)  -->
<!DOCTYPE svg PUBLIC "-//W3C//DTD SVG 1.1//EN" "http://www.w3.org/Graphics/SVG/1.1/DTD/svg11.dtd">
<svg version="1.1" id="Layer_1" xmlns="http://www.w3.org/2000/svg" xmlns:xlink="http://www.w3.org/1999/xlink" x="0px" y="0px"
	 width="40px" height="40px" viewBox="1.7 0 40 40" enable-background="new 1.7 0 40 40" xml:space="preserve">
<path fill="#FF6200" d="M22.4,25.9c-4.3-0.5-17.1-0.7-17.1-0.7s-4.5-0.1-2.8,0.6c1.7,0.6,21.2,2.3,25.2,2.5
	c3.3,0.2,11.1,0.3,13.6,0.4l0-2.6C38.4,26.2,26.1,26.3,22.4,25.9z"/>
<path fill="#FF6200" d="M41.5,8.6c0,0-18.4,0.6-18.9,0.6c-0.5,0-14.7,0.6-16.1,0.6s-3.2,0.5-3.2,0.5s0.2,0.7,0.9,0.7
	s35.1-0.1,36.9,0.6c0.3,0.1,0.4,0.2,0.6,0.3l0.1-3.3C41.6,8.6,41.5,8.6,41.5,8.6z"/>
<path fill="#FF6200" d="M32.9,22.5c-1.1,0-22.7,0.5-24.1,0.5s-6.2,0.6-6.2,0.6s19.8,1.1,21.6,1.1c1.5,0,14.2-0.2,17.4,0l0-2.5
	C39.7,22.2,33.8,22.5,32.9,22.5z"/>
<path fill="#FF6200" d="M3.5,31.1c-0.4,0-0.6,0.5-0.6,0.5s10.7,0.8,13.7,0.9c2.6,0.1,20.7,0.1,24.7,0.1l0-2.4
	C36.6,30.2,3.9,31.1,3.5,31.1z"/>
<path fill="#FF6200" d="M41.6,15.5l0-2.4c-0.1,0-0.2,0.1-0.3,0.1c-0.6,0-18.2,0.2-19.4,0.2c-1.2,0-13.9,0.5-15.2,0.5s-4.7,0-4.7,0.4
	c0,0.4,25.2,0.7,25.2,0.7S38.7,15.2,41.6,15.5z"/>
<path fill="#FF6200" d="M20.7,18c-1.6,0-12.5,0.3-14.1,0.3c-1.7,0-6.4,0.2-4.3,0.6S26.9,20,28.1,20c1,0,10.6,0.1,13.4,0.2l0-2.6
	C39.4,17.7,22.2,18,20.7,18z"/>
</svg>
