<?xml version="1.0" encoding="utf-8"?>
<!-- Generator: Adobe Illustrator 18.0.0, SVG Export Plug-In . SVG Version: 6.00 Build 0)  -->
<!DOCTYPE svg PUBLIC "-//W3C//DTD SVG 1.1//EN" "http://www.w3.org/Graphics/SVG/1.1/DTD/svg11.dtd">
<svg version="1.1" id="Layer_1" xmlns="http://www.w3.org/2000/svg" xmlns:xlink="http://www.w3.org/1999/xlink" x="0px" y="0px"
	 width="45px" height="45px" viewBox="-25.8 -15.2 45 45" enable-background="new -25.8 -15.2 45 45" xml:space="preserve">
<g>
	<path fill="#EF7E3F" d="M17.5,5.2L-3.9,6.6L-5.2,27L5,26.1L6,17l4.5,4l7-6.6L17.5,5.2z M4.6,14.9l-0.8,9.9l-7.5,0.6l1.3-17.6
		l18.6-1.4l-0.1,7L4.6,14.9z"/>
	<g>
		<rect x="0.5" y="10.1" transform="matrix(0.6866 0.727 -0.727 0.6866 8.473 2.5051)" fill="#EF7E3F" width="1.6" height="2.1"/>
	</g>
	<g>
		
			<rect x="-0.2" y="13.6" transform="matrix(0.6866 0.727 -0.727 0.6866 10.8071 4.1615)" fill="#EF7E3F" width="1.6" height="2.1"/>
	</g>
	<g>
		<rect x="-0.5" y="17.4" transform="matrix(0.6866 0.727 -0.727 0.6866 13.467 5.5259)" fill="#EF7E3F" width="1.6" height="2.1"/>
	</g>
	<g>
		
			<rect x="-0.8" y="21.3" transform="matrix(0.6866 0.727 -0.727 0.6866 16.2312 6.9388)" fill="#EF7E3F" width="1.6" height="2.1"/>
	</g>
	<g>
		<rect x="4.4" y="9.9" transform="matrix(0.6866 0.727 -0.727 0.6866 9.5734 -0.4044)" fill="#EF7E3F" width="1.6" height="2.1"/>
	</g>
	<g>
		<rect x="8.3" y="9.3" transform="matrix(0.6866 0.727 -0.727 0.6866 10.3891 -3.3831)" fill="#EF7E3F" width="1.6" height="2.1"/>
	</g>
	<g>
		
			<rect x="12.1" y="9.5" transform="matrix(0.6866 0.727 -0.727 0.6866 11.7257 -6.1194)" fill="#EF7E3F" width="1.6" height="2.1"/>
	</g>
</g>
<g>
	<path fill="#EF7E3F" d="M-24.1,9.7L-2.7,8l0.9-20.5L-12-11.4l-0.8,9.1l-4.5-3.9l-6.9,6.8L-24.1,9.7z M-11.4-0.3l0.6-9.9l7.5-0.7
		l-1,17.6l-18.6,1.7l-0.1-7L-11.4-0.3z"/>
	<g>
		
			<rect x="-8.9" y="2.5" transform="matrix(-0.7003 -0.7139 0.7139 -0.7003 -16.2214 0.2901)" fill="#EF7E3F" width="1.6" height="2.1"/>
	</g>
	<g>
		
			<rect x="-8.2" y="-1" transform="matrix(-0.7003 -0.7139 0.7139 -0.7003 -12.5191 -5.2541)" fill="#EF7E3F" width="1.6" height="2.1"/>
	</g>
	<g>
		
			<rect x="-8" y="-4.8" transform="matrix(-0.7003 -0.7139 0.7139 -0.7003 -9.5179 -11.5378)" fill="#EF7E3F" width="1.6" height="2.1"/>
	</g>
	<g>
		
			<rect x="-7.8" y="-8.7" transform="matrix(-0.7003 -0.7139 0.7139 -0.7003 -6.4108 -18.0673)" fill="#EF7E3F" width="1.6" height="2.1"/>
	</g>
	<g>
		
			<rect x="-12.8" y="2.8" transform="matrix(-0.7003 -0.7139 0.7139 -0.7003 -23.0688 -2.0798)" fill="#EF7E3F" width="1.6" height="2.1"/>
	</g>
	<g>
		
			<rect x="-16.6" y="3.4" transform="matrix(-0.7003 -0.7139 0.7139 -0.7003 -30.0583 -3.7823)" fill="#EF7E3F" width="1.6" height="2.1"/>
	</g>
	<g>
		
			<rect x="-20.5" y="3.3" transform="matrix(-0.7003 -0.7139 0.7139 -0.7003 -36.5179 -6.7135)" fill="#EF7E3F" width="1.6" height="2.1"/>
	</g>
</g>
</svg>
