<?xml version="1.0" encoding="utf-8"?>
<!-- Generator: Adobe Illustrator 18.0.0, SVG Export Plug-In . SVG Version: 6.00 Build 0)  -->
<!DOCTYPE svg PUBLIC "-//W3C//DTD SVG 1.1//EN" "http://www.w3.org/Graphics/SVG/1.1/DTD/svg11.dtd">
<svg version="1.1" id="Layer_1" xmlns="http://www.w3.org/2000/svg" xmlns:xlink="http://www.w3.org/1999/xlink" x="0px" y="0px"
	 width="100px" height="100px" viewBox="0 0 100 100" enable-background="new 0 0 100 100" xml:space="preserve">
<g>
	<path fill="#FF6200" d="M50.2,92.9c-3.1,0-4.7-0.5-6.5-1.1c-0.7-0.2-1.4-0.4-2.2-0.6c-2.9-0.7-3.9-2.5-4.2-3.1
		c-0.8-1-3.4-3.9-3.5-4l1.4-1.3c0.1,0.1,2.8,3.2,3.6,4.1l0.1,0.1l0.1,0.1c0,0,0.6,1.5,3,2c0.9,0.2,1.6,0.4,2.3,0.7
		c1.7,0.5,3.1,1,5.9,1c3.6,0,7.8-1.1,8.5-1.3l2.3-1.4c0.8-0.9,7.1-7.4,8.3-8.9l0.4-0.5c1.6-2,5.9-7.4,7-10
		c1.3-2.9,5.2-11.2,5.2-11.3v-0.1c0,0,2.2-3.9,2.8-6.1c0.4-1.4,1.8-6.9,1-17.5l1.9-0.2c0.9,10.9-0.6,16.7-1.1,18.2
		c-0.7,2.3-2.8,6.1-3,6.5c-0.2,0.5-4,8.4-5.2,11.2s-5.5,8.1-7.3,10.4l-0.4,0.5c-1.3,1.7-8.2,8.8-8.5,9.1L62,89.5l-2.7,1.6h-0.1
		C59.1,91.6,54.3,92.9,50.2,92.9z"/>
</g>
<g>
	<path fill="#FF6200" d="M84.8,37.8l-1.9-0.3c0-0.2,0.9-4.8,4.7-4.8c1.8,0,3.5,0.2,4.7,0.4c0.5,0.1,1.1,0.1,1.3,0.1l0,0h0.2
		c0.7-0.1,1.4-0.5,1.4-0.7s0-0.3,0-0.6c0.1-1.4,0.4-4-1.7-8.1c-1.7-3.3-4-5.2-5.5-5.6c-0.4-0.1-0.6-0.1-0.6,0l-0.8,0.6l-0.3-0.3
		c-0.2,0.2-0.6,0.6-1.1,1.4s-0.8,1.5-1,2.2c-0.6,1.6-1.3,3.3-4,3.4c-2,0-3.2,0-3.5,0l0.4-1.9l-0.2,0.9l0.1-0.9c0,0,0.5,0,3.1,0
		c1.3,0,1.6-0.5,2.2-2.2c0.3-0.8,0.6-1.6,1.2-2.5c1-1.7,1.9-2.5,2.7-2.5c0.1,0,0.2,0,0.2,0c0.4-0.2,0.9-0.2,1.6-0.1
		c2,0.4,4.9,2.6,7,6.7c2.3,4.6,2,7.7,1.9,9.2c0,0.2,0,0.3,0,0.5c-0.1,1.7-2.2,2.3-2.8,2.4c-0.4,0.2-1,0.1-2.2-0.1
		c-1.2-0.2-2.8-0.4-4.4-0.3C85.4,34.6,84.8,37.8,84.8,37.8z"/>
</g>
<g>
	<path fill="#FF6200" d="M32,89.9h-0.2c-0.3,0-7.4-0.1-11.1-5.4c-2-2.9-2.9-5.7-2.4-7.6c0.2-0.9,0.7-1.6,1.4-2
		c1.1-0.6,1.9-0.5,2.7-0.5c0.2,0,0.4,0,0.6,0c0.4-0.1,1.8-0.9,3-1.7c-0.7-1.3-2.2-4.1-4.4-7.9c-2.5-4.3-3.2-7.4-3.5-8.6
		c-0.5-0.2-1.6-0.5-3.1-0.6c-3.7-0.4-5.2,1.8-5.2,1.9l-0.1,0.1l-0.1,0.1c-0.8,0.8-1.6,1.2-2.4,1.2c-0.4,0-0.8-0.1-1-0.3
		c-0.9-0.3-1.9-1.5-3-6.6c-0.7-3.1-1.1-6.4-1.1-7.5c0-2.2,1.2-4.6,2.3-5c0.5-0.2,1.1,0,2.2,0.5c1,0.4,2.4,0.9,3.8,1.1
		c1.8,0.2,3.9-1.2,4.3-1.8c-0.1-1.4,0-6.9,1.3-10.7c1.4-4.1,8.7-10.1,9-10.4c0.3-0.2,1-0.9,1.4-1.5c-0.2-0.4-1.2-1.2-2.1-1.7
		L24,14.7l-0.1-0.3c-0.1-0.3-0.7-1.6-0.7-2.5c0-1.4,2-2.7,3.2-2.7c0.3,0,1.1-0.1,1.8-0.2c1.3-0.2,2.7-0.4,3.6-0.4
		c0.6,0,1.6-0.2,2.6-0.3c1.2-0.2,2.5-0.4,3.5-0.4c0.9,0,1.6,0,2.3,0.1c0.8-0.1,1.5,0,2.4,0c0.9,0,3.3-0.1,5.7-0.2
		c2.6-0.1,5.2-0.2,6.2-0.2c1.1,0,4.2,0.3,7.4,0.6c2.8,0.3,5.8,0.5,7.4,0.6c2.8,0.1,4.6,0.8,5.9,1.3c0.4,0.2,0.8,0.3,1.2,0.4
		c1.8,0.5,3.5,2.3,3.9,4.1c0.4,1.6-0.9,2.9-1.8,3.8c-0.3,0.3-0.5,0.5-0.7,0.8c-0.1,0.1-0.1,0.1-0.1,0.2c0.1,0.2,0.6,0.5,0.9,0.8
		l0.2,0.2c1.2,0.9,3.1,3,3.2,3.1l-1.4,1.3c0,0-1.9-2.1-3-2.9l-0.2-0.2c-0.8-0.6-1.5-1.1-1.7-2c-0.1-0.5,0.1-1.1,0.5-1.6
		c0.2-0.3,0.5-0.6,0.9-0.9c0.7-0.7,1.4-1.5,1.3-2.1c-0.3-1.2-1.5-2.4-2.6-2.8c-0.4-0.1-0.9-0.3-1.3-0.4c-1.3-0.5-2.9-1.1-5.3-1.2
		c-1.7-0.1-4.6-0.4-7.5-0.6c-3.1-0.3-6.2-0.6-7.2-0.6s-3.6,0.1-6.2,0.2c-2.5,0.1-4.9,0.2-5.7,0.2c-0.9,0-1.7,0-2.4-0.1
		c-0.7,0-1.4-0.1-2.3-0.1c-0.8,0-2,0.2-3.2,0.4c-1.1,0.2-2.2,0.3-2.9,0.3c-0.8,0-2.2,0.2-3.3,0.4c-1.1,0.2-1.7,0.3-2.1,0.3
		c-0.3,0-1.1,0.6-1.2,0.9c0,0.3,0.2,1,0.4,1.4c1.6,1,3.3,2.5,2.6,3.9c-0.6,1.1-1.8,2.2-2,2.3c-2,1.6-7.4,6.5-8.4,9.5
		c-1.3,3.7-1.4,9.3-1.2,9.9c0.1,0.5-0.1,1-0.6,1.6c-1,1.1-3.5,2.5-5.8,2.2C8.5,42.6,7,42,5.9,41.6c-0.3-0.1-0.6-0.2-0.9-0.3
		c-0.4,0.5-1,1.7-1,3.1c0,2.2,1.6,11.1,2.8,12.2H7l0.2,0.2l0,0c0.1,0,0.4,0,1-0.6c0.4-0.6,2.5-3.2,7-2.7c2.7,0.3,4.1,1,4.2,1
		l0.5,0.2l0.1,0.5c0,0,0.4,3.4,3.3,8.5c3.1,5.4,4.8,8.7,4.8,8.7l0.4,0.7l-0.7,0.5c-1.3,1-3.7,2.6-4.8,2.6c-0.2,0-0.5,0-0.7,0
		c-0.6,0-1.1-0.1-1.7,0.3c-0.2,0.1-0.4,0.4-0.5,0.8c-0.2,0.7-0.3,2.6,2.2,6.1c2.8,4.1,8.4,4.5,9.4,4.6c0.4-0.2,1.1-0.6,1.4-1.1
		c0.1-0.2,0.1-0.4,0-0.6c-0.9-2.4,1.9-5.9,2.4-6.6l1.5,1.2c-1.1,1.3-2.5,3.6-2.1,4.6c0.3,0.7,0.3,1.5-0.1,2.1
		c-0.7,1.4-2.4,2.1-2.6,2.1L32,89.9z"/>
</g>
<g>
	<path fill="#FF6200" d="M15.8,28.8c0,0-0.5-2.2-2.1-2.7c-0.7-0.2-1.4-0.4-2.1-0.5c-1.8-0.4-3.1-0.7-3.7-1.5c0,0-0.2-0.1-0.3-0.2
		c-1-0.7-1.8-1.6-0.9-4c1.2-3.1,4.9-7.2,7.9-8.6c1.9-0.9,4.5-1.6,5.8-0.8c0.5,0.3,0.8,0.9,0.7,1.5c-0.1,2.2,2.3,6,3.9,6.7l-0.7,1.8
		c-2.5-1-5.1-5.5-5-8.4C18.9,12,17.6,12,15.5,13c-2.5,1.2-5.9,5-6.9,7.6c-0.5,1.3-0.3,1.5,0.2,1.8C9,22.5,9.3,22.7,9.5,23
		c0.3,0.2,1.7,0.6,2.6,0.8c0.7,0.2,1.4,0.3,2.2,0.6c2.7,0.8,3.4,3.9,3.5,4.1L15.8,28.8l0.9-0.2L15.8,28.8z"/>
</g>
<g>
	<path fill="#FF6200" d="M62.7,71.4c-1.3,0-2.6-0.2-4-0.5c-1.3-0.4-2.2-1.1-2.6-2.2c-1.1-2.5,0.3-6,0.9-7.2c0-0.1,0.1-0.1,0.1-0.2
		l0,0l0,0l0,0l0,0c0.5-0.7,4.9-7,11.4-3.2c2.1,1.2,3.3,2.5,3.6,4c0.5,2-0.8,3.8-1.7,5.2c-0.3,0.5-0.6,0.9-0.8,1.2
		C68.7,70.3,65.9,71.4,62.7,71.4z M57.9,61.8c0,0-0.1,0.1-0.1,0.2c-0.7,1.2-1.7,4.4-0.9,6.4c0.4,0.8,1,1.4,2,1.7
		c4.6,1.3,8.8,0,9.9-2c0.2-0.4,0.5-0.9,0.8-1.3c0.9-1.3,2-2.9,1.6-4.4c-0.3-1.2-1.3-2.3-3.2-3.4c-2.5-1.4-5-1.4-7.4,0.2
		C59.1,60.1,58,61.6,57.9,61.8z"/>
</g>
<g>
	<path fill="#FF6200" d="M62,73.8c-4.2,0-7-1.5-8.5-4.4c-2-4.1-1.4-8.5,1.5-10.7l0.8,1.2c-2.3,1.7-2.8,5.4-1.1,8.9
		c1.5,3,4.9,4.1,10.2,3.3c4.5-0.7,7-4.9,8.5-8.1c1.2-2.6-0.4-5.6-2-6.9c-1.8-1.5-7.3-4.3-7.4-4.3l0.6-1.3c0.2,0.1,5.8,2.9,7.7,4.5
		c2.2,1.9,3.7,5.6,2.3,8.6C73,68,70.2,72.7,65,73.5C64.1,73.7,63,73.8,62,73.8z"/>
</g>
<g>
	<path fill="#FF6200" d="M52.2,66.1c-0.2-0.1-3.9-1.8-4-5.6v-0.1c-0.1-3.4-0.2-6.1,3.7-10.5c2.7-3,7.5-3.5,9.4-3.5
		c2.1-0.1,5,0.2,6,1.3c1.6,1.6,3.5,6.5,3.5,7.2h-1.4c-0.1-0.6-1.7-4.9-3.1-6.2c-0.4-0.4-2.2-0.9-5-0.8c-3.7,0.1-6.8,1.3-8.4,3.1
		c-3.5,4-3.5,6.3-3.4,9.5v0.1c0.1,2.9,3.1,4.3,3.1,4.3L52.2,66.1z"/>
</g>
<g>
	<path fill="#FF6200" d="M33.8,43.3L33.8,43.3c-1.5,0-2.6-0.4-3.3-0.8c-3-1.5-3.6-7.6-3.6-9.1c0-1.8,3.3-5,3.7-5.4l0.1-0.1
		c1.2-0.7,2.6-1.1,4.1-1.1c3.2,0,6.5,1.7,7.9,4.2c1.1,1.9,1.1,4.1-0.1,6.1C39.5,42.6,35.8,43.3,33.8,43.3z M31.1,28.8
		c-1.3,1.3-3.4,3.7-3.4,4.7c0,1.7,0.8,7,3.1,8.2c0.6,0.3,1.6,0.7,2.9,0.7l0,0c1.8,0,5.2-0.7,7.9-5.6c1-1.8,1-3.5,0.1-5.2
		c-1.3-2.2-4.2-3.7-7.1-3.7C33.4,27.9,32.1,28.2,31.1,28.8z"/>
</g>
<g>
	<path fill="#FF6200" d="M34.5,46.2c-1.1,0-2.3-0.2-3.6-0.8c-4.5-1.8-7-7.2-6.5-11.2c0.3-2.8,1.1-9.5,11.9-10.3l0,0c0,0,0.1,0,0.3,0
		c1.3,0,5.5,0.4,7.9,5.2c2.6,5.3,1.7,10.2-2.5,13.6C39.4,44.9,37.1,46.2,34.5,46.2z M36.6,25.4c-0.1,0-0.2,0-0.2,0
		c-8.4,0.6-10,4.7-10.6,9.1c-0.4,3.4,1.8,8.2,5.6,9.7c1.1,0.4,2.1,0.7,3.1,0.7c2.3,0,4.2-1.2,6.6-3.1c3.6-2.9,4.4-7.2,2.1-11.8
		C41.2,25.7,37.6,25.4,36.6,25.4z"/>
</g>
<g>
	<path fill="#FF6200" d="M41.2,47.5c-1.7,0-3.2-0.4-4.1-0.7c-0.6-0.2-1.2-0.6-1.2-1.2h1.4c0-0.2-0.1-0.4-0.2-0.4
		c0.4,0.3,6.3,2.6,10.7-1.8c5.4-5.4,0.2-11.1-0.5-11.7c-1.9-2-3.3-1.9-3.3-1.9l-0.1-1.4c0.2,0,2.1-0.1,4.5,2.4
		c2.6,2.7,5.6,8.6,0.4,13.7C46.5,46.8,43.6,47.5,41.2,47.5z"/>
</g>
<g>
	<path fill="#FF6200" d="M87.8,75.5c-0.1,0-0.3,0-0.4,0c-0.8-0.2-1.3-0.9-1.7-1.6c-0.9-1.6-1.2-1.9-2.6-2.6c-1.2-0.6-4.5-0.9-5.6-1
		l0.2-1.9c0.5,0,4.6,0.4,6.3,1.2c1.8,0.8,2.4,1.4,3.4,3.4c0.2,0.4,0.4,0.6,0.4,0.6c0.2-0.1,0.6-0.4,0.9-0.6l0.3-0.2
		c0.9-0.7,3.3-7,4.3-9.6c0.4-1.1,0.8-2,1-2.5c0.1-0.3,0.2-0.6,0.1-0.8c0,0,0,0,0-0.1c-0.6,0.2-1.8,0.3-5.3,0.1L89,60
		c-4.4-0.5-5.5-4.8-5.5-5l1.8-0.5l-0.9,0.2l0.9-0.2c0,0.1,0.9,3.2,3.9,3.6c1.7,0.1,3.7,0.1,4.4,0c0.1-0.1,0.2-0.1,0.3-0.2
		c0.6-0.3,1.3,0.1,1.8,0.6c0.3,0.4,1.1,1.4,0.4,3c-0.2,0.4-0.5,1.3-1,2.4c-2.5,6.4-3.9,9.7-5,10.5l-0.3,0.2
		C89.1,75.1,88.5,75.5,87.8,75.5z"/>
</g>
<g>
	<path fill="#FF6200" d="M93.9,34.6L93.9,34.6c-1.6-0.1-3.7-2.1-6.6-5.9c-5.4-7.2-1.5-11.4-1.3-11.5l1,1l-0.5-0.5l0.5,0.5
		c-0.1,0.1-3.2,3.5,1.4,9.7c4.1,5.4,5.4,5.3,5.4,5.3s-0.1,0-0.2,0.1l1,1C94.8,34.3,94.5,34.6,93.9,34.6z"/>
</g>
<g>
	<path fill="#FF6200" d="M7.6,58.3v-1.4c-0.2,0-0.3,0.1-0.3,0.2c0.3-0.5,0.1-3.3-0.1-5.3C7.1,50.1,7,48.4,7,46.9
		c0-3.6-3.1-5.2-3.2-5.2l0.6-1.3c0.2,0.1,4.1,2,4.1,6.5c0,1.4,0.1,3.1,0.2,4.7C8.9,55.7,9,57.3,8.4,58C8.2,58.2,7.9,58.3,7.6,58.3z"
		/>
</g>
<g>
	<path fill="#FF6200" d="M34.3,87.9L33,87.3c0,0.1-0.1,0.2-0.1,0.2s0.1-1.2-2.8-6.1c-3.1-5.3-8.8-5.1-9-5L21,75
		c0.3,0,6.8-0.3,10.3,5.8C33.1,83.3,34.9,86.8,34.3,87.9z"/>
</g>
<g>
	<path fill="#FF6200" d="M28.7,88.7l-0.4-0.9c0.2-0.1,1.5-0.7,2.4-0.7c0,0,0.1-0.2,0.2-0.5c0.1-0.5,0-2.4-3.2-5.3
		c-3.5-3.1-6-2.8-6.8-2.5l-0.1,2.8h-1l0.2-3.4l0.3-0.1c0.1-0.1,3.5-1.5,8.1,2.6c3.3,2.9,3.9,5.4,3.4,6.7c-0.2,0.5-0.6,0.8-1,0.8
		C30.1,88.1,29,88.5,28.7,88.7z"/>
</g>
<g>
	<path fill="#FF6200" d="M95.8,32.9c-2.6,0-5.3-4.6-7.3-8.1c-0.4-0.6-0.7-1.2-1-1.7c-1.1-1.8,0.5-4.6,1-5.5c0.1-0.1,0.1-0.2,0.1-0.2
		l0.4,0.2l0,0l-0.3-0.4h0.6c0.3,0.3,0.1,0.6,0,0.8c-1.2,2.1-1.6,3.6-1,4.5c0.3,0.5,0.6,1,1,1.7c1.6,2.9,4.4,7.7,6.5,7.6L95.8,32.9
		C95.8,32.9,95.8,32.9,95.8,32.9z"/>
</g>
<g>
	<path fill="#FF6200" d="M6.2,56.4c-0.2,0-0.3-0.1-0.5-0.2l0.6-0.7c-0.1,0-0.2,0-0.2,0.1c0.2-0.3,0-2.3-0.2-3.5
		c-0.1-1.2-0.3-2.4-0.3-3.4c0-2.5-2.4-5-2.5-5.1L3.7,43c0.1,0.1,2.7,2.9,2.7,5.7c0,0.9,0.1,2.1,0.3,3.3c0.3,3,0.4,4-0.2,4.4
		C6.4,56.4,6.3,56.4,6.2,56.4z"/>
</g>
<g>
	<path fill="#FF6200" d="M50.3,16.4L50.3,16.4c-5.6,0-10.5-0.2-14.6-0.7c-4.9-0.5-7.9-1.6-9-3.2c-0.5-0.8-0.4-1.5-0.3-1.6l0.1-0.4
		l15.6-2.2h0.1l20,0.1h0.1c0.1,0,12.4,2.8,14.7,3.2c0.8,0.1,1.3,0.5,1.3,1c0,0.3,0.2,1.2-2.8,2.6l-0.1,0.1h-0.1
		C75.1,15.3,62.9,16.4,50.3,16.4z M27.9,11.7c0,0,0,0.1,0.1,0.1c0.5,0.7,2.2,1.9,7.9,2.5c4,0.4,8.9,0.7,14.5,0.7
		c11.9,0,23.3-1,24.6-1.1c0.6-0.3,1.2-0.6,1.5-0.9c-2.7-0.5-13.5-3-14.6-3.2L42.2,9.7L27.9,11.7z"/>
</g>
<g>
	<path fill="#FF6200" d="M55.4,19.5c-12.8,0-26.8-1.3-30.4-4.3l0.6-0.7c5.2,4.2,35,5,47.7,2.9c3.9-0.6,4.7-1.3,4.9-1.6l0.8,0.5
		c-0.3,0.5-1.3,1.3-5.5,2C68.9,19.1,62.3,19.5,55.4,19.5z"/>
</g>
</svg>
