<?xml version="1.0" encoding="utf-8"?>
<!-- Generator: Adobe Illustrator 18.0.0, SVG Export Plug-In . SVG Version: 6.00 Build 0)  -->
<!DOCTYPE svg PUBLIC "-//W3C//DTD SVG 1.1//EN" "http://www.w3.org/Graphics/SVG/1.1/DTD/svg11.dtd">
<svg version="1.1" id="Layer_1" xmlns="http://www.w3.org/2000/svg" xmlns:xlink="http://www.w3.org/1999/xlink" x="0px" y="0px"
	 width="50px" height="50px" viewBox="-20 -20 50 50" enable-background="new -20 -20 50 50" xml:space="preserve">
<g>
	<path d="M-7.3,11.3c-3.1,0-5.6-2.5-5.6-5.6c0-3.1,2.5-5.6,5.6-5.6s5.6,2.5,5.6,5.6C-1.7,8.8-4.2,11.3-7.3,11.3z M-7.3,0.6
		c-2.8,0-5.1,2.3-5.1,5.1c0,2.8,2.3,5.1,5.1,5.1s5.1-2.3,5.1-5.1C-2.3,2.9-4.5,0.6-7.3,0.6z"/>
</g>
<g>
	<path d="M11-2C7.3-2,4.4-5,4.4-8.6s3-6.6,6.6-6.6s6.6,3,6.6,6.6S14.7-2,11-2z M11-14.7c-3.4,0-6.1,2.7-6.1,6.1S7.6-2.5,11-2.5
		s6.1-2.7,6.1-6.1S14.4-14.7,11-14.7z"/>
</g>
<g>
	<path d="M11,24.3c-3.7,0-6.6-3-6.6-6.6S7.3,11,11,11s6.6,3,6.6,6.6S14.7,24.3,11,24.3z M11,11.5c-3.4,0-6.1,2.7-6.1,6.1
		s2.7,6.1,6.1,6.1s6.1-2.7,6.1-6.1S14.4,11.5,11,11.5z"/>
</g>
<g>
	<rect x="-3.5" y="10.9" transform="matrix(0.8186 0.5743 -0.5743 0.8186 6.7265 1.0742)" width="10.2" height="0.5"/>
</g>
<g>
	<rect x="0.9" y="-7.3" transform="matrix(0.5939 0.8046 -0.8046 0.5939 -0.7597 -1.5952)" width="0.5" height="11.5"/>
</g>
</svg>
