<?xml version="1.0" encoding="utf-8"?>
<!-- Generator: Adobe Illustrator 18.0.0, SVG Export Plug-In . SVG Version: 6.00 Build 0)  -->
<!DOCTYPE svg PUBLIC "-//W3C//DTD SVG 1.1//EN" "http://www.w3.org/Graphics/SVG/1.1/DTD/svg11.dtd">
<svg version="1.1" id="Layer_1" xmlns="http://www.w3.org/2000/svg" xmlns:xlink="http://www.w3.org/1999/xlink" x="0px" y="0px"
	 width="39.6px" height="25px" viewBox="0 0 39.6 25" enable-background="new 0 0 39.6 25" xml:space="preserve">
<g>
	<path fill="#EF7E3F" d="M37.6,16.1L19,2.3L2,16.4l9,7.2l7.9-6.4l0.5,0.3l0.1,5.4l10.4,0.4l0.5,0.3L37.6,16.1z M18.6,14.5l-7.6,6.2
		l-5.4-4.4L19.1,5.1l15.1,11.3l-4.3,4.5L18.6,14.5z"/>
	<g>
		<rect x="18.6" y="9.1" fill="#EF7E3F" width="2.3" height="1.9"/>
	</g>
	<g>
		<rect x="15.5" y="11.4" fill="#EF7E3F" width="2.3" height="1.9"/>
	</g>
	<g>
		<rect x="12.3" y="13.3" fill="#EF7E3F" width="2.3" height="1.9"/>
	</g>
	<g>
		<rect x="9.1" y="16" fill="#EF7E3F" width="2.3" height="1.9"/>
	</g>
	<g>
		<rect x="21.3" y="11.6" fill="#EF7E3F" width="2.3" height="1.9"/>
	</g>
	<g>
		<rect x="24.5" y="13.5" fill="#EF7E3F" width="2.3" height="1.9"/>
	</g>
	<g>
		<rect x="28.2" y="15.7" fill="#EF7E3F" width="2.3" height="1.9"/>
	</g>
</g>
</svg>
