<?xml version="1.0" encoding="utf-8"?>
<!-- Generator: Adobe Illustrator 18.0.0, SVG Export Plug-In . SVG Version: 6.00 Build 0)  -->
<!DOCTYPE svg PUBLIC "-//W3C//DTD SVG 1.1//EN" "http://www.w3.org/Graphics/SVG/1.1/DTD/svg11.dtd">
<svg version="1.1" id="Layer_1" xmlns="http://www.w3.org/2000/svg" xmlns:xlink="http://www.w3.org/1999/xlink" x="0px" y="0px"
	 width="25.4px" height="34.6px" viewBox="8 -2.2 25.4 34.6" enable-background="new 8 -2.2 25.4 34.6" xml:space="preserve">
<g>
	<path fill="#EF7E3F" d="M18,30.7l13.4-16.1L17.8,0l-6.2,7.8l5.8,6.8l-5.8,0.5l0,9.4L18,30.7z M19.8,15l-6.5-7.2l4.6-5.7l11.6,12.7
		L18,28.9l-4.9-4.7L19.8,15z"/>
	<g>
		<rect x="23.9" y="14.3" fill="#EF7E3F" width="1.6" height="2"/>
	</g>
	<g>
		<rect x="21.9" y="11.4" fill="#EF7E3F" width="1.6" height="2"/>
	</g>
	<g>
		<rect x="19.4" y="8.7" fill="#EF7E3F" width="1.6" height="2"/>
	</g>
	<g>
		<rect x="16.8" y="5.9" fill="#EF7E3F" width="1.6" height="2"/>
	</g>
	<g>
		<rect x="21.4" y="17.2" fill="#EF7E3F" width="1.6" height="2"/>
	</g>
	<g>
		<rect x="19.2" y="20.3" fill="#EF7E3F" width="1.6" height="2"/>
	</g>
	<g>
		<rect x="16.5" y="22.9" fill="#EF7E3F" width="1.6" height="2"/>
	</g>
</g>
</svg>
