<?xml version="1.0" encoding="utf-8"?>
<!-- Generator: Adobe Illustrator 18.0.0, SVG Export Plug-In . SVG Version: 6.00 Build 0)  -->
<!DOCTYPE svg PUBLIC "-//W3C//DTD SVG 1.1//EN" "http://www.w3.org/Graphics/SVG/1.1/DTD/svg11.dtd">
<svg version="1.1" id="Layer_1" xmlns="http://www.w3.org/2000/svg" xmlns:xlink="http://www.w3.org/1999/xlink" x="0px" y="0px"
	 width="100px" height="100px" viewBox="0 0 100 100" enable-background="new 0 0 100 100" xml:space="preserve">
<g>
	<path fill="#F5F5FA" d="M2.6,36.3c0-0.1,0-0.1,0-0.2c0.3-0.2,0.6-0.4,1-0.7c5.6-4.5,11.1-9.2,16.8-13.6c2.1-1.7,4.6-3,7-4.1
		c5-2.3,10.3-0.6,13.3,4c1.3,2,2.1,4.2,2.6,6.4c0.9,4.4,1.7,8.8,2.4,13.3c1,5.9,2.1,11.7,4.3,17.3c0.6,1.6,1.5,3.1,2.5,4.5
		c1.1,1.5,2.4,1.6,4,0.6c0.8-0.5,1.5-1.2,2.2-1.8c4-4.4,7.2-9.4,9.7-14.7c0.9-1.9,1.5-3.9,1.5-6c0.1-3.1-1.3-5.3-3.9-5.8
		c-1.4-0.3-2.9-0.3-4.4-0.1c-1.6,0.2-3.3,0.7-4.9,1c0.9-3,2.2-5.8,3.8-8.5c2.5-4.1,5.8-7.3,10.2-9.4c4.5-2.2,9.3-2.8,14.2-2.3
		c6.2,0.6,10,3.9,11.4,9.9c0.3,1.1,0.4,2.2,0.6,3.3c0,1.5,0,3.1,0,4.6c-0.2,1.2-0.4,2.5-0.7,3.7c-1.4,5.9-4.3,11.1-7.5,16.2
		c-4,6.3-8.6,12-13.5,17.7c-4.5,5.2-9.3,10.2-14.9,14.3c-3.4,2.5-7.1,4.6-11.2,5.7c-4.5,1.2-8.5,0.4-11.7-3.2
		c-2.9-3.2-4.9-7-6.3-11.1c-1.6-4.8-2.9-9.7-4.4-14.5c-1.7-5.5-3.4-11.1-5.2-16.5c-0.9-2.7-2.2-5.3-4.3-7.3
		c-1.4-1.3-2.6-1.5-4.2-0.6c-1.7,0.9-3.3,2-5,3c-0.3,0.2-0.6,0.3-0.9,0.5C5.5,39.7,4,38,2.6,36.3z"/>
</g>
</svg>
