<?xml version="1.0" encoding="utf-8"?>
<!-- Generator: Adobe Illustrator 21.0.0, SVG Export Plug-In . SVG Version: 6.00 Build 0)  -->
<svg version="1.1" id="Layer_1" xmlns="http://www.w3.org/2000/svg" xmlns:xlink="http://www.w3.org/1999/xlink" x="0px" y="0px"
	 viewBox="0 0 43.4 20.4" style="enable-background:new 0 0 43.4 20.4;" xml:space="preserve">
<style type="text/css">
	.st0{fill:#EB6209;}
	.st1{fill:#CF6E21;}
	.st2{fill:#9F4A0F;}
</style>
<path class="st0" d="M4.1,15.1c0,0,1.4-3.1,4.5-11.1c0,0,0.9-0.1,1.8-0.1c3.2,8.1,4.6,11.2,4.6,11.2L15,15.3c0,0-0.9,0.1-2,0.1
	l-1.2-3.5H7.4c-0.8,2.3-1.1,3.5-1.1,3.5c-1,0-1.9-0.1-1.9-0.1L4.1,15.1z M11.2,10.4L9.5,5.8l-1.8,4.5H11.2z"/>
<path class="st1" d="M19.4,13.1l0.1-0.1c0,0,1.1,0.9,2.5,0.9c1,0,1.8-0.8,1.8-1.8c0.1-2.3-4.5-1.6-4.5-5c0-2,1.6-3.2,3.5-3.2
	c1.4,0,2.4,0.4,2.4,0.4C25.2,5.1,25,5.9,25,5.9L24.8,6c0,0-0.9-0.5-2.1-0.5c-0.9,0-1.6,0.6-1.6,1.4c-0.1,2.2,4.5,1.6,4.5,5.1
	c0,2.1-1.7,3.6-3.7,3.6c-1.6,0-3.1-0.8-3.1-0.8C19,13.9,19.4,13.1,19.4,13.1z"/>
<path class="st2" d="M37.9,10.2c0,0,0.7-0.1,1.7-0.1l0.1,0.1c-0.1,1.1-0.1,3.3,0,4.5c0,0-2.3,1.1-4.6,1.1c-3.1,0-5.1-2.3-5.1-5.9
	c0-3.4,2.2-5.9,5.7-5.9c2,0,3.6,0.6,3.6,0.6C39.3,5.4,39,6.2,39,6.2l-0.1,0.1C35.2,4.7,32,5.6,32,9.6c0,2.8,1.1,4.5,3.3,4.5
	c1.4,0,2.5-0.4,2.5-0.4c0-2.1-0.1-3.6-0.1-3.6L37.9,10.2z"/>
</svg>
