<?xml version="1.0" encoding="utf-8"?>
<!-- Generator: Adobe Illustrator 18.0.0, SVG Export Plug-In . SVG Version: 6.00 Build 0)  -->
<!DOCTYPE svg PUBLIC "-//W3C//DTD SVG 1.1//EN" "http://www.w3.org/Graphics/SVG/1.1/DTD/svg11.dtd">
<svg version="1.1" id="Layer_1" xmlns="http://www.w3.org/2000/svg" xmlns:xlink="http://www.w3.org/1999/xlink" x="0px" y="0px"
	 width="230px" height="121.3px" viewBox="0 0 230 121.3" enable-background="new 0 0 230 121.3" xml:space="preserve">
<g id="Layer_2_1_">
	<g id="Layer_1_3_">
		<g>
			<path fill="#FFFFFF" d="M6.6,20c0,0,0.1-5.4,0.1-15C4,5,1.8,5.2,1.8,5.2C1.9,4.7,2,4.4,2,4.4l0.1-0.1c1.5,0,8,0,10.2,0l0.1,0.1
				c0,0.3,0,0.7,0,0.7l-0.1,0.1c0,0-2-0.1-4.8-0.1c0,8.7,0.1,15,0.1,15l-0.1,0.1C7.5,20.1,7.1,20.1,6.6,20L6.6,20z"/>
			<path fill="#FFFFFF" d="M23.2,20L23.2,20c-0.1,0.1-0.4,0.1-0.8,0.1L22.3,20c0,0,0.2-5,0.2-8.1c0-1.8-0.9-2.7-2.5-2.7
				c-1.9,0-3.4,1.7-3.4,1.7c0,6,0,9.1,0,9.1l-0.1,0.1c-0.3,0-0.7,0-0.7,0L15.6,20c0.1-3,0-15.7-0.1-18.7l0.1-0.1
				c0,0,0.4-0.1,0.9-0.1c0,0-0.1,2.6-0.1,9.3c1.1-1.1,2.4-1.8,3.8-1.8c1.6,0,3.1,1,3.1,3.1C23.4,13.3,23.3,17.6,23.2,20z"/>
			<path fill="#FFFFFF" d="M30.9,20.3c-2.6,0-3.8-2.5-3.8-6.4c0-3.1,1.4-5.5,4.4-5.5c2.4,0,3.7,1.8,3,5.1l-6.6,0.3
				c0,2.9,0.7,5.7,3.1,5.7c1.6,0,2.9-1.1,2.9-1.1l0.2,0.1c0,0,0.1,0.3,0.1,0.6C34.3,19.2,32.8,20.3,30.9,20.3z M33.8,12.9
				c0.3-2.3-0.4-3.8-2.5-3.8c-2.2,0-3.3,1.5-3.4,4.2L33.8,12.9z"/>
		</g>
		<g>
			<path fill="#FFFFFF" d="M45.8,19.9c0,0,1.9-4.3,6.3-15.5c0,0,1.3-0.1,2.5-0.1C59.1,15.5,61,19.9,61,19.9l-0.1,0.2
				c0,0-1.3,0.1-2.7,0.1l-1.7-4.8h-6.2c-1.1,3.2-1.6,4.8-1.6,4.8c-1.4,0-2.6-0.1-2.6-0.1L45.8,19.9z M55.6,13.3L53.3,7l-2.4,6.3
				H55.6z"/>
			<path fill="#FFFFFF" d="M78,4.5L78,4.5c1.5-0.1,5.7-0.1,7.5-0.2l0.1,0.1c0,1.1-0.1,2-0.1,2l-0.1,0.1c0,0-1.5-0.1-4.8-0.1v4.7
				c2.9,0,4.5-0.1,4.5-0.1l0.1,0.1c0,1.1-0.1,1.9-0.1,1.9L85,13.1c0,0-1.3-0.1-4.4-0.1c0,4.9,0.1,6.6,0.1,6.6l-0.1,0.2
				c0,0-1,0.1-2.6,0.1C78.1,18.5,78.1,6.1,78,4.5z"/>
			<path fill="#FFFFFF" d="M103.3,4.5L103.3,4.5c0.1-0.1,2-0.2,4.7-0.2c3.2,0,5.1,1.3,5.1,4.2c0,2-1.3,3.7-3.1,4.5
				c2.5,4,4.4,6.7,4.4,6.7l-0.1,0.2c0,0-1.2,0.2-2.8,0.4l-3.9-6.8h-1.8c0,4.9,0.1,6.4,0.1,6.4l-0.1,0.2c0,0-0.9,0.1-2.6,0.1
				C103.3,18.5,103.3,6.2,103.3,4.5z M107.7,11.7c1.6,0,2.8-1.2,2.8-2.8c0-1.7-1.1-2.5-2.7-2.5c-1.2,0-1.9,0.1-1.9,0.1v5.2
				C105.9,11.6,106.4,11.7,107.7,11.7z"/>
			<path fill="#FFFFFF" d="M131.7,20c0.1-1.6,0.1-13.8,0-15.4l0.1-0.2c0,0,1-0.1,2.6-0.1c-0.1,1.6-0.1,14,0,15.7l-0.1,0.1
				c0,0-0.9,0.1-2.5,0.1L131.7,20z"/>
			<path fill="#FFFFFF" d="M164.4,17c0,0,0.2,0.9,0.5,2.2c0,0-2.5,1.2-5.3,1.2c-4.4,0-7.1-3.2-7.1-8.2c0-4.7,3.1-8.2,8-8.2
				c2.4,0,4.6,0.8,4.6,0.8c-0.1,1.3-0.4,2.4-0.4,2.4l-0.2,0.1c-4.5-2.2-9.2-0.9-9.2,4.6c0,3.7,1.6,6.1,4.6,6.1
				c2.1,0,4.3-1.2,4.3-1.2L164.4,17z"/>
			<path fill="#FFFFFF" d="M181.3,19.9c0,0,1.9-4.3,6.3-15.5c0,0,1.3-0.1,2.5-0.1c4.4,11.2,6.3,15.6,6.3,15.6l-0.1,0.2
				c0,0-1.3,0.1-2.7,0.1l-1.7-4.8h-6.2c-1.1,3.2-1.6,4.8-1.6,4.8c-1.4,0-2.6-0.1-2.6-0.1L181.3,19.9z M191.1,13.3L188.8,7l-2.4,6.3
				H191.1z"/>
			<path fill="#FFFFFF" d="M213.6,20c0.1-1.6,0.1-14,0-15.7c0,0,1.2-0.1,2.8-0.1l8.5,11.5c0-8.7-0.1-11.3-0.1-11.3l0.1-0.1
				c0,0,0.8-0.1,2.1-0.1l0.1,0.1c-0.1,1.6-0.1,14,0,15.7c0,0-1,0.1-2,0.1l-9.2-12.5c0,8.6,0.1,12.3,0.1,12.3l-0.1,0.1
				c0,0-0.9,0.1-2.1,0.1L213.6,20z"/>
		</g>
		<g>
			<path fill="#FFFFFF" d="M2.4,48.4l0.2-0.1c0,0,1.6,1.3,3.5,1.3c1.4,0,2.5-1.1,2.5-2.5c0.1-3.2-6.2-2.2-6.2-7
				c0-2.7,2.3-4.5,4.9-4.5c1.9,0,3.3,0.5,3.3,0.5c-0.1,1.1-0.4,2.2-0.4,2.2L10,38.5c0,0-1.3-0.7-2.9-0.7c-1.2,0-2.2,0.9-2.2,2
				c-0.1,3.1,6.2,2.2,6.2,7.1c0,2.9-2.4,5-5.2,5c-2.3,0-4.4-1.1-4.4-1.1C1.9,49.5,2.4,48.4,2.4,48.4z"/>
			<path fill="#FFFFFF" d="M40.5,51.5c0,0,0.1-3.9,0.1-13.5c-2.7,0-4.5,0.1-4.5,0.1c0.1-1.3,0.2-2.2,0.2-2.2l0.2-0.1
				c1.5,0.1,8.7,0.1,10.9,0l0.1,0.1c0,1-0.1,2-0.1,2L47.3,38c0,0-1.5-0.1-4.2-0.1c0,8.7,0.1,13.4,0.1,13.4l-0.1,0.1
				C43.1,51.4,42.1,51.5,40.5,51.5L40.5,51.5z"/>
			<path fill="#FFFFFF" d="M73.4,36l0.1-0.2c0,0,1.2-0.1,2.8-0.1c0,0-0.1,4.1-0.1,9.6c0,2.7,1.3,4.1,4,4.1c2.5,0,4.1-1.4,4.1-4.2
				c0-6.4-0.1-9.4-0.1-9.4l0.1-0.1c0,0,1.1-0.1,2.5-0.1l0.1,0.1c0,0-0.1,2.6-0.1,9.6c0,4.1-2.8,6.4-6.9,6.4c-3.9,0-6.4-2.2-6.4-6.3
				C73.5,38.2,73.4,36,73.4,36z"/>
			<path fill="#FFFFFF" d="M114.2,51.3c0.1-1.6,0.1-13.7,0-15.3l0.1-0.1c0,0,2.6-0.1,6.1-0.1c4.5,0,7.4,2.6,7.4,7.5
				c0,4.6-3.2,8.3-8.2,8.3c-3.3,0-5.3-0.1-5.3-0.1L114.2,51.3z M119.7,49.4c3.1,0,5.4-2.2,5.4-5.9c0-4-2.2-5.6-5.1-5.6
				c-1.9,0-3.1,0.1-3.1,0.1v11.3C116.9,49.4,117.9,49.4,119.7,49.4z"/>
			<path fill="#FFFFFF" d="M154.6,51.5c0.1-1.6,0.1-13.8,0-15.4l0.1-0.2c0,0,1-0.1,2.6-0.1c-0.1,1.6-0.1,14,0,15.7l-0.1,0.1
				c0,0-0.9,0.1-2.5,0.1L154.6,51.5z"/>
			<path fill="#FFFFFF" d="M184.8,51.5c0.1-1.6,0.1-13.9,0-15.5l0.1-0.1c1.4,0,5.6,0,7.4-0.1l0.1,0.1c0,1.1-0.1,2-0.1,2l-0.1,0.1
				c0,0-1.5-0.1-4.8-0.1v4.3c2.9,0,4.3-0.1,4.3-0.1l0.1,0.1c0,1.1-0.1,1.9-0.1,1.9l-0.1,0.1c0,0-1.2-0.1-4.2-0.1v5.1
				c3.4,0,5.4-0.1,5.4-0.1c-0.1,1.4-0.2,2.2-0.2,2.2l-0.2,0.1C191,51.3,187,51.3,184.8,51.5L184.8,51.5z"/>
			<path fill="#FFFFFF" d="M219.1,48.4l0.2-0.1c0,0,1.6,1.3,3.5,1.3c1.4,0,2.5-1.1,2.5-2.5c0.1-3.2-6.2-2.2-6.2-7
				c0-2.7,2.3-4.5,4.9-4.5c1.9,0,3.3,0.5,3.3,0.5c-0.1,1.1-0.4,2.2-0.4,2.2l-0.2,0.1c0,0-1.3-0.7-2.9-0.7c-1.2,0-2.2,0.9-2.2,2
				c-0.1,3.1,6.2,2.2,6.2,7.1c0,2.9-2.4,5-5.2,5c-2.3,0-4.4-1.1-4.4-1.1C218.7,49.5,219.1,48.4,219.1,48.4z"/>
		</g>
		<g>
			<path fill="#FFFFFF" d="M13.3,75.5c0,0,1-0.1,2.4-0.1l0.1,0.1c-0.1,1.6-0.1,4.6,0,6.3c0,0-3.2,1.5-6.4,1.5
				c-4.4,0-7.1-3.2-7.1-8.2c0-4.7,3.1-8.2,8-8.2c2.7,0,5,0.8,5,0.8c-0.1,1.3-0.4,2.4-0.4,2.4l-0.2,0.1c-5.1-2.2-9.6-0.9-9.6,4.6
				c0,3.9,1.6,6.2,4.6,6.2c1.9,0,3.5-0.5,3.5-0.5c0-2.9-0.1-5-0.1-5L13.3,75.5z"/>
			<path fill="#FFFFFF" d="M40.7,82.8c0,0,1.9-4.3,6.3-15.5c0,0,1.3-0.1,2.5-0.1c4.4,11.2,6.3,15.6,6.3,15.6L55.7,83
				c0,0-1.3,0.1-2.7,0.1l-1.7-4.8h-6.2c-1.1,3.2-1.6,4.8-1.6,4.8c-1.4,0-2.6-0.1-2.6-0.1L40.7,82.8z M50.5,76.2l-2.3-6.3l-2.4,6.3
				H50.5z"/>
			<path fill="#FFFFFF" d="M81.1,82.9c0.1-1.6,0.1-13.9,0-15.5l0.1-0.1c0,0,1.1-0.1,2.5-0.1l0.1,0.1c0,0-0.1,3.3-0.1,13.4
				c3.6,0,5.4-0.1,5.4-0.1c-0.1,1.4-0.2,2.3-0.2,2.3L88.7,83C87.3,82.9,83.3,82.9,81.1,82.9L81.1,82.9z"/>
			<path fill="#FFFFFF" d="M114.6,82.9c0.1-1.6,0.1-13.9,0-15.5l0.1-0.1c0,0,1.1-0.1,2.5-0.1l0.1,0.1c0,0-0.1,3.3-0.1,13.4
				c3.6,0,5.4-0.1,5.4-0.1c-0.1,1.4-0.2,2.3-0.2,2.3l-0.2,0.1c-1.4-0.1-5.4-0.1-7.5,0L114.6,82.9z"/>
			<path fill="#FFFFFF" d="M148.1,82.9c0.1-1.6,0.1-13.9,0-15.5l0.1-0.1c1.4,0,5.6,0,7.4-0.1l0.1,0.1c0,1.1-0.1,2-0.1,2l-0.1,0.1
				c0,0-1.5-0.1-4.8-0.1v4.3c2.9,0,4.3-0.1,4.3-0.1l0.1,0.1c0,1.1-0.1,1.9-0.1,1.9l-0.1,0.1c0,0-1.2-0.1-4.2-0.1v5.1
				c3.4,0,5.4-0.1,5.4-0.1c-0.1,1.4-0.2,2.2-0.2,2.2l-0.2,0.1C154.3,82.7,150.3,82.7,148.1,82.9L148.1,82.9z"/>
			<path fill="#FFFFFF" d="M182,67.5l0.1-0.1c0,0,1.9-0.1,4.6-0.1c3.2,0,5.1,1.3,5.1,4.2c0,2-1.3,3.7-3.1,4.5c2.5,4,4.4,6.7,4.4,6.7
				l-0.1,0.2c0,0-1.2,0.2-2.8,0.4l-3.9-6.8h-1.8c0,4.9,0.1,6.4,0.1,6.4l-0.1,0.2c0,0-0.9,0.1-2.6,0.1
				C182.1,81.4,182.1,69.1,182,67.5z M186.4,74.6c1.6,0,2.8-1.2,2.8-2.8c0-1.7-1.1-2.5-2.7-2.5c-1.2,0-1.9,0.1-1.9,0.1v5.2
				C184.6,74.5,185.1,74.6,186.4,74.6z"/>
			<path fill="#FFFFFF" d="M221.3,82.9c0,0,0.1-2,0.1-6.3c-3.2-6.1-4.9-9.1-4.9-9.1l0.1-0.2c0,0,1.3-0.1,2.8-0.1l3.4,6.9
				c2.3-4.4,3.2-6.9,3.2-6.9s1.1,0.1,2.7,0.1l0.1,0.2c0,0-1.7,3-4.9,9c0,4.1,0.1,6.3,0.1,6.3l-0.1,0.1c0,0-0.9,0.1-2.5,0.1
				L221.3,82.9z"/>
		</g>
		<path fill="#FFFFFF" d="M11.1,105.6c0,0.3,0,0.8,0,1.1l0.2,6.4c0,0.5-0.1,0.8-0.4,1l-0.5,0.3c-0.1,0.1-0.3,0.1-0.4,0.1H9.9v-8.4
			c0-0.7,0.1-1.2,0.2-1.6l0.1-0.2c0-0.1,0-0.2,0-0.2h-0.1H3.9h-1c-0.4,0-0.7-0.2-0.7-0.7v-0.7c0-0.3,0.2-0.4,0.4-0.5h0.2l0.1,0.2
			c0.1,0.2,0.4,0.2,0.7,0.2H4h6.7c0.6,0,0.8,0.4,0.8,1v0.2C11.2,104.3,11.1,105,11.1,105.6z M3.5,114.1L3,114.4
			c-0.2,0.1-0.3,0.1-0.4,0.1H2.5v-5.8c0-0.3,0.1-0.5,0.4-0.6l0.5-0.2c0.1-0.1,0.2,0,0.3,0.1l0.1,0.1c-0.1,0.3-0.1,0.4-0.1,0.7
			l0.1,4.4C4,113.6,3.9,113.9,3.5,114.1z M24.4,110.4l-1.9,1.8c-0.5,0.4-1.1,1.3-1.2,2.2h-0.7c-0.4,0-0.4-0.2-0.4-0.4v-0.2
			c-0.1-0.6,0.4-1.2,1-1.8l2.4-2.3c0.6-0.6,1.3-1.5,1.3-3c0-2.1-0.9-2.6-2.2-2.6h-5.9c-0.4,0-0.7-0.2-0.7-0.7v-0.7
			c0-0.3,0.2-0.4,0.4-0.5h0.2l0.1,0.2c0.1,0.2,0.4,0.2,0.7,0.2h5.6c2,0,3.1,0.9,3.1,3.9C26.3,108.2,25.6,109.4,24.4,110.4z
			 M17.5,118.2l-0.5,0.2c-0.2,0.1-0.3,0.1-0.4,0.1h-0.1v-10.8c0-0.3,0.1-0.5,0.3-0.6l0.5-0.2c0.1-0.1,0.3,0,0.4,0l0.1,0.1
			c-0.1,0.3-0.1,0.4-0.1,0.7l0.2,9.5C18,117.7,18,118,17.5,118.2z M32.6,108.8c-0.2,0.2-0.4,0.2-0.5,0.2h-0.3c-0.1,0-0.1,0-0.1,0
			c0-0.1,0-0.2,0.1-0.3c0.8-0.8,1.1-2.2,1.1-3.2c0-0.5-0.1-0.9-0.3-1.1c-0.1-0.2-0.5-0.3-1.1-0.3h-0.7c-0.7,0-0.9-0.2-0.9-0.9v-0.3
			c0-0.4,0.1-0.6,0.4-0.7l0.2-0.1l0.1,0.1c0.1,0.2,0.4,0.3,0.7,0.3h1.1c0.6,0,1.1,0.2,1.4,0.9c0.1,0.3,0.3,0.9,0.3,1.5
			C34.2,106.3,33.6,107.9,32.6,108.8z M45.2,114.2l-0.4,0.2c-0.2,0.1-0.3,0.1-0.4,0.1l0,0v-7.8c0-1.6-0.4-2.6-2.1-2.6h-3.9
			c-0.4,0-0.7-0.2-0.7-0.7v-0.7c0-0.3,0.2-0.4,0.4-0.5h0.2l0.1,0.2c0.1,0.2,0.4,0.2,0.7,0.2h3.7c2.3,0,2.9,1.1,2.9,3.1v7.5
			C45.7,113.7,45.6,114,45.2,114.2z M58.7,112.8c-0.6,0.9-1.4,1.5-2.9,1.5h-5.6l0,0l0.2-0.9c0.1-0.3,0.1-0.3,0.3-0.3h5
			c1,0,1.7-0.4,2.1-1.1c0.5-0.9,0.7-2.1,0.7-3.3c0-1.7-0.3-3.1-0.9-3.9c-0.4-0.5-1.1-0.7-2.2-0.7h-2.5c-0.3,0-0.6,0.1-0.7,0.3
			c-0.2,0.3-0.4,1.1-0.4,1.8c0,1.3,0.3,1.6,0.6,1.8c0.3,0.2,1.2,0.2,1.5,0.2l0.1,0.2l-0.1,0.6c-0.1,0.4-0.2,0.4-0.5,0.4
			c-0.6,0.1-1.6,0-1.9-0.3c-0.5-0.4-0.8-1-0.8-2.3c0-0.7,0.3-1.8,0.6-2.3l0.1-0.2l-0.1-0.1H51c-0.4,0-0.7-0.2-0.7-0.7v-0.7
			c0-0.3,0.2-0.4,0.4-0.5h0.2l0.1,0.2c0.1,0.2,0.4,0.2,0.7,0.2H52h3.8c1.2,0,2,0.3,2.6,0.9c0.9,0.9,1.3,2.8,1.3,4.8
			C59.7,109.9,59.5,111.6,58.7,112.8z M74.2,113.7l-0.2,0.4c-0.1,0.2-0.2,0.3-0.3,0.4c-0.1,0-0.1,0.1-0.2,0.1
			c-0.7-1.4-2.1-3.3-3.3-4.8c-0.9-1.1-1.8-2-2.4-2.6c-0.2-0.2-0.3-0.3-0.4-0.3c-0.2,0-0.4,0.1-0.5,0.3c-0.6,0.5-1.3,1.8-1.3,3.3
			c0,1.2,0.3,2.2,0.7,3.2l0,0l-0.3,0.5c-0.1,0.2-0.1,0.2-0.3,0.2H65h-1.4c0,0-0.1-0.2-0.2-0.3c-0.1-0.2,0-0.3,0.1-0.3
			c0.3-0.2,0.8-0.5,1-0.6c0.1-0.1,0-0.1,0-0.1c-0.1-0.5-0.2-1.4-0.2-2.1c0-2.1,0.8-3.4,2.1-4.8c0.1-0.1,0-0.2-0.1-0.4l-2.1-2
			c-0.2-0.2-0.3-0.3-0.3-0.4s0-0.3,0.1-0.5l0.1-0.3c0.1-0.2,0.2-0.3,0.3-0.4c0.1,0,0.2,0,0.3,0c0.1,0.3,0.5,0.8,1,1.2
			c0.5,0.4,0.8,0.8,1.7,1.5c0.8,0.7,2.3,2.2,3,2.9c0.1,0.1,0.1,0,0.2,0c0.4-0.8,0.8-2.1,0.8-3.1c0-0.5-0.1-1.2-0.3-1.7l-0.1-0.2
			c0-0.2,0.1-0.4,0.4-0.5h0.2l0.1,0.1c0.2,0.1,0.4,0.3,0.7,0.3h1c0.4,0,0.6,0.2,0.6,0.6v0.7c0,0.2,0,0.2-0.2,0.2h-1
			c-0.2,0-0.2,0.1-0.2,0.3c-0.1,1.2-0.7,3.1-1.5,4.1c-0.1,0.1,0,0.3,0.1,0.4c1,1.2,2,2.6,2.7,3.8c0.2,0.3,0.3,0.5,0.3,0.6
			C74.3,113.4,74.3,113.5,74.2,113.7z M86.8,108.8c-0.2,0.2-0.4,0.2-0.5,0.2H86c-0.1,0-0.1,0-0.1,0c0-0.1,0-0.2,0.1-0.3
			c0.8-0.8,1.1-2.2,1.1-3.2c0-0.5-0.1-0.9-0.3-1.1c-0.1-0.2-0.5-0.3-1.1-0.3H85c-0.7,0-0.9-0.2-0.9-0.9v-0.3c0-0.4,0.1-0.6,0.4-0.7
			l0.2-0.1l0.1,0.1c0.1,0.2,0.4,0.3,0.7,0.3h1.1c0.6,0,1.1,0.2,1.4,0.9c0.1,0.3,0.3,0.9,0.3,1.5C88.3,106.3,87.8,107.9,86.8,108.8z
			 M100.3,104.1h-0.6c-0.6,0-0.6,0.3-0.6,1.3c0,0.3,0,1,0,1.3l0.3,6.4c0,0.5-0.1,0.8-0.5,1l-0.5,0.3c-0.1,0.1-0.3,0.1-0.4,0.1h-0.1
			v-7.9c0-0.8,0.1-1.7,0.3-2l0.1-0.2c0-0.1,0-0.2,0-0.2h-0.1h-5.6c-0.4,0-0.6-0.2-0.6-0.7v-0.7c0-0.3,0.2-0.4,0.4-0.5h0.2l0.1,0.2
			c0.1,0.2,0.4,0.2,0.7,0.2h6.4c0.6,0,0.8,0.3,0.8,0.9v0.4L100.3,104.1z M107,114.2l-0.4,0.2c-0.2,0.1-0.3,0.1-0.4,0.1l0,0v-9.8
			c0-0.2,0-0.3-0.1-0.4s-0.3-0.2-0.4-0.2h-0.6h-0.5c-0.4,0-0.7-0.2-0.7-0.7v-0.7c0-0.3,0.2-0.4,0.4-0.5h0.2l0.1,0.2
			c0.1,0.2,0.4,0.2,0.7,0.2h0.4h0.2c0.6,0,1,0.1,1.3,0.4s0.4,0.8,0.4,1.5v8.7C107.5,113.7,107.4,114,107,114.2z M122.1,113.3
			c-0.1,0.3-0.4,0.7-0.5,0.9c-0.2,0.2-0.2,0.2-0.5,0.2H116v-0.1l0.2-0.9c0.1-0.3,0.1-0.4,0.4-0.4h4.1c0.5,0,0.4-0.3,0.5-0.5
			c0.2-0.5,0.4-1.8,0.4-2.9c0-1.3-0.3-2.6-0.6-3.4c-0.6-1.4-1.6-2.2-2.8-2.2c-1.4,0-2.4,1.4-3,2.5c-0.6,1.3-1.2,3-1.2,5.1l0,0
			c0,0.6,0.1,1.7,0.1,2c-0.3,0.3-0.7,0.7-1.1,0.8c-0.2-0.1-0.2-0.1-0.3-0.3c-0.1-0.2-0.1-0.9-0.1-1.2c0-2.2,0.4-3.8,0.9-5.2
			c0.2-0.4,0.3-1,0.2-1.3c0-0.5-0.2-1.3-0.2-1.5c-0.1-0.6-0.5-0.9-0.9-0.9h-0.4c-0.4,0-0.6-0.3-0.6-0.9v-0.3c0-0.3,0.2-0.6,0.4-0.7
			h0.2l0.1,0.2c0.1,0.2,0.3,0.2,0.6,0.2h0.5c0.5,0,0.9,0.2,1,0.9l0.1,1.4c0,0.4,0.2,0.7,0.3,0.7l0,0c0.2-0.5,0.5-0.9,0.9-1.4
			c0.6-0.8,1.7-1.7,2.9-1.7l0,0c1,0,2.3,0.4,3.2,2.2c0.4,0.8,0.9,2.4,0.9,4.3v0.1C122.9,110.3,122.6,112.2,122.1,113.3z M129,108.8
			c-0.2,0.2-0.4,0.2-0.5,0.2h-0.3c-0.1,0-0.1,0-0.1,0c0-0.1,0-0.2,0.1-0.3c0.8-0.8,1.1-2.2,1.1-3.2c0-0.5-0.1-0.9-0.3-1.1
			c-0.1-0.2-0.5-0.3-1.1-0.3h-0.7c-0.7,0-0.9-0.2-0.9-0.9v-0.3c0-0.4,0.1-0.6,0.4-0.7l0.2-0.1l0.1,0.1c0.1,0.2,0.4,0.3,0.7,0.3h1.1
			c0.6,0,1.1,0.2,1.4,0.9c0.1,0.3,0.3,0.9,0.3,1.5C130.5,106.3,130,107.9,129,108.8z M140.6,110.5l-1.5,1.3
			c-0.8,0.8-1.3,1.8-1.4,2.6H137c-0.4,0-0.4-0.2-0.5-0.4v-0.2c-0.1-0.7,0.4-1.4,1.2-2.2l2-1.9c0.6-0.6,1.3-1.5,1.3-3
			c0-1-0.1-1.8-0.5-2.2c-0.4-0.4-0.9-0.5-1.6-0.5H135c-0.6,0-0.9-0.4-0.9-0.9V99c0-0.4,0.1-0.6,0.6-0.7h0.4c0.2,0,0.4,0,0.5,0.2
			l0.1,0.4c0,0.1,0,0.1,0,0.2c-0.3,0.2-0.3,0.4-0.3,0.7v2.5c0,0.3,0.1,0.4,0.4,0.4h3.8c1,0,1.7,0.2,2.3,0.8c0.6,0.6,0.7,1.7,0.7,3.1
			C142.5,108.3,141.8,109.5,140.6,110.5z M152.1,110.5l-1.5,1.3c-0.8,0.8-1.3,1.8-1.4,2.6h-0.7c-0.4,0-0.4-0.2-0.5-0.4v-0.2
			c-0.1-0.7,0.4-1.4,1.2-2.2l2-1.9c0.6-0.6,1.3-1.5,1.3-3c0-1-0.1-1.8-0.5-2.2c-0.4-0.4-0.9-0.5-1.6-0.5h-4.1
			c-0.6,0-0.9-0.4-0.9-0.9V99c0-0.4,0.1-0.6,0.6-0.7h0.4c0.2,0,0.4,0,0.5,0.2l0.1,0.4c0,0.1,0,0.1,0,0.2c-0.3,0.2-0.3,0.4-0.3,0.7
			v2.5c0,0.3,0.1,0.4,0.4,0.4h3.8c1,0,1.7,0.2,2.3,0.8c0.6,0.6,0.7,1.7,0.7,3.1C154,108.3,153.3,109.5,152.1,110.5z M173.3,105.6
			c0,0.3,0,0.8,0,1.1l0.2,6.4c0,0.5-0.1,0.8-0.4,1l-0.5,0.3c-0.1,0.1-0.3,0.1-0.4,0.1h-0.1v-8.4c0-0.7,0.1-1.2,0.2-1.6l0.1-0.2
			c0-0.1,0-0.2,0-0.2h-0.1h-6.2h-1c-0.4,0-0.7-0.2-0.7-0.7v-0.7c0-0.3,0.2-0.4,0.4-0.5h0.2l0.1,0.2c0.1,0.2,0.4,0.2,0.7,0.2h0.4h6.7
			c0.6,0,0.8,0.4,0.8,1v0.2C173.4,104.3,173.3,105,173.3,105.6z M165.7,114.1l-0.5,0.2c-0.2,0.1-0.3,0.1-0.4,0.1h-0.1v-5.8
			c0-0.3,0.1-0.5,0.4-0.6l0.5-0.2c0.1-0.1,0.2,0,0.3,0.1l0.1,0.1c-0.1,0.3-0.1,0.4-0.1,0.7l0.1,4.4
			C166.2,113.6,166.1,113.9,165.7,114.1z M180.4,108.8c-0.2,0.2-0.4,0.2-0.5,0.2h-0.3c-0.1,0-0.1,0-0.1,0c0-0.1,0-0.2,0.1-0.3
			c0.8-0.8,1.1-2.2,1.1-3.2c0-0.5-0.1-0.9-0.3-1.1c-0.1-0.2-0.5-0.3-1.1-0.3h-0.7c-0.7,0-0.9-0.2-0.9-0.9v-0.3
			c0-0.4,0.1-0.6,0.4-0.7l0.2-0.1l0.1,0.1c0.1,0.2,0.4,0.3,0.7,0.3h1.1c0.6,0,1.1,0.2,1.4,0.9c0.1,0.3,0.3,0.9,0.3,1.5
			C182,106.3,181.4,107.9,180.4,108.8z M193,114.2l-0.4,0.2c-0.2,0.1-0.3,0.1-0.4,0.1l0,0v-7.8c0-1.6-0.4-2.6-2.1-2.6h-3.9
			c-0.4,0-0.7-0.2-0.7-0.7v-0.7c0-0.3,0.2-0.4,0.4-0.5h0.2l0.1,0.2c0.1,0.2,0.4,0.2,0.7,0.2h3.7c2.3,0,2.9,1.1,2.9,3.1v7.5
			C193.5,113.7,193.4,114,193,114.2z M203.5,110.5l-1.5,1.3c-0.8,0.8-1.3,1.8-1.4,2.6h-0.7c-0.4,0-0.4-0.2-0.5-0.4v-0.2
			c-0.1-0.7,0.4-1.4,1.2-2.2l2-1.9c0.6-0.6,1.3-1.5,1.3-3c0-1-0.1-1.8-0.5-2.2c-0.4-0.4-0.9-0.5-1.6-0.5h-4.1
			c-0.6,0-0.9-0.4-0.9-0.9V99c0-0.4,0.1-0.6,0.6-0.7h0.4c0.2,0,0.4,0,0.5,0.2l0.1,0.4c0,0.1,0,0.1,0,0.2c-0.3,0.2-0.3,0.4-0.3,0.7
			v2.5c0,0.3,0.1,0.4,0.4,0.4h3.8c1,0,1.7,0.2,2.3,0.8c0.6,0.6,0.7,1.7,0.7,3.1C205.3,108.3,204.6,109.5,203.5,110.5z M213.9,113.9
			l-0.4,0.4c-0.2,0.1-0.2,0.2-0.4,0.2H213c-0.1-0.9-0.4-3-0.6-3.6c-0.1-0.2-0.2-0.2-0.3,0l-0.4,0.9c-0.4,0.9-1.1,1.6-1.4,1.9
			c-0.6,0.6-1.4,0.9-1.8,0.9c-0.2,0-0.3,0-0.3-0.2l0.2-1c0-0.1,0-0.2,0.2-0.3c0.6-0.3,1.3-0.8,1.9-1.3c0.5-0.5,0.9-1.1,1.3-1.7
			c0.1-0.1,0.4-0.8,0.4-1.3v-3.2c0-0.9-0.3-1.3-1.2-1.3h-1.3c-0.3,0-0.5-0.1-0.6-0.3c-0.1-0.1-0.1-0.4-0.1-0.6v-0.3
			c0-0.3,0.1-0.6,0.4-0.6l0.2-0.1l0.1,0.2c0.1,0.1,0.2,0.3,0.6,0.3h1.3c1.2,0,1.8,0.4,1.8,1.7v3.5c0,0.7,0,1.1,0.1,1.7
			c0.2,1.1,0.5,2.3,0.8,3.3c0,0.2,0.1,0.4,0.1,0.5C214.2,113.6,214.1,113.8,213.9,113.9z M227.1,105.6c0,0.3,0,0.8,0,1.1l0.2,6.4
			c0,0.5-0.1,0.8-0.4,1l-0.5,0.3c-0.1,0.1-0.3,0.1-0.4,0.1h-0.1v-8.4c0-0.7,0.1-1.2,0.2-1.6l0.1-0.2c0-0.1,0-0.2,0-0.2h-0.1h-6.2h-1
			c-0.4,0-0.7-0.2-0.7-0.7v-0.7c0-0.3,0.2-0.4,0.4-0.5h0.2l0.1,0.2c0.1,0.2,0.4,0.2,0.7,0.2h0.4h6.7c0.6,0,0.8,0.4,0.8,1v0.2
			C227.2,104.3,227.1,105,227.1,105.6z M219.5,114.1l-0.5,0.2c-0.2,0.1-0.3,0.1-0.4,0.1h-0.1v-5.8c0-0.3,0.1-0.5,0.4-0.6l0.5-0.2
			c0.1-0.1,0.2,0,0.3,0.1l0.1,0.1c-0.1,0.3-0.1,0.4-0.1,0.7l0.1,4.4C220.1,113.6,219.9,113.9,219.5,114.1z"/>
	</g>
</g>
</svg>
